<?xml version="1.0" encoding="utf-8"?>
<!-- Generator: Adobe Illustrator 24.0.1, SVG Export Plug-In . SVG Version: 6.00 Build 0)  -->
<svg version="1.1" id="Vrstva_1" xmlns="http://www.w3.org/2000/svg" xmlns:xlink="http://www.w3.org/1999/xlink" x="0px" y="0px"
	 viewBox="0 0 595.3 841.9" style="enable-background:new 0 0 595.3 841.9;" xml:space="preserve">
<style type="text/css">
	.st0{display:none;}
	.st1{fill-rule:evenodd;clip-rule:evenodd;fill:#896200;}
	.st2{fill:#896200;}
	.st3{fill:#A0A0A0;stroke:#000000;stroke-width:0.2154;stroke-miterlimit:2.4142;}
	.st4{fill-rule:evenodd;clip-rule:evenodd;fill:#FFFFFF;}
	.st5{fill:#00692C;}
	.st6{fill:#A0A0A0;}
	.st7{fill-rule:evenodd;clip-rule:evenodd;fill:#FFED00;}
	.st8{fill:none;stroke:#000000;stroke-width:0.2154;stroke-miterlimit:2.4142;}
	.st9{fill-rule:evenodd;clip-rule:evenodd;fill:#BA1A22;stroke:#BA1A22;stroke-miterlimit:10;}
	.st10{fill:none;stroke:#000000;stroke-width:3.4016;stroke-linecap:round;stroke-linejoin:round;stroke-miterlimit:2.4142;}
	.st11{fill:#CCBF1A;stroke:#1D1D1B;stroke-width:2;stroke-miterlimit:10;}
	.st12{fill:none;stroke:#1D1D1B;stroke-width:2;stroke-miterlimit:10;}
</style>
<g id="Mřížka" class="st0">
</g>
<g id="Vrstva_1_1_">
</g>
<g id="Pracovní_plocha">
</g>
<g id="Vodicí_linky">
</g>
<g>
	<path class="st1" d="M150.1,582.8l-20.8-23.4l41.7-36.1l-25.2-26.7l-23,21.3l-19.3-21.2l44.3-37.8l0,0l37.9-32.2
		c12,6.6,13.8,5.2,63.8,67.9C169.3,566.1,230.1,511.1,150.1,582.8L150.1,582.8z M208.8,491.2l-25.2-26.7l-25,22.6l24.9,26.9
		L208.8,491.2L208.8,491.2z"/>
	<path class="st1" d="M461.1,584.8l21.2-23.4l-42.5-36.1l25.7-26.7l23.5,21.3l19.7-21.2l-45.2-37.8l0,0l-38.6-32.2
		c-12.3,6.6-14.1,5.2-65.1,67.9C441.5,568.1,379.4,513,461.1,584.8L461.1,584.8z M401.2,493.1l25.7-26.7l25.5,22.6l-25.5,27
		L401.2,493.1L401.2,493.1z"/>
	<g id="XMLID_12_">
		<g>
			<path d="M252.7,492.2c2.5-0.1,2.3,1.5,2.6,3.7c-23.5,19.9-71.2,59.5-106.7,89.1l-24.3-26.8l42.1-35L144,500l-23.7,20.2
				l-22.7-24.3c35.3-29.5,64.7-53.9,88.2-73.3c1.9,0.5,2.6,1,2.1,3.2c-22.9,19.4-51,43-84,70.5l4.9,5.2c32-26.7,59.2-49.1,82.4-67.9
				c25.8,13.9,25.5,21.1,41.3,40l-102.4,85.1l4,4.1c33.2-27.7,80.7-66.8,104.5-86.2c1.9,1,2.2,0.6,2.7,3.6
				c-11.7,9.8-25,21-40.1,33.6l0,0c-15.2,12.6-48.6,40.3-63.7,52.9l5.9,6.3c34.1-28.5,81-67.4,104.2-86.6c1.1,0.5,2.1,0,1.7,1.5
				c-23.1,19.4-69.9,58.4-104.1,86.9l3.3,3.5C182.4,550.1,229.4,511.4,252.7,492.2z M217.4,479.9l-27.6-28.5
				c-3.7-4.1-12.8,2.1-7.6,7.7l26.9,27.8L217.4,479.9z M204.9,490.9l-22.8-23.5l-21.4,18.8l22.2,23.2L204.9,490.9z M179.4,512.7
				l-28.2-29.1c-3.7-4.1-12.8,2.1-7.6,7.7l27.5,28.4L179.4,512.7z M179.4,464.7l-2.1-2.4l-20,17.4l2.1,2.4
				C166,476.2,172.6,470.5,179.4,464.7z M155.1,477.5l20.7-17.3c-1.3-2.4-1-5-0.2-7.5c-9.6,8.1-19.2,16.2-28.8,24.3
				C149.2,475.9,152.9,475.9,155.1,477.5z M140.8,496.9l-2.1-2.4l-20,17.4l2.1,2.4L140.8,496.9z M116.5,509.7l20.7-17.3
				c-1.3-2.4-1-5-0.2-7.5l-24.4,20.5L116.5,509.7z"/>
		</g>
	</g>
	<g id="XMLID_14_">
		<g>
			<path class="st2" d="M463.5,478.9c-2.5-1-6.2-1-8.4,0.6l-20.7-17.3c1.3-2.4,1-5,0.2-7.5C444.3,462.7,453.9,470.8,463.5,478.9z"/>
			<path class="st2" d="M453,481.6l-2.1,2.4c-6.6-5.9-13.3-11.5-20-17.3l2.1-2.4L453,481.6z"/>
			<path class="st2" d="M459,485.6c3.7-4.1,12.8,2.1,7.6,7.7l-27.5,28.3l-8.3-7L459,485.6z"/>
			<polygon class="st2" points="491.6,513.8 489.5,516.2 469.5,498.9 471.5,496.5 			"/>
			<path class="st2" d="M497.7,507.3l-4,4.4L473,494.4c1.3-2.4,1-5,0.2-7.5L497.7,507.3z"/>
			<path d="M432.9,464.2l-2.1,2.4c6.7,5.8,13.4,11.5,20,17.3l2.1-2.4L432.9,464.2z M434.4,462.2l20.7,17.3c2.2-1.5,5.9-1.5,8.4-0.6
				c-9.6-8.1-19.2-16.2-28.8-24.3C435.4,457.2,435.8,459.8,434.4,462.2z M471.5,496.5l-2.1,2.4l20,17.3l2.1-2.4L471.5,496.5z
				 M473,494.4l20.7,17.3l4-4.4l-24.5-20.5C474,489.4,474.4,492,473,494.4z M362.5,488.3c23.1,19.2,70.1,58.1,104.2,86.6l5.9-6.3
				c-15.2-12.6-48.6-40.3-63.7-52.9l0,0c-15.1-12.6-28.4-23.7-40.1-33.6c0.5-3,0.8-2.6,2.7-3.6c23.9,19.4,71.3,58.5,104.5,86.2
				l4-4.1l-102.4-85.1c15.8-18.9,15.5-26.1,41.3-40c23.1,18.7,50.4,41.2,82.4,67.9l4.9-5.1c-33-27.5-61.1-51.1-84-70.5
				c-0.5-2.2,0.3-2.8,2.2-3.2c23.6,19.4,52.9,43.8,88.2,73.3L490,522.1l-23.6-20.2L444,525.1l42.1,35l-24.3,26.8
				c-35.5-29.5-83.2-69.2-106.7-89.1c0.3-2.1,0.1-3.8,2.6-3.7c23.4,19.1,70.3,57.9,104.1,86.1l3.3-3.5
				c-34.2-28.5-81-67.5-104.1-86.9C360.4,488.4,361.4,488.8,362.5,488.3z M466.6,493.3c5.1-5.6-4-11.8-7.6-7.7l-28.2,29.1l8.3,7
				L466.6,493.3z M427.3,511.4l22.2-23.2L428,469.4l-22.8,23.5L427.3,511.4z M428,461.1c5.1-5.6-4-11.8-7.6-7.7l-27.6,28.5l8.3,7
				L428,461.1z"/>
		</g>
	</g>
	<rect x="293.1" y="181.8" class="st3" width="36.2" height="117"/>
	<polygon class="st4" points="507.9,426 505.8,426.8 503.7,427.5 501.6,427.9 499.6,428.2 497.6,428.3 495.6,428.2 493.7,428 
		491.9,427.6 490,427.1 488.3,426.5 486.5,425.8 484.9,424.9 483.2,423.9 481.7,422.9 480.2,421.7 478.7,420.4 477.4,419.1 
		476.1,417.7 474.8,416.2 473.7,414.6 472.6,413 471.6,411.4 470.7,409.7 469.9,407.9 469.1,406.2 467.8,402.2 466.8,398.3 
		466.1,394.7 465.6,391.3 465.4,388 465.4,385 465.5,382.1 465.9,379.3 466.5,376.7 467.2,374.2 468,371.8 469,369.5 470.1,367.3 
		471.3,365.1 472.5,363 473.9,361 475.2,359 476.6,357 478,355 479.4,353 480.8,351.1 482.1,349.1 483.4,347 484.6,345 485.6,342.8 
		486.6,340.6 487.5,338.3 488.1,335.9 488.6,333.4 488.9,330.7 488.9,328.3 489.1,328.4 491.7,329.5 494.4,330.5 497.1,331.4 
		499.8,332.1 502.5,332.7 505.2,333.2 507.9,333.7 510.5,334.1 513.2,334.4 515.8,334.7 518.4,335 521,335.3 523.6,335.5 
		526.1,335.9 528.5,336.2 530.9,336.6 533.3,337.1 535.6,337.7 537.9,338.4 540,339.1 542.2,340 544.2,341 546.2,342.2 548.1,343.5 
		549.9,345.1 551.7,346.8 553.4,348.7 555,350.8 556.5,353.2 558,355.9 559.4,358.8 560.3,361.3 561.2,363.8 561.8,366.3 
		562.4,368.7 562.8,371.1 563.1,373.5 563.3,375.8 563.3,378.1 563.2,380.3 563,382.5 562.7,384.6 562.3,386.6 561.8,388.6 
		561.2,390.5 560.5,392.3 559.6,394.1 558.7,395.7 557.8,397.3 556.7,398.8 555.5,400.2 554.3,401.4 553,402.6 551.7,403.6 
		550.3,404.6 548.8,405.4 547.2,406 545.7,406.6 544,407 542.3,407.3 540.6,407.4 538.8,407.4 534.7,407.1 535.5,410.6 535.7,411.6 
		535.9,412.7 536.1,413.7 536.3,414.7 536.5,415.8 536.7,416.8 536.9,417.8 537.1,418.9 537.3,419.9 537.5,420.9 537.7,422 
		537.8,423 538,424 538.1,424.4 537.4,424.6 536.4,424.9 535.3,425.3 534.1,425.6 532.9,426 531.7,426.4 530.5,426.8 529.4,427.1 
		528.5,427.4 528.5,426.8 528.4,425.8 528.2,424.8 528.1,423.8 528,422.8 527.8,421.9 527.6,421 527.5,420.2 527.3,419.3 
		527.1,418.5 526.9,417.8 526.7,417 526.5,416.3 525.5,412.3 521.2,416.8 518.9,418.9 516.7,420.8 514.4,422.4 512.2,423.8 510,425 
			"/>
	<g id="XMLID_10_">
		<g>
			<path class="st5" d="M555,361.4c11.2,25.8-4.1,39.4-18.5,42.4c-2.5,0.3-4-4.5-0.8-4.6c17.5-4.1,22.9-18,15.3-34.8
				c-2.4-4.8-5.3-8.3-8.5-10.9c-7.1-5.8-15.9-7.4-24.4-8.8c-8.5-1.3-16.9-2.3-23-6.7c0.5,6.8-1.4,12.6-4.1,17.9
				c-7.7,14.9-22.3,26.7-12.3,48.6c10.8,20.5,25.6,18.8,39.4,4.3c0.4-1.2,0.7-2,1-2.5c0.8-1.3,1.3,0.5,1.4,5.4
				c-15.7,17.9-34.2,18.2-46.1-4.4c-12.3-29.4,12.5-49.3,18.8-73.4C513.7,342.8,543.7,334.8,555,361.4z"/>
			<path class="st5" d="M516.7,405.6c-0.1,0.1-0.1,0.3-0.2,0.4c-4.7,8.1-25.2,18.5-35.7-3.2c-8.3-19.3,4.6-31.6,12.4-46.1
				c1.7-3.1,3.1-6.4,4-9.8c2.5,4.9,4.2,10,4.9,14.1c-3,3-6.7,4.6-10.9,6.6c3.3,1,7.8,0.5,12.4-0.2c-4.2,3.7-10.1,6.6-17.9,8.7
				c7.4,2.2,15.2,3.5,23.4,4.4c-5.1,5.7-13.9,8.9-23.2,11.6c4.4,2.4,12.2,3.5,27.5,1.8c-5.8,6.7-14.4,9.5-24.2,10.5
				C497.4,407.5,506.6,407.9,516.7,405.6z"/>
			<path class="st5" d="M534.7,421.1c-1.5,0.7-2.9,1.4-4.4,2.1c-8.2-25-18-47.6-28.4-69.6C517.6,372.3,528.7,395.3,534.7,421.1z"/>
			<path class="st5" d="M548.4,369.6c0,7.4-6.1,12.1-18.4,14.1c5,3.3,10.9,3.7,17.9,1.5c-3.5,5.1-8.8,8.9-16.6,8.6
				c-8.7-18.1-19.7-34.3-31.6-49.5c5.7,1.5,11.6,2.7,18.3,2.5c-2.4,2-5.2,3.4-7.6,5.4c5.9-0.3,12.5-0.6,18.5-0.9
				c-2.6,4.6-6.2,8.5-10,10.4c8.1,0.1,15.4-3.1,21.9-6.5c0,8.2-6.8,14.1-16.2,17.5C532.2,374,540.2,373,548.4,369.6z"/>
			<path d="M542.5,353.5l-1.8,1.6c-6.5,3.4-13.8,6.7-21.9,6.5c3.8-1.9,7.4-5.8,10-10.4c-5.9,0.3-12.5,0.6-18.5,0.9
				c2.4-2,5.2-3.4,7.6-5.4l0.1-2C526.6,346.1,535.4,347.7,542.5,353.5z"/>
			<path d="M502,353.5c10.4,22,20.2,44.7,28.4,69.6c1.5-0.7,2.9-1.4,4.4-2.1C528.7,395.3,517.6,372.3,502,353.5z M518,346.8
				c-6.8,0.2-12.6-1-18.3-2.5c11.9,15.3,22.9,31.4,31.6,49.5c7.8,0.3,13.1-3.5,16.6-8.6c-7,2.2-12.9,1.8-17.9-1.5
				c12.3-2,18.5-6.7,18.4-14.1c-8.2,3.4-16.2,4.4-23.9,3c9.4-3.4,16.2-9.3,16.2-17.5l1.8-1.6c3.3,2.7,6.2,6.2,8.5,10.9
				c7.7,16.8,2.2,30.7-15.3,34.8c-3.3,0-1.8,4.8,0.8,4.6c14.4-3,29.7-16.5,18.5-42.4c-11.4-26.7-41.4-18.6-62-27.4
				c-6.3,24.1-31.1,44.1-18.8,73.4c11.9,22.6,30.4,22.3,46.1,4.4c-0.1-4.9-0.6-6.6-1.4-5.4l-2.5-0.4c0.1-0.1,0.2-0.3,0.2-0.4
				c-10.1,2.3-19.2,1.9-27.5-1.1c9.9-1,18.4-3.8,24.2-10.5c-15.3,1.8-23.1,0.6-27.5-1.8c9.3-2.8,18.1-5.9,23.2-11.6
				c-8.2-0.8-16-2.2-23.4-4.4c7.7-2.1,13.7-5,17.9-8.7c-4.7,0.7-9.2,1.1-12.4,0.2c4.2-1.9,7.9-3.5,10.9-6.6
				c-0.7-4.1-2.4-9.2-4.9-14.1c-0.9,3.4-2.4,6.6-4,9.8L491,356c2.8-5.4,4.6-11.2,4.1-17.9c6.1,4.4,14.4,5.3,23,6.7L518,346.8z
				 M560.9,358.3c11.7,28.1-3,54-24,51.2c1.1,5.5,2.3,11,3.1,16.7c0,0-13,3.8-13,4.2c-0.4-6.4-1.3-10.5-2.4-14.3
				c-24.8,27.2-49.3,10.9-57.1-9.1c-16.2-46.1,22.7-52.6,19.4-81.7C514.2,340.1,546.1,323.9,560.9,358.3z"/>
			<path d="M480.7,402.8c10.6,21.7,31.1,11.3,35.7,3.2l2.5,0.4c-0.3,0.5-0.6,1.3-1,2.5c-13.8,14.5-28.6,16.2-39.4-4.3
				c-9.9-21.9,4.7-33.7,12.3-48.6l2.1,0.7C485.3,371.2,472.4,383.6,480.7,402.8z"/>
		</g>
	</g>
	<polygon class="st4" points="499.1,501.1 496.9,500.6 494.8,500 492.9,499.2 491.1,498.4 489.4,497.4 487.9,496.2 486.4,495 
		485,493.7 483.8,492.3 482.7,490.7 481.7,489.2 480.8,487.5 480,485.8 479.3,484 478.6,482.2 478.1,480.3 477.7,478.4 477.4,476.5 
		477.2,474.5 477.1,472.5 477.1,470.6 477.1,468.6 477.3,466.6 477.6,464.7 477.9,462.9 479,458.7 480.2,454.8 481.6,451.3 
		483,448.1 484.6,445.2 486.2,442.6 488,440.2 489.8,438 491.6,436.1 493.5,434.4 495.5,432.8 497.6,431.3 499.7,430 501.8,428.8 
		504,427.7 506.1,426.6 508.4,425.7 510.6,424.7 512.8,423.8 515,422.9 517.2,421.9 519.3,421 521.5,419.9 523.6,418.8 525.6,417.5 
		527.6,416.2 529.5,414.6 531.4,412.9 533.2,411.1 534.8,409 536.2,406.9 536.2,407 537.8,409.5 539.5,411.8 541.2,414 543,416.1 
		544.9,418.1 546.9,420 548.8,421.9 550.8,423.7 552.8,425.4 554.8,427.1 556.8,428.8 558.8,430.5 560.7,432.1 562.6,433.7 
		564.4,435.4 566.2,437.1 567.9,438.8 569.5,440.5 571,442.3 572.3,444.2 573.6,446.1 574.7,448.1 575.7,450.2 576.6,452.4 
		577.3,454.7 577.8,457.1 578.1,459.7 578.3,462.4 578.3,465.3 578,468.4 577.6,471.7 577,474.3 576.4,476.9 575.6,479.4 
		574.8,481.8 573.8,484.1 572.8,486.3 571.6,488.4 570.4,490.3 569.2,492.2 567.8,494 566.5,495.6 565,497.1 563.5,498.5 562,499.8 
		560.4,501 558.8,502.1 557.2,503 555.5,503.8 553.9,504.5 552.2,505 550.5,505.5 548.8,505.7 547.1,505.9 545.5,505.9 543.8,505.8 
		542.2,505.5 540.6,505.1 539,504.6 537.5,503.9 536,503.1 534.5,502.1 531.4,499.5 530.1,503 529.7,504 529.3,505 528.9,506 
		528.5,507 528.1,508 527.8,509 527.3,510 527,511 526.6,512 526.2,512.9 525.7,513.9 525.3,514.9 524.9,515.9 524.8,516.3 
		524.1,516.1 523.1,515.8 522,515.5 520.8,515.1 519.6,514.8 518.4,514.4 517.2,514.1 516.1,513.8 515.3,513.6 515.6,513.1 
		516,512.1 516.5,511.1 516.9,510.2 517.3,509.3 517.7,508.5 518,507.6 518.3,506.8 518.6,506 518.9,505.2 519.2,504.4 519.4,503.7 
		519.7,502.9 520.9,498.9 515,500.4 512,501 509.1,501.4 506.4,501.6 503.8,501.6 501.4,501.4 	"/>
	<g id="XMLID_9_">
		<g>
			<path class="st5" d="M533.3,435.7c2.7,24.7-0.5,50.5-9.5,75.9c-1.6-0.2-3.1-0.4-4.7-0.6C525.8,485,529.9,460.2,533.3,435.7z"/>
			<path class="st5" d="M536.4,414c12.3,18.9,41.2,28.4,36.2,57.5c-4.7,28.3-24.6,31.5-38.1,26.2c-2.2-1.2-0.9-6.1,1.8-4.3
				c16.6,6.1,28.5-2.8,31.3-21.5c0.6-5.4,0.1-10-1.1-14.1c-2.6-8.3-8.4-14.4-14.3-19.9c-6.6-6.2-13.5-11.8-16.3-19.3
				c-12.2,23-44.5,15.1-49.4,48c-2.2,23.5,10.9,30.2,30,25.3c3.7-3.2,3.8-2,0.4,3.7c-22.6,6.7-37.9-3.1-35.6-29
				C487.1,434.7,518.3,431.2,536.4,414z"/>
			<path class="st5" d="M532.8,427.4c-0.6,5.6-2,10.9-3.6,14.8c-4.1,1-8,0.3-12.5-0.3c2.2,2.6,6.1,4.7,10.3,6.7
				c-5.4,0.9-11.9,0.1-19.4-2.3c4.9,5.9,10.6,11.4,16.9,16.6c-7.3,2.1-16.2,0-25.3-2.8c2.3,4.5,8.1,9.7,21.7,16.6
				c-8.4,2.6-17,0.3-25.6-4.3c5.2,7.2,12.5,12.5,22,16.1c-7.8,4.7-31.1,2.7-28.1-22.1C493.5,440.7,518.2,441,532.8,427.4z"/>
			<path class="st5" d="M542.7,451.9c6.6,4.6,14.3,5.8,21.5,6.4c-4.4,7-13.1,8.4-22.7,6.1c5.6,5.4,12.7,8.9,21.3,10.5
				c-4,6.4-11.5,7.1-22.8,2c2.3,5.6,7,9.1,13.9,11.1c-5.6,2.4-12,2.8-18.3-1.7c2.6-20.3,2.3-40.2,0.7-59.8
				c3.9,4.4,8.1,8.6,13.7,12.2c-3.1,0.4-6.1,0-9.2,0.4c5,3,10.6,6.4,15.6,9.3C551.9,450.9,546.9,452.3,542.7,451.9z"/>
			<path d="M566.6,457.9l-2.4,0.4c-7.2-0.6-14.9-1.9-21.5-6.4c4.2,0.4,9.2-0.9,13.8-3.4c-5-3-10.6-6.4-15.6-9.3
				c3.1-0.4,6.1-0.1,9.2-0.4l2.2-0.7C558.2,443.5,564,449.5,566.6,457.9z"/>
			<path d="M533.3,435.7c-3.3,24.5-7.4,49.4-14.2,75.2c1.6,0.2,3.1,0.4,4.7,0.6C532.8,486.1,536,460.3,533.3,435.7z M529.2,442.1
				c1.6-3.9,3-9.2,3.6-14.8c-14.6,13.7-39.3,13.3-43.6,38.9c-3.1,24.8,20.3,26.8,28.1,22.1c-9.5-3.5-16.8-8.9-22-16.1
				c8.7,4.5,17.2,6.8,25.6,4.3c-13.5-6.9-19.3-12.1-21.7-16.6c9.1,2.8,18.1,4.9,25.3,2.8c-6.3-5.2-12-10.7-16.9-16.6
				c7.5,2.4,14,3.2,19.4,2.3c-4.2-2-8.2-4-10.3-6.7C521.3,442.4,525.2,443.1,529.2,442.1z M564.2,458.3l2.4-0.4
				c1.3,4.1,1.8,8.7,1.1,14.1c-2.8,18.6-14.7,27.5-31.3,21.5c-2.7-1.8-4.1,3.2-1.8,4.3c13.5,5.3,33.3,2.1,38.1-26.2
				c5-29.1-24-38.7-36.2-57.5c-18.2,17.2-49.3,20.7-55,52.6c-2.4,25.9,13,35.8,35.6,29c3.4-5.7,3.3-6.9-0.4-3.7
				c-19.2,4.9-32.2-1.8-30-25.3c4.9-33,37.2-25,49.4-48c2.8,7.5,9.7,13.1,16.3,19.3l-2.2,0.7c-5.7-3.5-9.8-7.8-13.7-12.2
				c1.6,19.6,1.8,39.5-0.7,59.8c6.2,4.5,12.7,4.2,18.3,1.7c-6.9-1.9-11.5-5.5-13.9-11.1c11.2,5,18.8,4.4,22.8-2
				c-8.6-1.6-15.6-5.1-21.3-10.5C551.1,466.7,559.8,465.3,564.2,458.3z M536.1,403.4c14.5,27.5,49.4,31.1,43,68.7
				c-5.5,30.5-31.5,44.7-47.3,30.8c-2,5.4-4.1,10.7-6.5,16c0,0-12.9-3.9-13-3.5c3.1-5.7,4.5-9.7,5.8-13.5
				c-35,9.7-46.4-17.7-42.1-39.1C487.7,414.4,523.1,430.2,536.1,403.4z"/>
		</g>
	</g>
	<polygon class="st4" points="470.2,570.9 468,569.5 465.9,568 464,566.4 462.3,564.7 460.7,563 459.3,561.2 458,559.4 456.9,557.5 
		456,555.5 455.1,553.5 454.4,551.5 453.9,549.5 453.5,547.4 453.1,545.4 453,543.3 452.9,541.2 453,539.1 453.1,537.1 453.4,535.1 
		453.8,533.1 454.3,531.1 454.9,529.2 455.6,527.3 456.4,525.5 457.2,523.8 459.5,520.1 461.9,516.8 464.2,513.9 466.6,511.4 
		469.1,509.2 471.6,507.3 474,505.7 476.6,504.3 479.1,503.2 481.6,502.3 484.2,501.6 486.8,501 489.4,500.6 492,500.4 494.7,500.2 
		497.3,500.1 500,500.1 502.6,500.1 505.3,500.2 507.9,500.2 510.6,500.2 513.2,500.2 515.8,500.1 518.3,499.9 520.9,499.5 
		523.4,499 525.9,498.3 528.3,497.5 530.8,496.3 533.1,495 535.1,493.5 535.2,493.6 536.2,496.8 537.4,499.8 538.8,502.8 
		540.2,505.6 541.7,508.5 543.3,511.2 545,513.9 546.7,516.5 548.4,519.1 550.1,521.7 551.8,524.2 553.5,526.7 555.2,529.1 
		556.8,531.6 558.4,534 559.8,536.5 561.2,538.9 562.5,541.3 563.7,543.8 564.7,546.2 565.5,548.7 566.2,551.1 566.8,553.6 
		567.1,556.2 567.3,558.8 567.2,561.4 566.9,564.1 566.4,566.9 565.6,569.7 564.6,572.7 563.2,575.7 561.9,578.1 560.5,580.4 
		559,582.5 557.5,584.5 555.8,586.4 554.2,588.1 552.4,589.7 550.6,591.2 548.7,592.5 546.8,593.6 544.9,594.6 542.9,595.5 
		540.9,596.3 538.9,596.9 536.9,597.4 534.9,597.7 532.9,598 530.9,598 528.9,598 526.9,597.8 525,597.5 523.1,597.1 521.2,596.5 
		519.4,595.8 517.6,594.9 515.9,594 514.3,592.9 512.7,591.7 511.2,590.3 509.8,588.8 508.5,587.2 505.7,583.3 503.4,586.2 
		502.7,587 502,587.8 501.4,588.7 500.7,589.5 500,590.3 499.3,591.1 498.6,592 498,592.8 497.3,593.6 496.6,594.4 495.9,595.2 
		495.1,596 494.4,596.8 494.2,597.1 493.5,596.6 492.5,595.9 491.4,595.1 490.2,594.2 489,593.4 487.8,592.5 486.6,591.7 
		485.5,590.9 484.6,590.3 485,589.9 485.8,589.2 486.5,588.4 487.2,587.7 487.9,587 488.5,586.3 489.1,585.6 489.6,584.9 
		490.2,584.2 490.7,583.5 491.2,582.9 491.7,582.3 492.1,581.6 494.5,578.2 487.7,577.1 484.3,576.4 481.1,575.5 478.1,574.5 
		475.3,573.4 472.7,572.2 	"/>
	<g id="XMLID_8_">
		<g>
			<path class="st5" d="M526.1,512.4c-2.1,5.3-5,9.9-7.7,13.1c-4.7-0.8-8.7-3.2-13.4-5.7c1.7,3.5,5.4,7.3,9.5,11.1
				c-6.1-1.5-12.9-5-20.5-10.7c3.8,8,8.5,15.9,14,23.7c-8.5-1-17.6-7-26.8-13.7c1.4,5.5,6.3,13.2,19.2,25.9
				c-9.8-1.1-18.5-7.1-26.7-15.3c3.7,9.3,10.3,17.8,19.7,25.5c-0.2,0-0.4,0-0.6,0.1c-10.1,0.7-33.7-11.3-24.1-34.1
				c7.8-16.2,22.9-16,37.9-16.7C513.2,515.1,520,514.6,526.1,512.4z"/>
			<path class="st5" d="M524.5,520.8c-3.5,25.7-13.8,49.9-30.1,71.2c-1.6-0.9-3.3-1.8-4.9-2.7C503.5,566.6,514.4,543.7,524.5,520.8z
				"/>
			<path class="st5" d="M533.5,500.7c8.4,24,37.4,46,24.3,72.8c-12.5,26-35,20.6-48.2,9.5c-2.1-2.1,0.6-6.4,3.1-3.5
				c16.5,13.2,31.7,9.5,39.6-7.7c2.2-5.4,2.8-10.4,2.4-15.2c-0.9-9.6-5.9-18.3-11.1-26.5c-5.3-8.5-10.8-16.6-11.9-24.8
				c-7.1,6.5-16.2,7.6-25.4,7.9c-15.7,0.6-32-0.9-40.8,18.3c-8.5,22.4,3.9,34.7,26.1,38.1c0.5-0.2,0.9-0.3,1.3-0.4
				c3.4-0.9,2.8,0.5-1.9,4.3c-26.3-3.1-40.4-19.6-31.1-44.2C474.5,499.9,509.3,509.9,533.5,500.7z"/>
			<path class="st5" d="M546.4,543.5c-5.7,0.5-11.5-0.3-15.9-2.6c6,7.4,14.1,11.9,21.7,15.7c-6.7,5.1-16.5,2.6-26.3-3.8
				c4.7,7.8,11.5,14.3,20.3,19.6c-6,4.6-14.4,2-25.3-7.8c1.1,6.5,5.2,12.1,12.2,17c-6.7,0-13.8-2.4-19.4-9.6c8.1-19,13-38.9,16.4-59
				c3.1,6,6.5,12.1,11.7,18c-3.5-0.9-6.6-2.6-10.1-3.5C536.5,532.6,541.7,538.4,546.4,543.5z"/>
			<path d="M554.8,556.5l-2.6,0.2c-7.6-3.8-15.7-8.3-21.7-15.7c4.4,2.2,10.3,3.1,15.9,2.6c-4.7-5.1-9.9-10.9-14.6-16
				c3.5,1,6.6,2.6,10.1,3.5l1.8-1.1C548.8,538.2,553.9,546.9,554.8,556.5z"/>
			<path d="M524.5,520.8c-10,22.9-21,45.8-35.1,68.5c1.6,0.9,3.3,1.8,4.9,2.7C510.7,570.7,521,546.5,524.5,520.8z M518.4,525.5
				c2.8-3.2,5.7-7.8,7.7-13.1c-6.1,2.3-12.9,2.7-19.7,3l-0.1-2.4c9.3-0.3,18.3-1.4,25.4-7.9c1.1,8.2,6.5,16.3,11.9,24.8l-1.8,1.1
				c-5.2-5.9-8.6-12-11.7-18c-3.4,20.2-8.3,40-16.4,59c5.6,7.2,12.7,9.6,19.4,9.6c-7-4.9-11.1-10.5-12.2-17
				c10.9,9.9,19.3,12.5,25.3,7.8c-8.9-5.3-15.7-11.9-20.3-19.6c9.8,6.4,19.6,8.8,26.3,3.8l2.6-0.2c0.4,4.8-0.2,9.9-2.4,15.2
				c-7.9,17.3-23.1,21-39.6,7.7c-2.5-2.9-5.2,1.4-3.1,3.5c13.2,11.1,35.7,16.5,48.2-9.5c13-26.7-15.9-48.7-24.3-72.8
				c-24.2,9.2-59-0.8-73.5,28.4c-9.3,24.6,4.8,41.1,31.1,44.2c4.7-3.8,5.3-5.2,1.9-4.3l-0.3-2.8c0.2,0,0.4,0,0.6-0.1
				c-9.4-7.6-16-16.1-19.7-25.5c8.2,8.2,16.9,14.2,26.7,15.3c-12.9-12.7-17.8-20.4-19.2-25.9c9.2,6.7,18.3,12.7,26.8,13.7
				c-5.5-7.9-10.2-15.8-14-23.7c7.5,5.7,14.4,9.2,20.5,10.7c-4-3.8-7.8-7.5-9.5-11.1C509.6,522.3,513.7,524.7,518.4,525.5z M536,490
				c8.6,33.5,45.5,52.2,28.8,86.8c-14,27.8-45.9,30.6-59.4,10.1c-3.6,4.4-7.2,8.9-11.2,13.1c0,0-13-9.5-13.2-9.1
				c4.8-4.3,7.5-7.7,9.8-11c-40.6-5.5-45.8-37.6-35.5-57C480.5,479.9,514.9,510.9,536,490z"/>
			<path d="M468.6,532.1c-9.6,22.8,14,34.8,24.1,34.1l0.3,2.8c-0.4,0.1-0.8,0.2-1.3,0.4c-22.1-3.4-34.5-15.7-26.1-38.1
				c8.8-19.2,25.1-17.7,40.8-18.3l0.1,2.4C491.5,516.1,476.4,515.9,468.6,532.1z"/>
		</g>
	</g>
	<polygon class="st4" points="412.8,617 411.7,615 410.8,613.1 410,611.2 409.4,609.2 409,607.3 408.8,605.5 408.8,603.6 
		408.8,601.8 409,600 409.4,598.3 409.9,596.6 410.5,594.9 411.3,593.3 412.1,591.7 413,590.1 414.1,588.6 415.2,587.2 416.5,585.8 
		417.8,584.5 419.2,583.3 420.6,582.1 422.1,581 423.7,580 425.3,579 426.9,578.2 430.8,576.6 434.5,575.3 438,574.3 441.4,573.5 
		444.6,573 447.7,572.7 450.6,572.6 453.4,572.8 456.1,573.1 458.7,573.5 461.3,574.1 463.7,574.8 466.1,575.7 468.5,576.6 
		470.8,577.6 473,578.7 475.2,579.8 477.4,581 479.6,582.2 481.8,583.3 484,584.5 486.2,585.5 488.4,586.6 490.7,587.5 493,588.4 
		495.4,589.1 497.8,589.7 500.3,590.1 502.9,590.4 505.6,590.4 508.1,590.2 508,590.4 507.3,593 506.7,595.7 506.2,598.3 505.9,601 
		505.7,603.6 505.5,606.2 505.5,608.8 505.5,611.4 505.6,614 505.6,616.5 505.8,619 505.9,621.5 505.9,624 506,626.4 506,628.8 
		505.9,631.1 505.8,633.4 505.6,635.7 505.3,637.9 504.8,640.1 504.2,642.2 503.5,644.2 502.6,646.2 501.6,648.1 500.3,650 
		498.9,651.9 497.2,653.6 495.3,655.4 493.1,657 490.7,658.7 487.9,660.3 485.6,661.4 483.2,662.4 480.8,663.3 478.5,664 
		476.1,664.6 473.8,665.1 471.5,665.5 469.2,665.7 466.9,665.8 464.7,665.8 462.6,665.7 460.5,665.5 458.4,665.2 456.4,664.8 
		454.5,664.3 452.6,663.6 450.8,662.9 449.1,662.1 447.4,661.2 445.9,660.3 444.4,659.2 443.1,658.1 441.8,656.9 440.7,655.6 
		439.6,654.3 438.7,652.8 437.9,651.4 437.3,649.8 436.7,648.2 436.3,646.6 436.1,644.9 435.9,641 432.4,642 431.4,642.3 
		430.4,642.6 429.4,642.9 428.4,643.2 427.4,643.4 426.4,643.7 425.4,644 424.4,644.3 423.4,644.6 422.3,644.8 421.3,645.1 
		420.3,645.3 419.3,645.6 418.9,645.7 418.6,645.1 418.2,644.2 417.7,643.1 417.1,642 416.6,640.9 416,639.7 415.4,638.6 
		414.9,637.6 414.5,636.8 415.1,636.7 416.1,636.5 417.1,636.3 418.1,636.1 419,635.9 419.9,635.6 420.8,635.4 421.6,635.2 
		422.4,634.9 423.2,634.7 424,634.4 424.7,634.2 425.4,633.9 429.2,632.6 424.1,628.8 421.6,626.9 419.4,624.9 417.4,622.9 
		415.7,621 414.1,619 	"/>
	<g id="XMLID_7_">
		<g>
			<path class="st5" d="M503.3,594.1c-5.7,20.5,6.8,48.5-18.3,61.7c-24.3,13-40.1-0.5-45.3-14c-0.7-2.4,3.9-4.3,4.5-1.1
				c6.8,16.4,21.4,20.3,37.2,11.5c4.8-2.9,8-6.3,10.2-10c4.2-7.1,4.5-15.2,4.6-23.2c0.1-8.3-0.2-16.4,3.3-22.7
				c-25.4,4.1-41.3-25.4-69.2-9.9c-18.9,12.1-15.1,26.1,1.6,38c4.9,0.9,4,1.8-2.5,2.5c-20.3-13.4-23.4-31.1-2.5-44.5
				C454.4,568.2,478.1,590.2,503.3,594.1z"/>
			<path class="st5" d="M419.4,637.6c23.8-10,45.1-21.4,65.6-33.3c-16.5,16.6-37.9,29.3-62.9,37.3
				C421.2,640.3,420.3,639,419.4,637.6z"/>
			<path class="st5" d="M490.8,599.1c-4.5,2.8-9.4,4.9-13.4,5.9c-3.5-2.6-5.6-6-8.2-9.8c-0.5,3.2,0.7,7.5,2.1,11.9
				c-4.3-3.7-8.1-9.1-11.4-16.3c-1.1,7.2-1.3,14.8-0.9,22.7c-6.5-4.4-11-12.5-15.1-21.1c-1.8,4.4-1.7,12,2.3,26.5
				c-7.6-5-11.7-12.9-14.2-22.2c-1.8,8.2-0.9,17,2.9,26.4c-8.8-3.3-23.1-22.4-2.6-34.6C454.3,576.7,470.8,595.9,490.8,599.1z"/>
			<path class="st5" d="M493.9,601.3c-0.6,5.6-1,11.3,0.3,17.7c-2.4-2.2-4.2-4.7-6.5-6.8c1.2,5.6,2.5,11.9,3.7,17.5
				c-5-2.1-9.4-5.2-11.9-8.7c1.1,7.8,5.4,14.5,9.8,20.4c-8.3,0.7-15.1-5.2-20-13.9c-0.2,7.5,2,15,6.6,22.5
				c-7.4,0.7-13.1-4.7-16.9-16.4c-2.6,5.1-2.1,10.7,1.2,17.2c-5.6-2.9-10.3-7.6-11.1-15.1C465.8,626,480.3,614.1,493.9,601.3z"/>
			<path d="M496.2,619.1c-0.1,7.9-0.4,16.1-4.6,23.2l-2.4-0.7c-4.4-5.9-8.7-12.6-9.8-20.4c2.5,3.5,6.9,6.6,11.9,8.7
				c-1.2-5.6-2.5-11.9-3.7-17.5c2.4,2.2,4.1,4.7,6.5,6.8L496.2,619.1z"/>
			<path d="M485,604.4c-20.5,11.8-41.8,23.3-65.6,33.3c0.9,1.3,1.8,2.7,2.7,4C447,633.6,468.4,621,485,604.4z M430.2,586.6
				c27.9-15.5,43.8,14,69.2,9.9c-3.5,6.3-3.2,14.3-3.3,22.7h-2c-1.2-6.4-0.9-12.1-0.3-17.7c-13.6,12.8-28.1,24.6-45,34.6
				c0.8,7.5,5.5,12.2,11.1,15.1c-3.2-6.5-3.7-12.1-1.2-17.2c3.8,11.6,9.5,17.1,16.9,16.4c-4.6-7.6-6.8-15.1-6.6-22.5
				c4.8,8.7,11.7,14.6,20,13.9l2.4,0.7c-2.2,3.7-5.4,7.1-10.2,10c-15.8,8.8-30.4,4.9-37.2-11.5c-0.5-3.1-5.1-1.3-4.5,1.1
				c5.1,13.5,21,26.9,45.3,14c25.1-13.3,12.6-41.2,18.3-61.7c-25.1-3.9-48.9-25.9-76.5-11.5c-20.9,13.4-17.8,31,2.5,44.5
				c6.5-0.7,7.4-1.5,2.5-2.5C415.1,612.7,411.3,598.7,430.2,586.6z M477.4,605c4-1.1,8.9-3.1,13.4-5.9
				c-20.1-3.3-36.5-22.5-58.5-10.8c-20.6,12.2-6.2,31.4,2.6,34.6c-3.8-9.4-4.8-18.2-2.9-26.4c2.5,9.3,6.6,17.3,14.2,22.2
				c-4-14.5-4.1-22-2.3-26.5c4.2,8.7,8.6,16.8,15.1,21.1c-0.4-7.9-0.2-15.5,0.9-22.7c3.3,7.2,7.1,12.6,11.4,16.3
				c-1.4-4.4-2.5-8.7-2.1-11.9C471.8,599.1,473.9,602.5,477.4,605z M510.9,587.6c-10.7,27.3,10.3,56.3-22,73.5
				c-26.5,13.6-54.6,1.9-55-18.4c-5.4,1.6-10.7,3.1-16.3,4.4c0,0-5.7-12.1-6.2-12.1c6.3-0.9,10.3-2.2,14-3.5
				c-30.9-21.3-18.3-46.2,0.6-55.4c17.8-7.9,29.7-5.2,41-2.6c2.3,0.5,3.5-1,6-0.7c4,0.5,9.1,3.4,12.5,4.6c2,0.8,4.5,1.2,5.6,1.9
				C498.2,583.9,503.3,586,510.9,587.6z"/>
		</g>
	</g>
	<polygon class="st4" points="357.4,704.4 358.9,706.2 360.4,707.8 362,709.3 363.7,710.6 365.5,711.8 367.3,712.8 369.1,713.7 
		371,714.5 373,715.1 375,715.6 377,716 379,716.2 381,716.4 383,716.4 385.1,716.3 387.1,716.2 389.1,715.9 391.1,715.5 393.1,715 
		395.1,714.5 397,713.8 398.8,713.1 400.6,712.3 402.4,711.5 404,710.5 407.5,708.2 410.7,705.8 413.5,703.4 415.9,701 417.9,698.6 
		419.7,696.3 421.2,694 422.4,691.6 423.4,689.3 424.2,687 424.8,684.7 425.3,682.4 425.6,680.1 425.7,677.8 425.8,675.4 
		425.8,673.1 425.7,670.8 425.6,668.5 425.4,666.3 425.3,664 425.2,661.7 428.6,658.2 428.6,655.9 428.8,653.6 429,651.4 
		429.4,649.1 430,646.9 430.8,644.7 431.8,642.5 433,640.3 434.4,638.4 434.2,638.4 431.1,637.8 428.1,637.1 425.2,636.3 
		422.3,635.3 419.5,634.3 416.7,633.2 414,632.1 411.4,630.9 405.3,631 402.7,629.7 400.2,628.5 397.7,627.3 395.2,626.1 392.8,625 
		390.3,623.9 387.9,622.9 385.4,622 383,621.1 380.6,620.4 378.1,619.8 375.7,619.3 373.3,619 370.8,618.8 368.3,618.7 365.8,618.9 
		363.2,619.2 360.5,619.8 357.8,620.5 355.1,621.5 352.2,622.8 349.3,624.3 347,625.7 344.8,627.1 342.7,628.6 340.8,630.2 
		339,631.8 337.4,633.5 335.9,635.2 334.6,636.9 333.4,638.7 332.3,640.4 331.4,642.2 330.6,644 329.9,645.8 329.4,647.7 329,649.5 
		328.7,651.2 328.6,653 328.5,654.8 328.7,656.5 328.9,658.2 329.3,659.8 329.8,661.4 330.4,663 331.2,664.5 332.1,665.9 
		333.1,667.3 334.2,668.6 335.5,669.8 336.9,671 338.4,672 340,673 343.9,675 341.2,677.3 340.4,678 339.6,678.6 338.8,679.3 
		330.2,685.4 329.5,686.1 328.7,686.8 327.9,687.4 327.1,688.1 326.4,688.8 325.6,689.5 324.8,690.2 324.1,690.9 323.3,691.6 
		323,691.9 323.5,692.4 324.3,693.2 325.1,694 326,695 326.9,696 327.8,696.9 328.6,697.9 329.4,698.8 330,699.4 330.4,699 
		331.1,698.3 331.8,697.5 332.5,696.9 333.2,696.2 333.9,695.6 334.5,695 343,689.1 343.6,688.5 344.2,688 344.9,687.5 345.5,687 
		346.1,686.6 349.3,684.1 350.6,689.9 351.5,692.8 352.4,695.5 353.5,698 354.7,700.3 356,702.4 	"/>
	<g id="XMLID_6_">
		<g>
			<path class="st5" d="M423.9,639.7l-0.8,2.8c-19.9-0.1-43.5-21.9-69.5-9.4c-16.6,8.7-19.7,22.4-6.1,35.2c3,1.8-1.1,4.7-3.3,3.1
				c-11.4-10.2-17.5-29.1,7.5-42.8C376.2,615.1,401,633.9,423.9,639.7z"/>
			<path class="st5" d="M393.8,637.8c6,3.9,15.6,4.9,21.6,7c-19.6,5.2-42.4,12.8-60.7,21.9c-7.3-4.1-9.9-9.9-10.1-15.8
				c5.1,5.5,10.7,8.5,17.1,8.7c-10.1-8.3-12.9-15.4-8.6-21c5.5,7.1,12.2,12.3,20,15.5c-6.6-7.8-9.4-16-4.7-22.4
				c4,6.2,8.7,12.7,16.2,17.1c-2.4-3.6-3.4-8.6-3.1-13.5c5.2,3.5,11,7.4,16.3,10.9C396.6,643.3,394.9,640.7,393.8,637.8z"/>
			<path class="st5" d="M404.5,651.9c-15.5,7.9-38.1,21.5-57.8,34c-8.4,5.3-16.2,10.5-22.7,14.9c-0.9-1.3-1.9-2.7-2.8-4
				C341.4,680.2,379.5,657.7,404.5,651.9z"/>
			<path d="M437.7,637.3c-19.7,20.6,8.4,48.3-32.8,74.8c-18.6,11.1-50.3,10-57.2-24.6l-1.1-1.7c19.7-12.5,42.3-26.1,57.8-34
				c-25,5.9-63.1,28.3-83.4,44.8h-0.2c-0.5-2.6-0.8-4.5-0.8-4.5c4-3.9,16-12.9,20.3-16.5c-20.7-9.5-19.1-37.5,7.7-52.6
				C381.4,604.7,404.5,633.5,437.7,637.3z M427.4,640.5c-1.2-0.2-2.3-0.5-3.5-0.8c-22.9-5.9-47.7-24.6-72.2-11.1
				c-25,13.7-18.9,32.6-7.5,42.8c2.2,1.6,6.3-1.3,3.3-3.1c-13.6-12.9-10.5-26.5,6.1-35.2c26.1-12.6,49.7,9.3,69.5,9.4
				c-5.7,6.5-7.1,14-7.8,21.8l-2-0.2c0.5-5.5,1.1-10.9,2.9-15.8c-5.1,2.4-13,6.6-16,9.4c1,4,3.4,7.2,6.1,11c-3.5-1.1-7.4-3.9-11.2-7
				c1.7,5.1,5.4,10.7,11.2,16.6c-7.9-2.4-15.9-5.7-23.8-9.5c1.3,7.2,7.5,14.5,14.4,21.8c-5.4-0.6-13.1-4-26.1-13.8
				c1.4,8.4,7.6,15.3,16,21.5c-9.3-2.2-17.8-7-25.7-14.3l-2.6-0.2c0.3-2-1.2-1-4.3,2.9c4,22.5,20.6,32.9,44.5,22.1
				C426.9,692.9,419.2,662.6,427.4,640.5z M415.4,644.8c-6-2-15.6-3.1-21.6-7c1.1,2.9,2.8,5.4,3.8,8.3c-5.2-3.5-11.1-7.4-16.3-10.9
				c-0.3,5,0.8,9.9,3.1,13.5c-7.5-4.4-12.2-10.9-16.2-17.1c-4.7,6.3-2,14.6,4.7,22.4c-7.8-3.2-14.4-8.4-20-15.5
				c-4.3,5.7-1.5,12.7,8.6,21c-6.4-0.2-12-3.2-17.1-8.7c0.3,5.8,2.9,11.7,10.1,15.8C373.1,657.6,395.8,650,415.4,644.8z"/>
			<path class="st5" d="M423.9,639.7c1.2,0.3,2.3,0.6,3.5,0.8c-8.2,22-0.5,52.4-28.6,68.1c-23.8,10.8-40.5,0.3-44.5-22.1
				c3.1-4,4.6-5,4.3-2.9c-0.1,0.5-0.2,1.2-0.5,2c4.2,18.8,16.7,28.2,38.3,18.4c19.2-10.1,17.8-25.3,19-39.8
				c0.7-7.7,2.1-15.3,7.8-21.8L423.9,639.7z"/>
			<path d="M413.3,664.1l2,0.2c-1.2,14.5,0.2,29.7-19,39.8c-21.6,9.8-34.1,0.4-38.3-18.4c0.3-0.8,0.4-1.5,0.5-2l2.6,0.2
				c-0.9,8.5,11.8,28.8,34.3,17.7C411.8,692.6,412.1,678.1,413.3,664.1z"/>
			<path class="st5" d="M416.2,648.3c-1.8,5-2.4,10.4-2.9,15.8c-1.2,14-1.5,28.5-17.8,37.4c-22.5,11-35.2-9.2-34.3-17.7
				c7.8,7.3,16.4,12.1,25.7,14.3c-8.4-6.2-14.6-13.1-16-21.5c12.9,9.8,20.7,13.2,26.1,13.8c-6.9-7.3-13.1-14.5-14.4-21.8
				c7.9,3.9,15.8,7.1,23.8,9.5c-5.8-5.9-9.6-11.4-11.2-16.6c3.9,3.1,7.7,6,11.2,7c-2.7-3.8-5.1-7.1-6.1-11
				C403.2,654.9,411.1,650.6,416.2,648.3z"/>
			<path d="M346.7,685.9l1.1,1.7c-3.1,2.4-21,15.9-25,20.6c0.2-0.4-0.9-6.9-1.7-11.4h0.2c0.9,1.3,1.9,2.7,2.8,4
				C330.5,696.3,338.3,691.2,346.7,685.9z"/>
		</g>
	</g>
	<g id="XMLID_15_">
		<g>
			<path class="st6" d="M315.3,706.5c1.7-3.3,5.1-1.9,1.2,5c-5.1,6.4-14.2,7.6-20-0.4c-1.7-1.9-4-11.9,4.7-12.7
				c4.3-0.6,9.8-0.7,9.7,2c0.3,3.6-1.6,6.8-4.9,7.8c-2,0.8-1.5,2.5,0.4,2.5C309.7,710.9,312.7,709.8,315.3,706.5z"/>
			<path class="st6" d="M318.3,676.8c3.6-2.9,7.1,3.2,4.7,6.1c-9.9,11.5-21.4,9.9-30.9,3c-4.4-3.7-1.1-10.3,2.6-7.9
				C303,681.9,310.8,681,318.3,676.8z"/>
			<path class="st6" d="M325.2,631.1c0.5,13.8-0.7,27.4-3.4,34.2c-1.5,2.6-3.5,2.8-3-0.4c1.4-7.4,1.3-20.4,1.2-33.5
				c-0.1-6.3-0.3-13.2-1.3-19.6c-1.1-7-2.8-13.4-3.4-17.4c1,0.5,2.4-0.2,3.5-0.8c1.1,4.4,3.2,11,4.6,18.3
				C324.5,618.2,325,625,325.2,631.1z"/>
			<path class="st6" d="M311.8,594.7c0.4,7.5,3.7,23.8,3.9,36.9c0.2,12.7,0.6,25.4-0.4,32.6c-0.5,5.4-3.7,7.5-7,7.7
				c-4.4,0.3-7.1-0.1-9.2-0.8c-6.7-3.4-9.6-19.2-10.5-36.6c-0.5-10.7,1.3-29.5,4.1-38.8c5.1,1.3,2.8,1.7,10.6,0.3
				c1.1,4.3,2.3,10.2,3.6,18.6c2.4,14.8,4.2,30.5,3.9,45.7c1-6,1.5-17.1,1.5-28.6c0-5.1-0.2-12-0.9-17.4c-1-8-2.8-14.2-3.5-18.5
				C309.3,595.4,310.5,595.1,311.8,594.7z"/>
			<path d="M306,587.8c5.2,0.5,10.5,1.1,15.7,1.6c6.4,8,9.6,26,10,41.3s-2.1,31-6.9,40.8c8.2,6.9,2.2,19.4-2.7,22.8
				c9.3,29.8-14.4,29.7-16.1,29.7h-0.3c-1.7,0-25.5,0.2-16.2-29.7c-4.9-3.3-10.9-15.9-2.7-22.8c-9.6-19.6-9.8-66,3.1-82.1
				c5.2-0.5,10.5-1.1,15.7-1.6l0,0c0.1,0,0.1,0,0.2,0C305.9,587.8,306,587.8,306,587.8L306,587.8z M311.6,614.2
				c0.7,5.4,0.9,12.3,0.9,17.4c0,11.5-0.5,22.6-1.5,28.6c0.4-15.2-1.4-30.8-3.9-45.7c-1.4-8.4-2.5-14.3-3.6-18.6
				c-7.8,1.4-5.6,1-10.6-0.3c-2.8,9.3-4.6,28.1-4.1,38.8c0.9,17.3,3.8,33.2,10.5,36.6c2,0.7,4.8,1.1,9.2,0.8c3.3-0.2,6.4-2.3,7-7.7
				c1-7.3,0.6-19.9,0.4-32.6c-0.2-13.1-3.5-29.4-3.9-36.9c-1.2,0.3-2.4,0.7-3.6,1C308.8,600,310.5,606.2,311.6,614.2z M321.8,665.3
				c2.7-6.8,3.9-20.3,3.4-34.2c-0.2-6.1-0.7-12.9-1.9-19.3c-1.4-7.2-3.5-13.9-4.6-18.3c-1,0.6-2.4,1.3-3.5,0.8
				c0.6,4,2.4,10.4,3.4,17.4c1,6.4,1.3,13.4,1.3,19.6c0.1,13.1,0.2,26.2-1.2,33.5C318.3,668.1,320.3,667.9,321.8,665.3z M323,682.9
				c2.4-2.9-1.1-9-4.7-6.1c-7.4,4.2-15.3,5.1-23.6,1.2c-3.8-2.4-7,4.2-2.6,7.9C301.6,692.8,313,694.3,323,682.9z M316.5,711.6
				c3.9-7,0.5-8.4-1.2-5c-2.6,3.3-5.6,4.4-8.9,4.4c-1.9,0-2.3-1.7-0.4-2.5c3.3-1,5.2-4.2,4.9-7.8c0.1-2.8-5.5-2.6-9.7-2
				c-8.7,0.7-6.4,10.8-4.7,12.7C302.3,719.2,311.4,717.9,316.5,711.6z"/>
		</g>
	</g>
	<polygon class="st7" points="259.1,243.7 254.2,243.7 254.2,251.6 259.1,251.6 	"/>
	<path class="st7" d="M340.4,217.7c16,0.8,29.9-3.8,42.3-12.4c1.9-1.4,2.7,0.7,0.9,2.3c-13.4,10.4-28,14.7-43.8,13
		C336.7,220.1,337.2,217.2,340.4,217.7L340.4,217.7z"/>
	<path class="st7" d="M360.3,224.7c8.5-0.7,16.6-2.4,23.1-7.4c2.5-2.3,4.6,0.8,1.6,3.2c-7.7,5.8-16,9.1-25.2,8.6
		C356.6,228.6,356,224.3,360.3,224.7L360.3,224.7z"/>
	<path class="st7" d="M377.2,230.3c2.9-0.5,5.1-2.1,7.6-3.8c1.8-1.5,2.5,0.6,1.1,1.8c-2,1.1-4.3,2.8-7,3.5
		C376.7,232.6,375.5,230.5,377.2,230.3L377.2,230.3z"/>
	<path class="st4" d="M488.5,230.6l2.5,0.5l2.5,0.6l2.4,0.8l2.3,0.9l2.2,1l2.1,1.1l2,1.3l1.9,1.4l1.8,1.5l1.7,1.6l1.5,1.7l1.4,1.8
		l1.2,1.9l1,2.1l0.8,2.2l0.6,2.3l0.4,2.4l0.2,2.5v2.6l-0.6,5.9l7.7-2.5l4.3-1.1l4.2-0.8l4-0.4l3.9-0.1l3.7,0.2l3.5,0.5l3.3,0.7
		l3.2,1l3,1.2l2.8,1.4l2.6,1.6l2.4,1.8l2.2,2l1.9,2.1l1.7,2.3l1.5,2.4l1.2,2.5l1,2.6l0.7,2.7l0.5,2.8l0.2,2.9l-0.1,2.9l-0.3,2.9
		l-0.6,3l-0.9,3l-1.2,3l-1.5,2.9l-1.9,2.9l-0.2,0.3l0.2-1l0.2-1.9l0.1-1.9v-1.9l-0.2-1.8l-0.3-1.8l-0.4-1.7l-0.5-1.7l-0.7-1.6
		l-0.8-1.5l-0.9-1.4l-1-1.3l-1.1-1.2l-1.3-1.1l-1.4-1l-1.5-0.8l-1.6-0.7l-1.7-0.5l-1.8-0.3l-1.8-0.2h-1.9l-1.9,0.2l-2,0.4l-2,0.6
		l-2.1,0.8l-2.1,1l-2.2,1.3l-118,86l-15-27.2l-27.1-57l80.7-59.1l2.1-1.2l2.2-1l2.3-0.9l2.4-0.8l2.4-0.6l2.5-0.5l2.5-0.3l2.6-0.2
		h2.6l2.6,0.1l2.6,0.2L488.5,230.6L488.5,230.6z M448.7,276.5l-30.8,21l1.5,44.9l53.7-40.4L448.7,276.5L448.7,276.5z M461.5,267.4
		l24.3,24.9l24.1-18c-1.4-20.1-13-26.7-26.5-22.7l-0.7,0.5L461.5,267.4L461.5,267.4z"/>
	<g id="XMLID_13_">
		<g>
			<path class="st2" d="M419.4,376.6l-6.8-14.5L523.2,281c10.5-7.4,26.5-11.3,40.3-1.7c6.5,4.8,11.5,13.6,7.6,24.8
				c-1.4-18.7-21.1-24.3-34.8-13.5L419.4,376.6z M419.7,371L527,291.1c4-2.7,9-5.8,14.8-7.9c-5.6,0.6-12,3-16.2,5.9l-107.7,80.1
				L419.7,371z"/>
			<path class="st2" d="M570.3,283.2c-0.7-1.1-1.5-2.1-2.3-3c-14.1-14.5-37.8-11.1-49.6-1.4l-107.6,79.1l-2.7-4.1L515.4,273
				c11.8-9.7,35.5-13.1,49.6,1.4C567.2,276.8,569,279.9,570.3,283.2z"/>
			<path class="st2" d="M455.7,265.1l26.8,27.3l-8.6,6.4l-26.2-26.6C442.8,266.8,452.1,261.2,455.7,265.1z"/>
			<path class="st2" d="M502.9,252.3c-7.7-6-18.2-4.3-21.6-1.4l-18.8,13.5l-2.9-2.9l12.2-9.1c2.7-1.9,5-3.3,9.9-4.6
				c-4.2-0.1-6.5,0-11.3,3.1L458,260c-1.5-1.1-4.1-1.4-6.4-1l18.1-13.4c6.8-5.1,17.5-5.7,26.7-2.6c12.6,4.2,22.5,14.9,15.5,27.2
				C511,262.8,507.7,256.1,502.9,252.3z"/>
			<polygon class="st2" points="442.8,275 445.1,277.9 422.7,294.2 390.3,316.8 388.7,313.6 			"/>
			<path class="st2" d="M441.3,273l-53.6,38.9l-3.2-4.9l56.7-41C440.5,268.4,440.1,270.7,441.3,273z"/>
			<path class="st2" d="M513.6,253.9c-2.7-5.6-7.6-10-13.6-12.8c-14.5-6.1-25.7-4.8-36.6,2.7L382.2,302l-2.7-5.6l81.4-58.4
				c10.5-6.6,28-6.8,39.3-1.3C507.6,240.3,512.2,246.3,513.6,253.9z"/>
			<path d="M417.8,369.3l107.7-80.1c4.2-2.9,10.6-5.3,16.2-5.9c-5.7,2.1-10.8,5.1-14.8,7.9L419.7,371L417.8,369.3z"/>
			<path d="M418.6,382.6l-41.7-90.1l81.2-58.9c23.7-14.3,65.5-1.3,61.1,30.3c50.1-18,78.2,29.3,44.2,59.1
				c11.4-18.8-1.8-42.5-23.5-28.8L418.6,382.6z M441.3,273c-1.3-2.3-0.8-4.6,0-7l-56.7,41l3.2,4.9L441.3,273z M445.1,277.9l-2.4-2.9
				l-54,38.6l1.6,3.2l32.4-22.6L445.1,277.9z M447.2,279.7L423,298.1c14,22.5,0.6,0.4,17.2,25.7c29.5-21.3,6.7-4.6,29.5-21.3
				L447.2,279.7z M511.9,270.1c7-12.3-2.8-23-15.5-27.2c-9.2-3.1-19.9-2.5-26.7,2.6L451.6,259c2.4-0.5,4.9-0.1,6.4,1l12.3-9.1
				c4.8-3.1,7.1-3.2,11.3-3.1c-4.9,1.3-7.2,2.6-9.9,4.6l-12.2,9.1l2.9,2.9l18.8-13.5c3.4-2.9,13.9-4.6,21.6,1.4
				C507.7,256.1,511,262.8,511.9,270.1z M500,241.1c6,2.8,10.9,7.1,13.6,12.8c-1.4-7.6-5.9-13.6-13.4-17.2
				c-11.2-5.5-28.8-5.3-39.3,1.3l-81.4,58.4l2.7,5.6l81.2-58.2C474.4,236.3,485.5,235,500,241.1z M571.1,304.1
				c3.8-11.2-1.1-20-7.6-24.8c-13.7-9.6-29.7-5.7-40.3,1.7l-110.6,81.1l6.8,14.5l116.9-86C550,279.8,569.7,285.4,571.1,304.1z
				 M518.3,278.7c11.8-9.7,35.6-13.1,49.6,1.4c0.8,0.9,1.6,1.9,2.3,3c-1.3-3.3-3.1-6.4-5.3-8.9c-14.1-14.5-37.8-11.1-49.6-1.4
				L408,353.7l2.7,4.1L518.3,278.7z M507.4,274.4c0.5-13.5-8.9-24.5-23.2-20.7l-19.5,14l21.7,22.1L507.4,274.4z M482.5,292.4
				l-26.8-27.3c-3.6-3.9-12.9,1.7-7.9,7.1l26.2,26.6L482.5,292.4z"/>
		</g>
	</g>
	<g id="XMLID_16_">
		<g>
			<rect x="249.4" y="243.8" class="st6" width="4.9" height="7.9"/>
			<path class="st6" d="M318,173c3.5-2.5,5.9,2,2.7,4c-7,3.8-17.2,4.5-24.6,2.5c-2.8-1-1.5-5.6,0.8-4.7
				C304.1,177,311.2,176.8,318,173z"/>
			<path class="st6" d="M320.7,160.3c0,2.4-0.9,4.7-2.4,6.5c-1.3-11.5-7.6-11-11.5-11.1c2.5,0.5,7.9,5.3,5.4,15
				c-1.1,0.3-2.3,0.5-3.6,0.5c-6.7,0-12.1-4.9-12.1-10.9s5.4-10.9,12.1-10.9S320.7,154.3,320.7,160.3z"/>
			<path class="st6" d="M286.9,211.2v40.3l-27.8,0.1V237c-29.7,2.7-52.5,5.9-53.7,20.4c-11.7-19-7.2-44.1,6.5-54.7
				c12.8-10,36.4-8.1,57.6-8.4h16.9l0.5,10c-57.6-0.3-73.7-4.7-79.4,16.7C219.4,206.3,227.5,210.1,286.9,211.2z"/>
			<path class="st6" d="M393.9,169.7c21.3,28.5,21.9,70.8-0.1,99.2c-13.8-14.4-27.3-23.3-44.5-23.5l-18.6,0.1v-35.2
				c25.7-0.9,42.8-11.2,57.3-23.6c2.5-1.9,0.4-4.6-1.8-2.3c-12.8,8.9-29.9,16.4-55.6,15.2v-8.1C353.3,191.2,376.9,187.8,393.9,169.7
				z M385.9,228.2c1.5-1.2,0.7-3.3-1.1-1.8c-2.5,1.7-4.8,3.3-7.6,3.8c-1.7,0.3-0.5,2.3,1.7,1.5C381.7,231,383.9,229.4,385.9,228.2z
				 M385,220.5c3-2.4,0.9-5.5-1.6-3.2c-6.4,5-14.5,6.7-23.1,7.4c-4.3-0.4-3.8,3.8-0.5,4.4C369,229.5,377.3,226.3,385,220.5z
				 M383.7,207.6c1.8-1.6,1-3.7-0.9-2.3c-12.4,8.6-26.4,13.2-42.3,12.4c-3.3-0.5-3.7,2.3-0.5,2.9C355.7,222.3,370.3,218,383.7,207.6
				z"/>
			<path d="M393.4,158.4c33.9,37,31.5,89.7-1.8,125.4c-10.3-16.1-23.6-26.9-42.4-26.7l-18.7,0.1V293h-7.1V182.3
				c-1.5,0.8-3.1,1.4-4.9,1.9V293h-4V185.1c-1.6,0.3-3.2,0.4-4.9,0.4V293H306V185.4c-5-0.3-9.5-1.7-12.9-3.6V293h-6.2v-32.4
				l-25.4,0.1c-5.3-0.2-10.6,1.4-16,3v-16.5c-25.8,2.5-35.6,3.1-39,25.3c-21.5-36.8-15.7-54.5-4.3-70.1s41.9-16.8,70.4-16.6h14.3
				v-9.1c0-0.3-0.1-0.6-0.1-0.9c0-3.3,2.2-6.2,5.9-8.5c-1.1-2.1-1.8-4.5-1.8-7c0-8.8,8-16.1,17.8-16.1s17.8,7.2,17.8,16.1
				c0,2.5-0.6,4.9-1.8,7c3.6,2.2,5.9,5.2,5.9,8.4l0,0v3.5h0.1v4.8C364.2,183.7,380.9,176.3,393.4,158.4z M393.8,268.9
				c22-28.4,21.4-70.7,0.1-99.2c-16.9,18.1-40.5,21.5-63.2,21.8v8.1c25.6,1.2,42.7-6.2,55.6-15.2c2.2-2.3,4.2,0.4,1.8,2.3
				c-14.5,12.3-31.7,22.6-57.3,23.6v35.2l18.6-0.1C366.5,245.6,380,254.5,393.8,268.9z M320.7,177.1c3.2-2,0.8-6.5-2.7-4
				c-6.8,3.8-13.9,4-21.1,1.8c-2.3-0.9-3.6,3.7-0.8,4.7C303.6,181.6,313.7,180.9,320.7,177.1z M318.3,166.8c1.5-1.8,2.4-4.1,2.4-6.5
				c0-6-5.4-10.9-12.1-10.9s-12.1,4.9-12.1,10.9s5.4,10.9,12.1,10.9c1.2,0,2.4-0.2,3.6-0.5c2.5-9.6-3-14.5-5.4-15
				C310.7,155.8,317,155.3,318.3,166.8z M286.9,251.5v-40.3c-59.4-1.1-67.5-4.9-79.4,9.8c5.8-21.4,21.8-16.9,79.4-16.7l-0.5-10
				h-16.9c-21.2,0.2-44.8-1.6-57.6,8.4c-13.7,10.7-18.2,35.8-6.5,54.7c1.2-14.5,24-17.8,53.7-20.4v14.6L286.9,251.5z M254.3,251.7
				v-7.9h-4.9v7.9H254.3z"/>
			<path d="M383.4,217.3c2.5-2.3,4.6,0.8,1.6,3.2c-7.7,5.8-16.1,9.1-25.2,8.6c-3.2-0.5-3.8-4.8,0.5-4.4
				C368.9,224,377,222.3,383.4,217.3z"/>
			<path d="M377.2,230.3c2.9-0.5,5.1-2.1,7.6-3.8c1.8-1.5,2.6,0.6,1.1,1.8c-2,1.1-4.3,2.8-7,3.5
				C376.7,232.6,375.5,230.5,377.2,230.3z"/>
			<path d="M340.4,217.7c16,0.8,29.9-3.8,42.3-12.4c1.9-1.4,2.7,0.7,0.9,2.3c-13.4,10.4-28,14.7-43.8,13
				C336.7,220.1,337.2,217.2,340.4,217.7z"/>
		</g>
		<g>
			<path class="st8" d="M393.4,158.4c33.9,37,31.5,89.7-1.8,125.4c-10.3-16.1-23.6-26.9-42.4-26.7l-18.7,0.1V293h-7.1V182.3
				c-1.5,0.8-3.1,1.4-4.9,1.9V293h-4V185.1c-1.6,0.3-3.2,0.4-4.9,0.4V293H306V185.4c-5-0.3-9.5-1.7-12.9-3.6V293h-6.2v-32.4
				l-25.4,0.1c-5.3-0.2-10.6,1.4-16,3v-16.5c-25.8,2.5-35.6,3.1-39,25.3c-21.5-36.8-15.7-54.5-4.3-70.1s41.9-16.8,70.4-16.6h14.3
				v-9.1c0-0.3-0.1-0.6-0.1-0.9c0-3.3,2.2-6.2,5.9-8.5c-1.1-2.1-1.8-4.5-1.8-7c0-8.8,8-16.1,17.8-16.1s17.8,7.2,17.8,16.1
				c0,2.5-0.6,4.9-1.8,7c3.6,2.2,5.9,5.2,5.9,8.4l0,0v3.5h0.1v4.8C364.2,183.7,380.9,176.3,393.4,158.4z"/>
			<path class="st8" d="M296.9,174.8c7.2,2.3,14.3,2.1,21.1-1.8c3.5-2.5,5.9,2,2.7,4c-7,3.8-17.2,4.5-24.6,2.5
				C293.3,178.5,294.6,173.9,296.9,174.8z"/>
			<path class="st8" d="M308.7,149.4c6.6,0,12.1,4.9,12.1,10.9c0,2.4-0.9,4.7-2.4,6.5c-1.3-11.5-7.6-11-11.5-11.1
				c2.5,0.5,7.9,5.3,5.4,15c-1.1,0.3-2.3,0.5-3.6,0.5c-6.7,0-12.1-4.9-12.1-10.9C296.6,154.3,302,149.4,308.7,149.4z"/>
			<path class="st8" d="M377.2,230.3c2.9-0.5,5.1-2.1,7.6-3.8c1.8-1.5,2.6,0.6,1.1,1.8c-2,1.1-4.3,2.8-7,3.5
				C376.7,232.6,375.5,230.5,377.2,230.3z"/>
			<path class="st8" d="M360.3,224.7c8.6-0.7,16.6-2.4,23.1-7.4c2.5-2.3,4.6,0.8,1.6,3.2c-7.7,5.8-16.1,9.1-25.2,8.6
				C356.6,228.6,356,224.3,360.3,224.7z"/>
			<path class="st8" d="M340.4,217.7c16,0.8,29.9-3.8,42.3-12.4c1.9-1.4,2.7,0.7,0.9,2.3c-13.4,10.4-28,14.7-43.8,13
				C336.7,220.1,337.2,217.2,340.4,217.7z"/>
			<rect x="249.4" y="243.8" class="st8" width="4.9" height="7.9"/>
			<path class="st8" d="M286.9,204.4c-57.6-0.3-73.7-4.7-79.4,16.7c11.9-14.7,20-10.9,79.4-9.8v40.3l-27.8,0.1v-14.6
				c-29.7,2.7-52.5,5.9-53.7,20.4c-11.7-19-7.2-44.1,6.5-54.7c12.8-10,36.4-8.1,57.6-8.4h16.9L286.9,204.4z"/>
			<path class="st8" d="M330.7,199.6c25.6,1.2,42.7-6.2,55.6-15.2c2.2-2.3,4.2,0.4,1.8,2.3c-14.5,12.3-31.7,22.6-57.3,23.6v35.2
				l18.6-0.1c17.2,0.2,30.7,9.1,44.5,23.5c22-28.4,21.4-70.7,0.1-99.2c-16.9,18.1-40.5,21.5-63.2,21.8v8.1H330.7z"/>
		</g>
	</g>
	<polygon class="st4" points="104.3,423.7 106.4,424.5 108.6,425.1 110.6,425.6 112.7,425.8 114.7,425.9 116.6,425.9 118.5,425.7 
		120.4,425.3 122.2,424.8 123.9,424.2 125.7,423.4 127.3,422.6 128.9,421.6 130.5,420.5 132,419.3 133.4,418 134.8,416.7 136,415.3 
		137.2,413.8 138.4,412.2 139.4,410.6 140.4,408.9 141.3,407.2 142.1,405.4 142.8,403.7 144,399.6 145,395.7 145.7,392.1 
		146.1,388.6 146.3,385.4 146.3,382.3 146,379.4 145.6,376.6 145,373.9 144.3,371.4 143.4,369 142.4,366.7 141.3,364.4 140.1,362.3 
		138.8,360.1 137.4,358.1 136,356 134.6,354 133.2,352 131.8,350 130.4,348 129,346 127.7,344 126.5,341.9 125.4,339.7 124.3,337.5 
		123.5,335.2 122.8,332.7 122.3,330.2 122,327.5 121.9,325.1 121.7,325.1 119.1,326.3 116.4,327.3 113.7,328.2 111,328.9 
		108.3,329.5 105.7,330.1 103,330.5 100.3,330.9 97.7,331.2 95.1,331.5 92.4,331.8 89.9,332.1 87.3,332.4 84.8,332.7 82.4,333.1 
		80,333.5 77.6,334 75.3,334.6 73.1,335.2 70.9,336 68.8,336.9 66.8,338 64.8,339.1 62.9,340.5 61.1,342 59.4,343.7 57.7,345.6 
		56.1,347.8 54.6,350.2 53.2,352.9 51.9,355.9 51,358.4 50.2,360.9 49.5,363.4 49,365.9 48.6,368.3 48.4,370.7 48.2,373 48.2,375.3 
		48.3,377.5 48.6,379.7 48.9,381.9 49.3,383.9 49.9,385.9 50.5,387.9 51.3,389.7 52.1,391.5 53,393.1 54,394.7 55.1,396.2 
		56.3,397.6 57.5,398.9 58.8,400 60.2,401.1 61.6,402 63.1,402.9 64.7,403.5 66.3,404.1 67.9,404.5 69.6,404.8 71.4,404.9 
		73.2,404.9 77.2,404.5 76.5,408.1 76.3,409.2 76.1,410.2 75.9,411.2 75.7,412.3 75.5,413.3 75.4,414.4 75.2,415.4 75,416.5 
		74.8,417.5 74.7,418.5 74.5,419.6 74.3,420.6 74.2,421.7 74.1,422.1 74.8,422.3 75.8,422.6 76.9,422.9 78.1,423.3 79.3,423.7 
		80.6,424 81.8,424.4 82.9,424.8 83.7,425.1 83.7,424.5 83.8,423.4 84,422.4 84.1,421.4 84.2,420.5 84.4,419.5 84.5,418.6 
		84.7,417.8 84.8,416.9 85,416.1 85.2,415.3 85.4,414.6 85.6,413.8 86.6,409.8 90.9,414.3 93.2,416.5 95.5,418.4 97.7,420 
		99.9,421.5 102.1,422.7 	"/>
	<g id="XMLID_5_">
		<g>
			<path class="st5" d="M109.2,350.5c-10,22.2-19.6,45.1-27.3,70.2c-1.5-0.7-3-1.4-4.4-2.1C83,392.7,93.8,369.5,109.2,350.5z"/>
			<path class="st5" d="M111.4,341.2c-11.7,15.4-22.4,31.7-30.9,50c-7.8,0.3-13.1-3.6-16.7-8.7c7,2.2,12.9,1.8,17.8-1.5
				c-12.4-2-18.6-6.8-18.6-14.3c8.3,3.4,16.2,4.4,23.9,3c-9.5-3.4-16.3-9.4-16.4-17.6c6.6,3.4,13.9,6.7,22,6.6
				c-3.8-2-7.5-5.9-10.2-10.5c5.9,0.3,12.5,0.6,18.5,0.9c-2.5-2-5.2-3.4-7.7-5.4c0.3,0,0.5,0,0.8,0
				C100.3,343.8,105.9,342.6,111.4,341.2z"/>
			<path class="st5" d="M117.9,330.8c6.6,24.3,31.8,44.5,19.9,74.1c-11.6,22.8-30.1,22.4-46.1,4.4c0.1-6.6,0.8-7.6,2.3-2.9
				c14,14.7,28.8,16.3,39.3-4.3c13.1-30.1-19-41.3-17.5-67.1c-5.9,4.3-14,5.4-22.3,6.6c-9,1.4-18.4,3.1-25.6,9.6
				c-2.9,2.6-5.5,6-7.6,10.4c-7.4,17-1.8,31,15.8,35.1c3.3,0,1.9,4.9-0.7,4.6c-14.4-3-30-16.7-19.1-42.8
				C67.2,331.6,97.3,339.7,117.9,330.8z"/>
			<path class="st5" d="M114,343.9c5.5,19.4,27,32.8,17.2,56.4c-10.4,22.3-31.6,11-35.9,2.8c10.1,2.3,19.3,1.9,27.4-1.2
				c-9.9-1-18.5-3.9-24.4-10.6c15.3,1.8,23.1,0.6,27.5-1.8c-9.4-2.8-18.2-5.9-23.4-11.7c8.2-0.8,16-2.2,23.3-4.4
				c-7.8-2.1-13.8-5.1-18-8.8c4.7,0.7,9.2,1.2,12.5,0.2c-4.2-2-8-3.6-11-6.6C109.9,354,111.5,348.8,114,343.9z"/>
			<path d="M109.2,350.5c-15.3,19-26.1,42.2-31.8,68.2c1.5,0.7,2.9,1.4,4.4,2.1C89.6,395.6,99.2,372.7,109.2,350.5z M95.3,403.1
				c4.3,8.2,25.5,19.5,35.9-2.8c9.7-23.6-11.8-37-17.2-56.4c-2.4,4.9-4,10.1-4.7,14.2c3,3.1,6.8,4.7,11,6.6c-3.3,1-7.8,0.5-12.5-0.2
				c4.2,3.7,10.2,6.7,18,8.8c-7.3,2.2-15.2,3.6-23.3,4.4c5.2,5.8,14,8.9,23.4,11.7c-4.4,2.4-12.2,3.6-27.5,1.8
				c5.9,6.8,14.5,9.6,24.4,10.6C114.5,405,105.3,405.4,95.3,403.1z M115.8,334.9c-1.5,25.8,30.5,37.1,17.5,67.1
				c-10.5,20.7-25.3,19-39.3,4.3c-1.5-4.7-2.2-3.7-2.3,2.9c16,18.1,34.5,18.4,46.1-4.4c11.9-29.6-13.3-49.8-19.9-74.1
				c-20.6,8.9-50.6,0.8-61.6,27.7c-10.8,26.1,4.7,39.7,19.1,42.8c2.5,0.3,4-4.6,0.7-4.6c-17.6-4.2-23.2-18.1-15.8-35.1
				c2.1-4.4,4.7-7.8,7.6-10.4l2.6,1c0.1,8.3,7,14.2,16.4,17.6c-7.7,1.4-15.6,0.3-23.9-3c0,7.5,6.2,12.3,18.6,14.3
				c-4.9,3.3-10.8,3.7-17.8,1.5c3.6,5.1,8.9,9,16.7,8.7c8.5-18.3,19.2-34.6,30.9-50c-5.5,1.4-11.1,2.6-17.5,2.5l-0.3-2.2
				C101.9,340.3,109.9,339.2,115.8,334.9z M123.7,322.2c-2.8,29.4,36.1,35.9,20.6,82.4c-7.5,20.2-31.8,36.6-57,9.1
				c-1,3.8-1.8,8-2.2,14.4c0-0.4-13.1-4.3-13.1-4.3c0.8-5.7,1.8-11.3,2.9-16.9c-20.9,2.8-36-23.3-24.7-51.7
				C64.6,320.6,96.7,337,123.7,322.2z"/>
			<path d="M93.1,343.7c2.5,2,5.2,3.4,7.7,5.4c-5.9-0.3-12.5-0.6-18.5-0.9c2.7,4.6,6.3,8.5,10.2,10.5c-8.2,0.1-15.5-3.1-22-6.6
				l-2.6-1c7.3-6.5,16.6-8.2,25.6-9.6l0.3,2.2C93.6,343.7,93.3,343.7,93.1,343.7z"/>
		</g>
	</g>
	<polygon class="st4" points="114.2,499.4 116.4,499 118.4,498.3 120.4,497.6 122.2,496.7 123.8,495.6 125.4,494.5 126.8,493.3 
		128.1,491.9 129.4,490.5 130.5,489 131.4,487.4 132.3,485.7 133.1,484 133.8,482.2 134.4,480.3 134.9,478.5 135.2,476.5 
		135.5,474.6 135.7,472.6 135.8,470.6 135.8,468.6 135.7,466.6 135.5,464.7 135.2,462.7 134.9,460.9 133.7,456.6 132.4,452.7 
		131,449.2 129.5,446 127.9,443 126.2,440.4 124.4,438 122.6,435.8 120.7,433.9 118.8,432.1 116.8,430.5 114.7,429 112.6,427.7 
		110.5,426.5 108.3,425.4 106.1,424.3 103.8,423.3 101.6,422.4 99.4,421.5 97.2,420.5 95,419.6 92.8,418.6 90.6,417.5 88.5,416.4 
		86.4,415.1 84.4,413.7 82.5,412.2 80.6,410.5 78.8,408.6 77.2,406.5 75.8,404.4 75.7,404.5 74.2,407 72.5,409.3 70.8,411.6 
		69,413.7 67.2,415.7 65.3,417.6 63.3,419.5 61.4,421.3 59.4,423.1 57.4,424.8 55.5,426.5 53.5,428.1 51.6,429.8 49.7,431.5 
		47.9,433.1 46.2,434.8 44.5,436.6 43,438.3 41.5,440.1 40.1,442 38.9,444 37.8,446 36.8,448.1 36,450.3 35.4,452.6 34.9,455.1 
		34.6,457.7 34.4,460.4 34.5,463.3 34.8,466.4 35.3,469.7 35.9,472.4 36.6,475 37.4,477.6 38.3,480 39.3,482.3 40.3,484.5 
		41.5,486.6 42.7,488.6 44,490.5 45.3,492.2 46.8,493.9 48.2,495.4 49.7,496.9 51.3,498.2 52.9,499.4 54.5,500.4 56.1,501.4 
		57.8,502.2 59.5,502.9 61.2,503.4 62.9,503.8 64.6,504.1 66.2,504.3 67.9,504.3 69.6,504.2 71.2,503.9 72.8,503.5 74.3,503 
		75.9,502.3 77.4,501.4 78.8,500.4 81.9,497.9 83.3,501.3 83.7,502.3 84.1,503.4 84.5,504.4 84.9,505.4 85.3,506.4 85.7,507.4 
		86.1,508.4 86.5,509.4 86.9,510.4 87.3,511.4 87.7,512.4 88.2,513.4 88.6,514.4 88.8,514.7 89.4,514.5 90.4,514.2 91.5,513.9 
		92.7,513.6 93.9,513.2 95.1,512.9 96.2,512.5 97.3,512.2 98.2,512 97.9,511.5 97.4,510.5 96.9,509.6 96.5,508.6 96.1,507.7 
		95.8,506.9 95.4,506 95.1,505.2 94.8,504.4 94.5,503.6 94.2,502.8 93.9,502 93.7,501.3 92.3,497.2 98.3,498.7 101.3,499.3 
		104.2,499.7 106.9,499.9 109.5,499.9 111.9,499.8 	"/>
	<g id="XMLID_4_">
		<g>
			<path class="st5" d="M75.9,424.1c-1.3,19.8-1.3,39.8,1.6,60.3c-6.2,4.6-12.6,4.2-18.2,1.7c6.9-1.9,11.5-5.5,13.7-11.2
				c-11.1,5.1-18.7,4.4-22.8-2c8.5-1.6,15.6-5.2,21.1-10.6c-9.6,2.3-18.3,0.9-22.8-6.2c7.2-0.7,14.9-1.9,21.4-6.5
				c-4.2,0.4-9.2-0.9-13.9-3.5c5-3,10.5-6.4,15.5-9.4c-3.1-0.4-6.1,0-9.2-0.4c0.3-0.2,0.7-0.4,1-0.7
				C68.5,432.3,72.3,428.3,75.9,424.1z"/>
			<path class="st5" d="M94.3,509.3c-1.6,0.2-3.1,0.4-4.7,0.6c-9.3-25.6-12.9-51.6-10.6-76.6C82.8,458.2,87.2,483.2,94.3,509.3z"/>
			<path class="st5" d="M131.4,464.7c2.7,26.1-12.5,36.1-35.1,29.3c-2.2-3.7-3-5.5-2.3-5.5c0.4,0,1.3,0.6,2.6,1.8
				c19.2,4.9,32.2-1.8,29.7-25.5c-0.1-0.3-0.1-0.6-0.2-0.8c-5.8-32.3-37.5-24.6-49.9-47.6c-2.6,7.2-8.9,12.7-15.2,18.7
				c-6.1,5.8-12.2,12-14.8,20.7c-1.3,4.2-1.7,8.9-1,14.4c3,18.8,15.1,27.8,31.6,21.7c2.7-1.8,4.1,3.2,1.9,4.4
				c-13.4,5.4-33.3,2.1-38.4-26.4c-5.4-29.4,23.4-39,35.4-58.1C94,428.9,125.2,432.5,131.4,464.7z"/>
			<path class="st5" d="M123.6,464.3c3.4,25-19.9,27-27.8,22.3c9.5-3.6,16.7-9,21.8-16.2c-8.6,4.6-17.1,6.9-25.5,4.3
				c13.4-7,19.2-12.2,21.4-16.8c-9.1,2.8-18,4.9-25.3,2.8c6.2-5.2,11.8-10.8,16.6-16.7c-7.5,2.4-13.9,3.2-19.3,2.3
				c4.2-2,8.1-4.1,10.3-6.7c-4.5,0.6-8.4,1.3-12.5,0.3c-1.7-3.9-3.1-9.3-3.8-14.9C94.3,438.8,118.9,438.5,123.6,464.3z"/>
			<path d="M95.8,486.6c7.9,4.7,31.2,2.7,27.8-22.3l2.5-0.4c0.1,0.3,0.1,0.6,0.2,0.8c2.5,23.7-10.4,30.4-29.7,25.5
				c-1.3-1.2-2.2-1.8-2.6-1.8L95.8,486.6z"/>
			<path d="M94.3,509.3c-7.1-26.1-11.6-51.2-15.3-75.9c-2.3,24.9,1.3,50.9,10.6,76.6C91.2,509.8,92.8,509.5,94.3,509.3z M76.2,416.2
				c12.4,23,44.1,15.3,49.9,47.6l-2.5,0.4c-4.7-25.8-29.3-25.5-44.2-39.3c0.6,5.6,2.1,11,3.8,14.9c4.1,1,8,0.3,12.5-0.3
				c-2.2,2.6-6.1,4.7-10.3,6.7c5.4,0.9,11.9,0.1,19.3-2.3c-4.8,5.9-10.4,11.5-16.6,16.7c7.3,2.1,16.2,0,25.3-2.8
				c-2.3,4.5-8,9.8-21.4,16.8c8.4,2.6,17,0.3,25.5-4.3c-5,7.2-12.3,12.6-21.8,16.2l-1.8,1.8c-0.7,0,0,1.8,2.3,5.5
				c22.7,6.8,37.9-3.2,35.1-29.3c-6.2-32.2-37.4-35.7-55.8-53.1c-12,19-40.8,28.7-35.4,58.1c5.1,28.5,25.1,31.8,38.4,26.4
				c2.2-1.2,0.8-6.1-1.9-4.4c-16.5,6.1-28.6-2.9-31.6-21.7c-0.7-5.5-0.3-10.3,1-14.4l2.3,0.7c4.6,7.1,13.3,8.5,22.8,6.2
				c-5.5,5.4-12.6,8.9-21.1,10.6c4,6.5,11.6,7.1,22.8,2c-2.3,5.6-6.8,9.2-13.7,11.2c5.7,2.5,12.1,2.9,18.2-1.7
				c-2.9-20.5-2.9-40.5-1.6-60.3c-3.6,4.1-7.4,8.2-12.5,11.6l-2.4-0.8C67.2,429,73.6,423.5,76.2,416.2z M136.6,460.8
				c4.6,21.6-6.4,49.3-41.5,39.4c1.3,3.9,2.8,8,5.9,13.7c-0.1-0.4-12.9,3.5-12.9,3.5c-2.5-5.4-4.6-10.8-6.7-16.2
				c-15.5,14-41.7-0.3-47.7-31.1c-6.9-38,27.9-41.6,42-69.3C89.2,427.8,124.3,411.9,136.6,460.8z"/>
			<path d="M62.3,436.4c3.1,0.4,6.1,0.1,9.2,0.4c-5,3-10.5,6.4-15.5,9.4c4.7,2.5,9.7,3.9,13.9,3.5c-6.6,4.6-14.3,5.8-21.4,6.5
				l-2.3-0.7c2.6-8.7,8.7-14.9,14.8-20.7l2.4,0.8C63,436,62.7,436.2,62.3,436.4z"/>
		</g>
	</g>
	<polygon class="st4" points="144.1,569.9 146.3,568.4 148.4,566.9 150.2,565.3 151.9,563.6 153.5,561.9 154.9,560.1 156.1,558.2 
		157.2,556.3 158.1,554.3 158.9,552.3 159.6,550.3 160.1,548.3 160.5,546.2 160.8,544.1 160.9,542 161,539.9 160.9,537.8 
		160.7,535.8 160.4,533.7 159.9,531.7 159.4,529.7 158.8,527.8 158.1,525.9 157.3,524 156.4,522.3 154.1,518.6 151.7,515.3 
		149.2,512.4 146.8,509.8 144.3,507.6 141.8,505.7 139.3,504 136.8,502.7 134.2,501.5 131.7,500.6 129.1,499.9 126.5,499.4 
		123.9,499 121.2,498.7 118.6,498.5 115.9,498.4 113.3,498.4 110.6,498.5 108,498.5 105.3,498.5 102.7,498.5 100.1,498.5 
		97.5,498.4 94.9,498.2 92.4,497.8 89.8,497.3 87.3,496.6 84.9,495.8 82.5,494.6 80.1,493.2 78.1,491.8 78,491.9 77,495.1 
		75.8,498.1 74.6,501.1 73.2,504 71.7,506.9 70.1,509.6 68.5,512.3 66.9,515 65.2,517.6 63.5,520.2 61.8,522.7 60.1,525.2 
		58.5,527.7 56.9,530.2 55.4,532.7 54,535.1 52.6,537.6 51.4,540 50.3,542.5 49.3,544.9 48.5,547.4 47.8,549.9 47.3,552.4 47,555 
		46.9,557.6 47,560.3 47.3,563 47.8,565.8 48.7,568.7 49.8,571.7 51.2,574.7 52.5,577.2 53.9,579.5 55.4,581.6 57,583.6 58.7,585.5 
		60.4,587.2 62.2,588.8 64,590.3 65.9,591.6 67.8,592.8 69.8,593.8 71.8,594.7 73.8,595.5 75.8,596.1 77.8,596.6 79.8,597 
		81.8,597.2 83.8,597.3 85.8,597.2 87.8,597 89.7,596.7 91.6,596.3 93.5,595.7 95.3,595 97,594.1 98.7,593.2 100.4,592 101.9,590.8 
		103.4,589.4 104.8,588 106.1,586.3 108.8,582.4 111.1,585.3 111.8,586.1 112.5,587 113.2,587.8 113.9,588.6 114.6,589.5 
		115.3,590.3 116,591.1 116.7,591.9 117.4,592.7 118.1,593.5 118.8,594.4 119.5,595.2 120.3,596 120.5,596.3 121.2,595.8 
		122.2,595.1 123.3,594.3 124.4,593.4 125.6,592.5 126.8,591.7 128,590.8 129.1,590 130,589.5 129.6,589 128.8,588.3 128,587.5 
		127.3,586.8 126.7,586.1 126,585.3 125.4,584.7 124.9,584 124.3,583.3 123.8,582.6 123.3,582 122.8,581.3 122.3,580.7 119.9,577.2 
		126.7,576.1 130.1,575.4 133.3,574.5 136.3,573.5 139.1,572.4 141.7,571.2 	"/>
	<g id="XMLID_3_">
		<g>
			<path class="st5" d="M125.2,588.4c-1.6,0.9-3.3,1.8-4.9,2.7c-16.7-21.5-27.3-45.9-31.1-71.8C99.5,542.4,110.7,565.5,125.2,588.4z
				"/>
			<path class="st5" d="M100.5,571c-5.5,7.3-12.5,9.7-19.3,9.7c6.9-5,11-10.5,12-17.1c-10.7,10-19.1,12.6-25.1,7.9
				c8.8-5.4,15.5-12,20.1-19.8c-9.7,6.5-19.5,8.9-26.2,3.8c7.6-3.8,15.6-8.4,21.5-15.8c-4.4,2.3-10.2,3.1-15.9,2.6
				c4.6-5.2,9.7-11,14.3-16.2c-3.5,1-6.6,2.6-10,3.6c5.2-6,8.4-12.1,11.5-18.2C87,531.8,92.2,551.8,100.5,571z"/>
			<path class="st5" d="M153.7,527.7c9.7,24.9-4.2,41.5-30.4,44.6c-4.5-3.6-5.3-5.1-2.3-4.4c0.5,0.1,1.1,0.3,1.7,0.5
				c22.1-3.5,34.3-15.9,25.5-38.4c-9.2-19.8-25.9-17.8-41.9-18.5c-9-0.4-17.7-1.6-24.7-8c-1,8.5-6.5,16.9-11.9,25.7
				c-4.9,8.1-9.6,16.7-10.4,26.1c-0.4,4.9,0.3,10,2.6,15.4c8.1,17.4,23.4,21.1,39.7,7.8c2.4-2.9,5.3,1.4,3.2,3.5
				c-13,11.2-35.4,16.7-48.3-9.6c-13.4-27,15.2-49.2,23.3-73.4C104.1,508.3,138.8,498.2,153.7,527.7z"/>
			<path class="st5" d="M145.1,530.7c10.1,23.3-14,35.4-23.9,34.4c-0.1,0-0.2,0-0.3,0c9.3-7.7,15.7-16.3,19.3-25.7
				c-8.1,8.3-16.7,14.3-26.5,15.4c12.7-12.8,17.5-20.6,18.8-26.1c-9.1,6.8-18.2,12.8-26.6,13.8c5.3-7.9,10-15.9,13.6-23.9
				c-7.4,5.7-14.2,9.3-20.3,10.8c4-3.8,7.7-7.6,9.3-11.2c-4.7,2.6-8.7,5-13.4,5.8c-2.8-3.2-5.8-7.9-7.9-13.2
				c5.8,2.2,12.3,2.7,18.8,3C121.4,514.5,136.9,514,145.1,530.7z"/>
			<path d="M89.1,519.3c3.9,25.9,14.5,50.3,31.1,71.8c1.6-0.9,3.3-1.8,4.9-2.7C110.7,565.5,99.5,542.4,89.1,519.3z M87.3,510.8
				c2.1,5.3,5.1,10,7.9,13.2c4.7-0.8,8.7-3.2,13.4-5.8c-1.6,3.6-5.3,7.4-9.3,11.2c6.1-1.5,12.9-5.1,20.3-10.8
				c-3.7,8-8.3,16-13.6,23.9c8.4-1,17.5-7.1,26.6-13.8c-1.3,5.5-6.1,13.3-18.8,26.1c9.8-1.1,18.4-7.1,26.5-15.4
				c-3.6,9.4-10,18-19.3,25.7c0.1,0,0.2,0,0.3,0l-0.3,2.7c-3-0.7-2.2,0.8,2.3,4.4c26.2-3.1,40.1-19.7,30.4-44.6
				c-14.9-29.5-49.6-19.3-73.9-28.7c-8,24.3-36.7,46.5-23.3,73.4c12.9,26.2,35.3,20.8,48.3,9.6c2.1-2.1-0.7-6.5-3.2-3.5
				c-16.3,13.3-31.6,9.6-39.7-7.8c-2.3-5.4-3-10.5-2.6-15.4l2.6,0.2c6.8,5.1,16.5,2.7,26.2-3.8c-4.6,7.8-11.3,14.4-20.1,19.8
				c6,4.7,14.4,2,25.1-7.9c-1,6.6-5,12.2-12,17.1c6.7,0,13.8-2.4,19.3-9.7c-8.4-19.2-13.5-39.2-17.2-59.5c-3,6.1-6.3,12.2-11.5,18.2
				l-2.1-0.5c5.3-8.9,10.9-17.2,11.9-25.7c7,6.4,15.7,7.6,24.7,8l-0.1,2.4C99.6,513.5,93.2,513,87.3,510.8z M158.3,521.5
				c10.6,19.6,5.8,52-34.7,57.5c2.4,3.3,5,6.7,9.9,11c-0.2-0.4-13.1,9.2-13,9.2c-4-4.3-7.7-8.8-11.4-13.2
				C96,606.8,64,603.9,49.6,575.8c-17.2-34.9,19.5-53.7,27.6-87.6C98.6,509.4,132.5,478.1,158.3,521.5z"/>
			<path d="M106.2,511.4c16,0.7,32.7-1.3,41.9,18.5c8.8,22.6-3.4,35-25.5,38.4c-0.7-0.2-1.2-0.4-1.7-0.5l0.3-2.7
				c9.9,1,34-11.2,23.9-34.4c-8.2-16.7-23.7-16.2-39-16.9L106.2,511.4z"/>
			<path d="M83.4,539.6c-5.9,7.5-13.9,12-21.5,15.8l-2.6-0.2c0.7-9.4,5.4-18,10.4-26.1l2.1,0.5c3.4-1,6.6-2.6,10-3.6
				c-4.6,5.2-9.7,11-14.3,16.2C73.2,542.7,79,541.9,83.4,539.6z"/>
		</g>
	</g>
	<polygon class="st4" points="202.2,616.4 203.3,614.4 204.2,612.4 204.9,610.5 205.4,608.5 205.8,606.6 206,604.7 206,602.9 
		205.9,601 205.7,599.3 205.3,597.5 204.8,595.8 204.1,594.1 203.4,592.4 202.5,590.8 201.5,589.3 200.5,587.8 199.3,586.3 
		198.1,584.9 196.7,583.6 195.3,582.3 193.9,581.2 192.3,580 190.7,579 189.1,578.1 187.5,577.2 183.7,577.2 180,575.8 176.4,574.8 
		173.1,574 169.9,573.5 166.8,573.2 163.9,573.2 161,573.3 158.3,573.6 155.7,574 153.2,574.7 150.6,573.8 148.3,574.7 145.9,575.6 
		143.6,576.7 141.4,577.7 139.2,578.9 137,580 134.8,581.2 132.7,582.4 130.5,583.5 128.3,584.6 126.1,585.7 123.8,586.6 
		121.5,587.5 119.2,588.2 116.8,588.8 114.3,589.3 111.7,589.5 109,589.5 106.5,589.4 106.6,589.5 107.4,592.2 108,594.9 
		108.5,597.5 108.9,600.2 109.1,602.9 109.3,605.5 109.4,608.1 109.4,610.7 109.4,613.3 109.3,615.9 109.3,618.4 109.2,620.9 
		109.1,623.4 109.1,625.9 109.1,628.3 109.2,630.6 109.4,633 109.7,635.2 110,637.5 110.5,639.6 111.1,641.8 111.9,643.8 
		112.8,645.8 113.9,647.8 115.1,649.7 116.6,651.5 118.3,653.3 120.2,655.1 122.4,656.8 124.9,658.4 127.7,660 130,661.2 
		132.4,662.2 134.8,663.1 137.2,663.8 139.6,664.4 141.9,664.9 144.2,665.3 146.5,665.5 148.7,665.6 150.9,665.7 153.1,665.5 
		155.2,665.3 157.3,665 159.3,664.6 161.2,664 163.1,663.4 164.9,662.7 166.6,661.9 168.2,661 169.7,660 171.2,659 172.5,657.8 
		173.7,656.6 174.9,655.3 175.9,654 176.8,652.5 177.5,651 178.2,649.5 178.7,647.9 179.1,646.2 179.3,644.5 179.5,640.6 
		182.9,641.6 183.9,641.9 184.9,642.2 185.9,642.5 187,642.8 188,643.1 189,643.3 190,643.6 191,643.9 192,644.2 193,644.5 
		194.1,644.7 195.1,645 196.1,645.2 196.5,645.3 196.8,644.7 197.2,643.8 197.7,642.7 198.2,641.6 198.8,640.5 199.3,639.3 
		199.8,638.2 200.4,637.2 200.7,636.4 200.2,636.3 199.1,636.1 198.1,635.9 197.1,635.7 196.2,635.4 195.3,635.2 194.5,635 
		193.6,634.7 192.8,634.5 192,634.2 191.3,634 190.5,633.7 189.8,633.5 186,632.1 191.1,628.3 193.5,626.3 195.7,624.3 197.6,622.3 
		199.4,620.4 200.9,618.4 	"/>
	<g id="XMLID_2_">
		<g>
			<path class="st5" d="M193.6,641.8c-25.1-8.1-46.7-20.9-63.5-37.6c20.7,11.9,42.1,23.5,66.1,33.5
				C195.3,639.1,194.4,640.5,193.6,641.8z"/>
			<path class="st5" d="M166.6,636c-0.7,7.5-5.3,12.3-10.9,15.2c3.1-6.5,3.6-12.3,0.9-17.4c-3.7,11.7-9.2,17.2-16.7,16.5
				c4.5-7.6,6.6-15.2,6.3-22.8c-4.7,8.8-11.5,14.8-19.8,14c4.3-6,8.6-12.7,9.5-20.6c-2.5,3.5-6.9,6.6-11.8,8.7
				c1.1-5.7,2.3-12,3.4-17.7c-2.3,2.2-4.1,4.7-6.4,6.9c1.1-6.5,0.7-12.2,0-17.9C134.9,614,149.6,626,166.6,636z"/>
			<path class="st5" d="M183.6,624.6c16.5-12,20.1-26.1,1-38.4c-19.3-10.8-32.6-0.1-47.3,6.3c-6.7,2.9-13.7,5-21.7,3.7
				c3.6,6.3,3.4,14.5,3.6,22.9c0.2,8,0.7,16.2,5,23.3c2.3,3.7,5.5,7.2,10.4,10.1c15.9,8.9,30.5,4.9,37-11.6c0.5-3.2,5.1-1.3,4.5,1.1
				c-4.9,13.6-20.6,27.2-45.1,14.1c-25.3-13.4-13.2-41.6-19.2-62.3c25.1-3.9,48.5-26.1,76.3-11.6c21.1,13.5,18.3,31.3-1.9,44.9
				c-5.2-0.6-6.8-1.2-4.9-1.9C181.8,625,182.6,624.8,183.6,624.6z"/>
			<path class="st5" d="M182.5,588c20.7,12.3,6.6,31.6-2.1,35c3.7-9.5,4.5-18.4,2.6-26.6c-2.4,9.4-6.3,17.4-13.9,22.4
				c3.8-14.6,3.8-22.2,1.9-26.7c-4,8.7-8.4,16.9-14.8,21.3c0.3-8-0.1-15.6-1.2-22.9c-3.2,7.3-6.9,12.8-11.2,16.5
				c1.3-4.4,2.4-8.7,1.9-12c-2.5,3.9-4.6,7.3-8.1,9.9c-4-1.1-8.9-3.1-13.5-6c4.8-0.8,9.4-2.5,13.9-4.5
				C152.3,588.1,165.7,579.1,182.5,588z"/>
			<path d="M182.5,588c-16.8-9-30.2,0.1-44.4,6.4l-0.8-1.9c14.7-6.4,28.1-17,47.3-6.3c19.1,12.2,15.5,26.4-1,38.4
				c-1,0.2-1.8,0.4-2.3,0.6l-0.8-2.2C189.2,619.7,203.3,600.4,182.5,588z"/>
			<path d="M124.1,642.4c-4.3-7.1-4.8-15.4-5-23.3l2.1-0.1c2.3-2.2,4.1-4.7,6.4-6.9c-1.1,5.7-2.3,12-3.4,17.7
				c5-2.1,9.4-5.2,11.8-8.7c-1,7.9-5.2,14.6-9.5,20.6L124.1,642.4z"/>
			<path d="M130.1,604.2c16.8,16.7,38.4,29.5,63.5,37.6c0.9-1.3,1.8-2.7,2.7-4C172.2,627.7,150.8,616.1,130.1,604.2z M119.1,619.1
				c-0.2-8.4,0-16.5-3.6-22.9c8,1.3,15-0.8,21.7-3.7l0.8,1.9c-4.5,2-9.1,3.7-13.9,4.5c4.6,2.9,9.5,4.9,13.5,6c3.4-2.6,5.5-6,8.1-9.9
				c0.5,3.3-0.6,7.5-1.9,12c4.3-3.7,8-9.2,11.2-16.5c1.2,7.3,1.5,15,1.2,22.9c6.4-4.4,10.8-12.6,14.8-21.3
				c1.8,4.5,1.9,12.1-1.9,26.7c7.5-5,11.5-13,13.9-22.4c2,8.3,1.1,17.1-2.6,26.6l0.8,2.2c-1.9,0.7-0.3,1.3,4.9,1.9
				c20.1-13.6,22.9-31.4,1.9-44.9c-27.8-14.5-51.3,7.7-76.3,11.6c6,20.7-6.1,48.9,19.2,62.3c24.4,13.1,40.1-0.5,45.1-14.1
				c0.6-2.4-4-4.3-4.5-1.1c-6.5,16.5-21.2,20.5-37,11.6c-4.8-2.9-8.1-6.3-10.4-10.1l2.4-0.8c8.3,0.7,15.1-5.3,19.8-14
				c0.3,7.5-1.8,15.1-6.3,22.8c7.5,0.7,13-4.8,16.7-16.5c2.6,5.1,2.2,10.8-0.9,17.4c5.6-2.9,10.2-7.7,10.9-15.2
				c-17-10-31.8-22-45.5-34.9c0.7,5.7,1.1,11.4,0,17.9H119.1z M204,635.3c-0.4,0-6,12.2-6,12.2c-5.6-1.3-11-2.9-16.4-4.5
				c-0.1,20.5-28.1,32.3-54.7,18.5c-32.6-17.4-12-46.6-23-74.2c9.8-3.5,16.3-13.6,30.9-13.3c11.8,0.3,28.4-4.9,53.8,1.8
				c19,9.3,32,34.4,1.4,55.9C193.7,633,197.7,634.3,204,635.3z"/>
		</g>
	</g>
	<polygon class="st4" points="258.9,705 257.4,706.9 255.9,708.5 254.3,710 252.6,711.4 250.9,712.6 249.1,713.7 247.2,714.6 
		245.4,715.3 243.4,716 241.4,716.5 239.5,716.9 237.4,717.1 235.4,717.3 233.4,717.3 231.3,717.3 229.3,717.1 227.3,716.8 
		225.3,716.4 223.3,715.9 221.3,715.4 219.4,714.7 217.5,714 215.7,713.2 213.9,712.3 212.3,711.3 208.8,708.9 205.6,706.4 
		202.8,704 200.3,701.6 198.2,699.2 196.4,696.8 194.9,694.4 193.6,692 192.6,689.6 191.8,687.3 191.1,684.9 190.6,682.5 
		190.3,680.2 190.1,677.8 190,675.5 190,673.1 190.1,670.7 190.1,668.4 190.2,666 190.3,663.7 190.4,661.4 186.9,657.8 186.9,655.5 
		186.7,653.2 186.5,650.8 186,648.6 185.4,646.3 184.6,644 183.6,641.8 182.3,639.5 180.9,637.6 181.1,637.5 184.1,637 187.1,636.2 
		190.1,635.4 192.9,634.4 195.7,633.4 198.5,632.3 201.1,631.1 203.8,629.9 209.9,630 212.4,628.7 214.9,627.5 217.4,626.2 
		219.9,625 222.3,623.9 224.8,622.8 227.2,621.7 229.6,620.8 232,619.9 234.4,619.2 236.9,618.5 239.3,618 241.7,617.7 244.2,617.5 
		246.7,617.5 249.2,617.6 251.8,618 254.5,618.5 257.2,619.3 260,620.3 262.9,621.6 265.8,623.1 268.1,624.5 270.4,626 272.4,627.6 
		274.3,629.2 276.1,630.8 277.8,632.5 279.3,634.3 280.7,636 281.9,637.8 283,639.7 284,641.5 284.8,643.3 285.5,645.2 286,647 
		286.5,648.9 286.8,650.7 286.9,652.5 287,654.3 286.9,656.1 286.6,657.8 286.3,659.5 285.8,661.1 285.2,662.7 284.5,664.2 
		283.6,665.7 282.6,667.1 281.5,668.4 280.3,669.7 278.9,670.9 277.4,672 275.8,673 271.9,675 274.7,677.3 275.5,678 276.3,678.7 
		277,679.4 285.7,685.6 286.5,686.3 287.3,687 288.1,687.7 288.9,688.4 289.6,689.1 290.4,689.8 291.2,690.5 292,691.3 292.7,692 
		293,692.3 292.5,692.8 291.8,693.6 291,694.5 290.1,695.4 289.3,696.4 288.4,697.4 287.5,698.4 286.7,699.3 286.2,700 285.8,699.5 
		285,698.8 284.3,698.1 283.6,697.4 282.9,696.7 282.3,696.1 281.6,695.5 273,689.4 272.4,688.8 271.8,688.3 271.1,687.8 
		270.5,687.3 269.9,686.8 266.6,684.3 265.4,690.3 264.6,693.2 263.7,695.9 262.6,698.5 261.5,700.8 260.2,703 	"/>
	<g id="XMLID_1_">
		<g>
			<path class="st5" d="M200.2,663.1c1.6,15.1-0.1,31,19.6,41.5c21.8,10,34.1,0.4,38-18.8c-0.3-0.9-0.5-1.6-0.5-2.1
				c-0.3-2,1.2-1,4.3,3c-3.7,23-20.2,33.6-44.1,22.6c-28.3-16.1-21.1-47.1-29.6-69.7c1.2-0.2,2.3-0.5,3.5-0.8l0.8,2.8
				C197.8,648.2,199.4,655.5,200.2,663.1z"/>
			<path class="st5" d="M263.5,627.6c25.2,14,19.4,33.3,8.2,43.8c-2.1,1.6-6.3-1.3-3.4-3.2c13.4-13.1,10.1-27.1-6.7-36
				c-26.3-12.8-49.5,9.5-69.4,9.6l-0.8-2.8C214.3,633,238.8,613.8,263.5,627.6z"/>
			<path class="st5" d="M288,691.5c-0.9,1.4-1.8,2.7-2.8,4.1c-22-15-52.1-32.8-74.3-44.3C236.1,657.3,267.5,674.6,288,691.5z"/>
			<path class="st5" d="M254.8,684c1,8.8-11.4,29.4-34.1,18.1c-16.8-9.3-16.9-24.6-18.5-39.2c-0.6-5.3-1.3-10.5-3-15.3
				c5.1,2.4,13.1,6.8,16.2,9.6c-0.9,4.1-3.3,7.4-5.9,11.3c3.5-1.1,7.3-4,11.1-7.2c-1.6,5.3-5.3,10.9-11,16.9
				c7.9-2.5,15.8-5.8,23.6-9.8c-1.2,7.4-7.3,14.8-14.1,22.2c5.4-0.6,13.1-4.1,25.9-14.1c-1.3,8.6-7.4,15.6-15.7,22
				C238.6,696.4,247.1,691.5,254.8,684z"/>
			<path class="st5" d="M270.9,650.4c-0.2,6-2.7,12-9.9,16.1c-18.5-9.3-41.4-17.1-61.1-22.4c6-2.1,15.5-3.1,21.5-7.1
				c-1,3-2.7,5.6-3.7,8.5c5.1-3.6,10.9-7.5,16.1-11.1c0.3,5.1-0.6,10.2-2.9,13.8c7.4-4.5,12.1-11.2,15.9-17.5
				c4.8,6.5,2.2,14.9-4.3,22.9c7.7-3.3,14.3-8.6,19.7-15.9c4.4,5.8,1.7,13-8.3,21.5C260.4,659.1,265.9,656.1,270.9,650.4z"/>
			<path d="M268.3,687.8c-6.4,35.3-38,36.4-56.8,25.1c-41.6-27.2-13.9-55.5-33.9-76.5c33.1-3.8,55.8-33.3,89.4-14.6
				c27,15.5,29,44.1,8.5,53.8c4.3,3.7,16.4,12.9,20.5,16.9c0,0-9.3,10.1-9.3,10.7C282.5,698.4,271.4,690.2,268.3,687.8z
				 M246.8,630.8c-3.9,6.3-8.5,13-15.9,17.5c2.3-3.7,3.3-8.8,2.9-13.8c-5.2,3.6-11,7.5-16.1,11.1c1-3,2.7-5.6,3.7-8.5
				c-6,4-15.5,5-21.5,7.1c19.7,5.3,42.6,13.1,61.1,22.4c7.2-4.1,9.7-10.2,9.9-16.1c-5,5.7-10.5,8.7-17,8.9
				c9.9-8.5,12.7-15.7,8.3-21.5c-5.4,7.3-12,12.6-19.7,15.9C249,645.7,251.6,637.2,246.8,630.8z M261.7,686.8c-3.2-4-4.6-5.1-4.3-3
				l-2.6,0.3c-7.7,7.5-16.2,12.4-25.5,14.6c8.3-6.4,14.4-13.4,15.7-22c-12.8,10-20.5,13.5-25.9,14.1c6.8-7.4,12.9-14.9,14.1-22.2
				c-7.9,4-15.7,7.3-23.6,9.8c5.7-6,9.4-11.7,11-16.9c-3.8,3.2-7.6,6.1-11.1,7.2c2.6-3.9,5-7.2,5.9-11.3c-3.1-2.8-11-7.2-16.2-9.6
				c1.8,4.8,2.5,10,3,15.3l-2,0.2c-0.8-7.6-2.4-15-8-21.4c19.9,0,43.2-22.4,69.4-9.6c16.8,8.9,20,22.9,6.7,36
				c-2.9,1.9,1.2,4.8,3.4,3.2c11.2-10.5,17.1-29.8-8.2-43.8c-24.7-13.8-49.2,5.4-72,11.3c-1.2,0.3-2.3,0.6-3.5,0.8
				c8.5,22.5,1.3,53.5,29.6,69.7C241.5,720.4,258,709.8,261.7,686.8z M211,651.3c22.3,11.5,52.3,29.2,74.3,44.3
				c0.9-1.4,1.8-2.7,2.8-4.1C267.5,674.6,236.1,657.3,211,651.3z"/>
			<path d="M257.4,683.8c0.1,0.5,0.3,1.2,0.5,2.1c-3.9,19.2-16.3,28.9-38,18.8c-19.7-10.5-18.1-26.5-19.6-41.5l2-0.2
				c1.5,14.6,1.7,29.9,18.5,39.2c22.6,11.3,35.1-9.4,34.1-18.1L257.4,683.8z"/>
		</g>
	</g>
	<path class="st4" d="M126.5,230.6l-2.5,0.5l-2.5,0.6l-2.4,0.8l-2.3,0.9l-2.2,1l-2.2,1.1l-2.1,1.3l-1.9,1.4l-1.8,1.5l-1.7,1.6
		l-1.5,1.7l-1.4,2l-1.2,1.9l-1,2.1l-0.8,2.2l-0.6,2.3l-0.4,2.4l-0.2,2.5v2.6l0.6,5.9l-7.7-2.5l-4.3-1.1l-4.2-0.8l-4-0.4l-3.9-0.1
		l-3.7,0.2l-3.5,0.5l-3.3,0.7l-3.2,1l-3,1.2l-2.8,1.4l-2.6,1.6l-2.4,1.8l-2.2,2l-1.9,2.1l-1.7,2.3l-1.5,2.4l-1.2,2.5l-1,2.6
		l-0.7,2.7l-0.5,2.8l-0.2,2.9l0.1,2.9l0.3,2.9l0.6,3l0.9,3l1.2,3l1.5,2.9l1.9,2.9l0.2,0.3l-0.2-1l-0.2-1.9l-0.1-1.9v-1.9l0.2-1.8
		l0.3-1.8l0.4-1.7l0.5-1.7l0.7-1.6l0.8-1.5l0.9-1.4l1-1.3l1.1-1.2l1.3-1.1l1.4-1l1.5-0.8l1.6-0.7l1.7-0.5l1.8-0.3l1.8-0.2H64
		l1.9,0.2l2,0.4l2,0.6l2.1,0.8l2.1,1l2.2,1.3l117.9,86l15-27.2l27.1-57l-80.7-59.1l-2.1-1.2l-2.2-1l-2.3-0.9l-2.4-0.8l-2.4-0.6
		l-2.5-0.5l-2.5-0.3l-2.6-0.2H134l-2.6,0.1l-2.6,0.2L126.5,230.6L126.5,230.6z M166.3,276.5l30.8,21l-1.5,44.9L141.9,302
		L166.3,276.5L166.3,276.5z M153.5,267.4l-24.3,24.9l-24.1-18c1.4-20.1,13.1-26.7,26.4-22.7l0.7,0.5L153.5,267.4L153.5,267.4z"/>
	<g id="XMLID_11_">
		<g>
			<polygon class="st2" points="226.3,313.6 224.7,316.8 192.3,294.2 169.9,277.9 172.2,275 			"/>
			<path class="st2" d="M230.4,307l-3.2,4.9L173.7,273c1.3-2.3,0.8-4.6,0-7L230.4,307z"/>
			<path class="st2" d="M235.5,296.4l-2.7,5.6l-81.2-58.2c-11-7.6-22.1-8.9-36.6-2.7c-6,2.8-10.9,7.1-13.6,12.8
				c1.4-7.6,5.9-13.6,13.4-17.2c11.2-5.5,28.8-5.3,39.3,1.3L235.5,296.4z"/>
			<path class="st2" d="M133.7,250.9c-3.4-2.9-14-4.6-21.6,1.4c-4.8,3.8-8.1,10.5-9,17.8c-7-12.3,2.8-23,15.5-27.2
				c9.2-3.1,19.9-2.5,26.7,2.6l18.1,13.4c-2.4-0.5-4.9-0.1-6.4,1l-12.3-9.1c-4.8-3.1-7.2-3.2-11.3-3.1c4.9,1.3,7.2,2.6,9.9,4.6
				l12.2,9.1l-2.9,2.9L133.7,250.9z"/>
			<path class="st2" d="M207,353.7l-2.7,4.1L96.7,278.7c-11.8-9.7-35.6-13.1-49.6,1.4c-0.8,0.9-1.6,1.9-2.3,3
				c1.3-3.3,3.1-6.4,5.4-8.9c14.1-14.5,37.8-11.1,49.6-1.4L207,353.7z"/>
			<path class="st2" d="M159.3,265.1c3.6-3.9,12.9,1.7,7.9,7.1L141,298.8l-8.6-6.4L159.3,265.1z"/>
			<path class="st2" d="M202.4,362.1l-6.8,14.5l-116.9-86c-13.7-10.8-33.4-5.2-34.8,13.5c-3.8-11.2,1.1-20,7.6-24.8
				c13.7-9.6,29.7-5.7,40.3,1.7L202.4,362.1z M197.3,369.3L89.5,289.1c-4.2-2.9-10.6-5.3-16.2-5.9c5.7,2.1,10.8,5.1,14.8,7.9
				L195.3,371L197.3,369.3z"/>
			<path d="M88.1,291.1c-4-2.7-9-5.8-14.8-7.9c5.6,0.6,12,3,16.2,5.9l107.7,80.1l-2,1.8L88.1,291.1z"/>
			<path d="M192,298.1l-24.3-18.4l-22.4,22.8c22.9,16.7,0,0,29.5,21.3C191.4,298.5,178.1,320.6,192,298.1z M226.3,313.6l-54-38.6
				l-2.4,2.9l22.4,16.3l32.4,22.6L226.3,313.6z M227.3,311.9l3.2-4.9l-56.7-41c0.8,2.4,1.3,4.8,0,7L227.3,311.9z M238.1,292.5
				l-41.7,90.1L75.2,294.2c-21.7-13.8-35,10-23.5,28.8c-34-29.8-5.9-77.1,44.2-59.1c-4.3-31.5,37.4-44.6,61.1-30.3L238.1,292.5z
				 M51.5,279.3c-6.5,4.8-11.5,13.6-7.6,24.8c1.4-18.7,21.1-24.3,34.8-13.5l116.9,86l6.8-14.5L91.8,281
				C81.2,273.6,65.2,269.7,51.5,279.3z M207,353.7L99.7,272.9c-11.8-9.7-35.5-13.1-49.6,1.4c-2.2,2.5-4,5.5-5.4,8.9
				c0.7-1.1,1.5-2.1,2.3-3c14.1-14.5,37.8-11.1,49.6-1.4l107.6,79.1L207,353.7z M118.6,243c-12.6,4.2-22.5,14.9-15.5,27.2
				c0.8-7.4,4.2-14.1,9-17.8c7.7-6,18.2-4.3,21.6-1.4l18.8,13.5l2.9-2.9l-12.2-9.1c-2.7-1.9-5-3.3-9.9-4.6c4.2-0.1,6.5,0,11.3,3.1
				l12.4,9c1.5-1.1,4.1-1.4,6.4-1l-18.1-13.4C138.5,240.5,127.8,239.9,118.6,243z M101.4,253.9c2.7-5.6,7.6-10,13.6-12.8
				c14.5-6.1,25.7-4.8,36.6,2.7l81.2,58.2l2.7-5.6L154.1,238c-10.5-6.6-28-6.8-39.3-1.3C107.4,240.3,102.8,246.3,101.4,253.9z
				 M167.2,272.2c5-5.4-4.3-11-7.9-7.1l-26.8,27.3l8.6,6.4L167.2,272.2z M128.6,289.7l21.7-22.1l-19.5-14
				c-14.3-3.8-23.7,7.2-23.2,20.7L128.6,289.7z"/>
		</g>
	</g>
	<path class="st9" d="M307.1,293l129.7,0.6v270.7c-0.5,18.7-9.5,29.1-25.6,29.9l-82.6-1.6c-8.3,0.7-15.1,3.1-21.5,12.2L307.1,293
		L307.1,293z M307.1,293l-129.7,0.6v270.7c0.5,18.7,9,28.5,25.1,29.3l83.2-1c8.2,0.6,14.2,4,21.5,12.2V293H307.1z"/>
	<path class="st10" d="M177.3,293.6h260.3v273.8c0,15.1-11.2,27.4-24.8,27.4H324c-9.4,1.6-17.4,8.8-14.6,19.4
		c-1.6-10.3-9.3-17.8-18.7-19.4h-88.5c-13.6,0-24.8-12.3-24.8-27.4L177.3,293.6L177.3,293.6z"/>
</g>
<path class="st11" d="M357.8,359.1c0,0-9.3-33.6-38.1-38.4c0-0.2,0-0.4,0-0.6c0-6.2-5.1-11.3-11.3-11.3c-6.2,0-11.3,5.1-11.3,11.3
	c0,0.2,0,0.4,0,0.6c-28.8,4.8-38.1,38.4-38.1,38.4c0,63.6-26.3,77.5-26.3,77.5v22.8h54.7c3.5,20.1,21,19.4,21,19.4s17.6,0.7,21-19.4
	H384v-22.8C384,436.6,357.8,422.7,357.8,359.1z"/>
<line class="st12" x1="231.8" y1="438.1" x2="384" y2="436.6"/>
<line class="st12" x1="288.4" y1="459.5" x2="332" y2="459.5"/>
</svg>
