<?xml version="1.0" encoding="utf-8"?>
<!-- Generator: Adobe Illustrator 24.0.0, SVG Export Plug-In . SVG Version: 6.00 Build 0)  -->
<svg version="1.1" xmlns="http://www.w3.org/2000/svg" xmlns:xlink="http://www.w3.org/1999/xlink" x="0px" y="0px"
	 viewBox="0 0 595.28 841.89" style="enable-background:new 0 0 595.28 841.89;" xml:space="preserve">
<style type="text/css">
	.st0{display:none;}
	.st1{fill-rule:evenodd;clip-rule:evenodd;fill:#FFFFFF;}
	.st2{fill-rule:evenodd;clip-rule:evenodd;}
	.st3{fill-rule:evenodd;clip-rule:evenodd;fill:#FFED00;}
	.st4{fill-rule:evenodd;clip-rule:evenodd;stroke:#000000;stroke-width:0.2154;stroke-miterlimit:2.4142;}
	
		.st5{fill-rule:evenodd;clip-rule:evenodd;fill:none;stroke:#000000;stroke-width:3.4016;stroke-linecap:round;stroke-linejoin:round;stroke-miterlimit:2.4142;}
</style>
<g id="Mřížka" class="st0">
</g>
<g id="Vrstva_1">
</g>
<g id="Pracovní_plocha">
</g>
<g id="Vodicí_linky">
</g>
<g id="malý_ČB_lev">
	<g id="Vrstva_1_1_">
		<g>
			<path class="st1" d="M150.08,582.83l-20.79-23.4l41.66-36.07l-25.17-26.67l-23.04,21.3l-19.35-21.22l44.34-37.82l0.04,0.05
				l37.86-32.21c12.02,6.63,13.82,5.23,63.81,67.92C169.29,566.1,230.15,511.06,150.08,582.83L150.08,582.83z M208.82,491.16
				l-25.17-26.67l-24.97,22.59L183.56,514L208.82,491.16L208.82,491.16z"/>
			<path class="st1" d="M461.08,584.83l21.2-23.4l-42.49-36.07l25.66-26.67l23.49,21.3l19.73-21.22l-45.22-37.82l-0.04,0.05
				l-38.61-32.21c-12.26,6.63-14.1,5.23-65.07,67.92C441.5,568.09,379.44,513.05,461.08,584.83L461.08,584.83z M401.18,493.15
				l25.66-26.67l25.47,22.59l-25.37,26.92L401.18,493.15L401.18,493.15z"/>
			<path class="st2" d="M179.44,512.7l-28.19-29.09c-3.69-4.09-12.78,2.1-7.65,7.73l27.51,28.35L179.44,512.7L179.44,512.7z
				 M143.49,572.91l-5.89-6.28c15.16-12.64,48.57-40.28,63.72-52.91l-0.01-0.01c15.07-12.57,28.4-23.73,40.07-33.55
				c-0.53-2.97-0.78-2.58-2.7-3.57c-23.87,19.45-71.34,58.54-104.54,86.23l-4.01-4.12l102.36-85.12
				c-15.78-18.85-15.52-26.12-41.3-39.97c-23.15,18.74-50.42,41.18-82.4,67.85l-4.88-5.15c32.97-27.48,61.09-51.09,84.02-70.47
				c0.46-2.22-0.3-2.76-2.15-3.23c-23.56,19.43-52.88,43.77-88.23,73.29l22.68,24.25l23.65-20.23l22.43,23.23l-42.09,34.99
				l24.32,26.82c35.53-29.55,83.21-69.21,106.72-89.07c-0.27-2.14-0.06-3.79-2.56-3.66c-23.35,19.15-70.3,57.9-104.13,86.11
				l-3.32-3.54c34.16-28.55,81.03-67.54,104.08-86.95c0.47-1.48-0.51-1.07-1.65-1.53C224.54,505.54,177.63,544.39,143.49,572.91
				L143.49,572.91z M199.46,454.04l21.77,22.56L199.46,454.04L199.46,454.04z M194.36,448.54l2.25,2.35L194.36,448.54L194.36,448.54
				z M217.42,479.94l-27.56-28.54c-3.69-4.09-12.78,2.1-7.65,7.73l26.88,27.81L217.42,479.94L217.42,479.94z M155.1,477.47
				l20.7-17.3c-1.33-2.41-0.99-4.95-0.24-7.52c-9.63,8.06-19.19,16.2-28.83,24.26C149.23,475.95,152.89,475.94,155.1,477.47
				L155.1,477.47z M157.27,479.62l20.04-17.36l2.06,2.43c-6.72,5.82-13.36,11.48-19.99,17.33L157.27,479.62L157.27,479.62z
				 M160.8,486.2l21.4-18.76l22.75,23.51l-21.99,18.43L160.8,486.2L160.8,486.2z M112.5,505.35l24.45-20.48
				c-0.75,2.57-1.09,5.1,0.24,7.52l-20.69,17.31L112.5,505.35L112.5,505.35z M118.65,511.83l20.04-17.36l2.06,2.43l-19.99,17.33
				L118.65,511.83L118.65,511.83z"/>
			<path class="st2" d="M430.79,514.69l28.19-29.09c3.69-4.09,12.78,2.1,7.65,7.73l-27.51,28.35L430.79,514.69L430.79,514.69z
				 M466.74,574.9l5.89-6.28c-15.16-12.64-48.57-40.28-63.72-52.91l0.01-0.01c-15.07-12.57-28.4-23.73-40.07-33.55
				c0.53-2.97,0.78-2.58,2.7-3.57c23.87,19.45,71.34,58.54,104.54,86.23l4.01-4.12l-102.36-85.12
				c15.78-18.85,15.52-26.12,41.3-39.97c23.15,18.74,50.42,41.18,82.4,67.85l4.88-5.15c-32.97-27.48-61.09-51.09-84.02-70.47
				c-0.46-2.22,0.3-2.76,2.15-3.23c23.56,19.43,52.88,43.77,88.23,73.29l-22.68,24.25l-23.65-20.23l-22.43,23.23l42.09,34.99
				l-24.32,26.82c-35.53-29.55-83.21-69.21-106.72-89.07c0.27-2.14,0.06-3.79,2.56-3.66c23.35,19.15,70.3,57.9,104.13,86.11
				l3.32-3.54c-34.16-28.55-81.03-67.54-104.08-86.95c-0.47-1.48,0.51-1.07,1.65-1.53C385.69,507.53,432.61,546.39,466.74,574.9
				L466.74,574.9z M410.77,456.04L389,478.6L410.77,456.04L410.77,456.04z M415.87,450.53l-2.25,2.35L415.87,450.53L415.87,450.53z
				 M392.81,481.94l27.56-28.54c3.69-4.09,12.78,2.1,7.65,7.73l-26.88,27.81L392.81,481.94L392.81,481.94z M455.13,479.47
				l-20.7-17.3c1.33-2.41,0.99-4.95,0.24-7.52c9.63,8.06,19.19,16.2,28.83,24.26C461,477.95,457.34,477.94,455.13,479.47
				L455.13,479.47z M452.97,481.61l-20.04-17.36l-2.06,2.43c6.72,5.82,13.36,11.48,19.99,17.33L452.97,481.61L452.97,481.61z
				 M449.43,488.19l-21.4-18.76l-22.75,23.51l21.99,18.43L449.43,488.19L449.43,488.19z M497.73,507.35l-24.45-20.48
				c0.75,2.57,1.09,5.1-0.24,7.52l20.69,17.31L497.73,507.35L497.73,507.35z M491.58,513.82l-20.04-17.36l-2.06,2.43l19.99,17.33
				L491.58,513.82L491.58,513.82z"/>
			<polygon class="st1" points="507.9,426.04 505.77,426.84 503.67,427.46 501.61,427.89 499.58,428.16 497.59,428.25 
				495.64,428.19 493.73,427.98 491.86,427.62 490.04,427.13 488.27,426.51 486.54,425.77 484.87,424.91 483.24,423.93 
				481.68,422.86 480.18,421.69 478.74,420.43 477.36,419.08 476.06,417.66 474.83,416.17 473.67,414.62 472.59,413.01 
				471.59,411.36 470.68,409.67 469.85,407.94 469.13,406.23 467.83,402.18 466.81,398.33 466.08,394.69 465.6,391.26 
				465.37,388.03 465.36,384.97 465.55,382.08 465.93,379.33 466.49,376.72 467.19,374.22 468.04,371.82 469.01,369.52 
				470.1,367.29 471.28,365.14 472.53,363.04 473.85,360.99 475.21,358.97 476.61,356.98 478.01,355.01 479.4,353.04 480.77,351.06 
				482.1,349.06 483.37,347.03 484.56,344.95 485.65,342.8 486.62,340.58 487.45,338.28 488.12,335.88 488.6,333.36 488.87,330.74 
				488.92,328.27 489.06,328.35 491.74,329.5 494.42,330.5 497.12,331.36 499.82,332.09 502.51,332.71 505.2,333.23 507.88,333.67 
				510.55,334.06 513.21,334.39 515.84,334.69 518.44,334.97 521.02,335.25 523.56,335.54 526.06,335.86 528.53,336.22 
				530.94,336.64 533.31,337.12 535.62,337.69 537.87,338.35 540.05,339.12 542.17,340.02 544.22,341.04 546.2,342.22 548.1,343.55 
				549.93,345.07 551.69,346.77 553.38,348.68 554.99,350.83 556.53,353.22 557.98,355.87 559.36,358.81 560.32,361.3 
				561.15,363.79 561.84,366.26 562.39,368.7 562.81,371.1 563.09,373.47 563.25,375.79 563.29,378.07 563.21,380.3 563.02,382.47 
				562.71,384.58 562.3,386.62 561.78,388.6 561.16,390.51 560.45,392.34 559.64,394.08 558.74,395.74 557.76,397.31 556.69,398.78 
				555.55,400.16 554.33,401.42 553.04,402.58 551.69,403.63 550.26,404.56 548.78,405.37 547.24,406.05 545.65,406.6 544,407.02 
				542.31,407.3 540.57,407.43 538.79,407.42 534.74,407.06 535.47,410.6 535.68,411.63 535.89,412.66 536.1,413.69 536.31,414.72 
				536.52,415.76 536.72,416.79 536.92,417.82 537.11,418.86 537.3,419.89 537.49,420.93 537.67,421.96 537.85,423 538.02,424.04 
				538.08,424.43 537.41,424.63 536.41,424.93 535.3,425.26 534.11,425.62 532.88,426 531.65,426.38 530.47,426.76 529.36,427.12 
				528.54,427.39 528.48,426.83 528.36,425.77 528.24,424.75 528.09,423.76 527.95,422.82 527.79,421.9 527.62,421.02 
				527.45,420.17 527.27,419.34 527.09,418.54 526.9,417.76 526.71,416.99 526.52,416.25 525.46,412.27 521.15,416.76 518.9,418.88 
				516.66,420.75 514.44,422.4 512.23,423.82 510.05,425.03 507.9,426.04 			"/>
			<path class="st2" d="M527.07,430.49c-0.4-6.36-1.34-10.48-2.37-14.28c-24.76,27.17-49.31,10.92-57.13-9.07
				c-16.16-46.14,22.71-52.57,19.45-81.69c27.22,14.65,59.06-1.53,73.9,32.87c11.68,28.1-2.99,53.99-23.95,51.23
				c1.14,5.52,2.27,11.03,3.1,16.71C540.08,426.25,526.9,430.11,527.07,430.49L527.07,430.49z M520.32,411.78
				c-15.72,17.9-34.22,18.21-46.14-4.35c-12.3-29.36,12.54-49.32,18.83-73.44c20.67,8.79,50.64,0.77,62.04,27.44
				c11.18,25.83-4.13,39.39-18.53,42.38c-2.54,0.27-4.03-4.52-0.76-4.56c17.52-4.13,22.93-17.98,15.28-34.81
				c-12.6-25.38-40.89-15.62-55.95-26.36c1.92,25.59-30,36.74-16.48,66.54c10.8,20.48,25.58,18.83,39.37,4.29
				C519.38,404.27,520.16,405.23,520.32,411.78L520.32,411.78z M530.34,423.12c-8.15-24.96-18.01-47.61-28.36-69.62
				c15.61,18.81,26.74,41.79,32.75,67.56C533.27,421.75,531.8,422.44,530.34,423.12L530.34,423.12z M516.66,405.61
				c-4.18,8.12-25.24,19.31-35.98-2.77c-10.08-23.41,11.23-36.63,16.42-55.86c2.51,4.87,4.16,10,4.89,14.08
				c-2.96,3.03-6.68,4.62-10.86,6.56c3.28,0.95,7.78,0.48,12.45-0.2c-4.17,3.69-10.13,6.6-17.87,8.72
				c7.36,2.16,15.2,3.53,23.37,4.37c-5.09,5.73-13.88,8.86-23.21,11.62c4.41,2.42,12.22,3.54,27.52,1.79
				c-5.8,6.71-14.39,9.51-24.24,10.54C497.43,407.52,506.59,407.9,516.66,405.61L516.66,405.61z M499.65,344.29
				c11.93,15.27,22.86,31.43,31.6,49.53c7.79,0.33,13.09-3.52,16.59-8.6c-6.96,2.19-12.87,1.81-17.86-1.48
				c12.33-2,18.46-6.72,18.41-14.14c-8.22,3.36-16.18,4.37-23.87,3.03c9.44-3.4,16.17-9.27,16.19-17.49
				c-6.52,3.4-13.78,6.66-21.92,6.52c3.82-1.94,7.42-5.83,10.02-10.42c-5.92,0.32-12.53,0.59-18.45,0.91
				c2.44-2.02,5.18-3.37,7.62-5.38C511.21,346.99,505.36,345.74,499.65,344.29L499.65,344.29z"/>
			<polygon class="st1" points="499.08,501.09 496.9,500.62 494.84,500 492.91,499.24 491.1,498.35 489.42,497.35 487.85,496.22 
				486.39,494.99 485.05,493.67 483.81,492.25 482.69,490.74 481.67,489.16 480.76,487.5 479.95,485.78 479.25,484 478.64,482.17 
				478.14,480.3 477.73,478.39 477.43,476.46 477.21,474.51 477.1,472.54 477.08,470.57 477.15,468.61 477.31,466.65 477.56,464.72 
				477.89,462.86 479,458.68 480.24,454.81 481.6,451.29 483.05,448.09 484.6,445.19 486.24,442.57 487.96,440.19 489.75,438.05 
				491.61,436.11 493.54,434.35 495.53,432.76 497.57,431.32 499.66,430 501.79,428.8 503.96,427.69 506.14,426.65 508.35,425.67 
				510.56,424.73 512.78,423.81 514.99,422.89 517.18,421.94 519.35,420.95 521.49,419.91 523.58,418.77 525.63,417.53 
				527.63,416.16 529.55,414.64 531.4,412.94 533.15,411.06 534.79,408.95 536.15,406.87 536.23,407.01 537.8,409.47 539.47,411.8 
				541.23,414.01 543.05,416.11 544.93,418.12 546.86,420.04 548.83,421.9 550.81,423.69 552.81,425.43 554.81,427.13 556.8,428.8 
				558.77,430.45 560.7,432.09 562.59,433.74 564.42,435.4 566.18,437.08 567.86,438.79 569.45,440.54 570.95,442.34 572.33,444.2 
				573.59,446.13 574.72,448.14 575.71,450.23 576.56,452.42 577.25,454.72 577.77,457.14 578.13,459.71 578.3,462.43 
				578.27,465.32 578.04,468.4 577.59,471.66 577.04,474.33 576.38,476.92 575.61,479.42 574.75,481.81 573.8,484.1 572.76,486.29 
				571.64,488.37 570.44,490.34 569.18,492.2 567.85,493.96 566.46,495.6 565.02,497.13 563.53,498.54 561.99,499.84 560.42,501.01 
				558.82,502.07 557.19,503 555.53,503.8 553.86,504.48 552.18,505.03 550.5,505.45 548.82,505.74 547.14,505.89 545.47,505.91 
				543.82,505.79 542.18,505.53 540.58,505.13 539,504.58 537.46,503.9 535.96,503.06 534.5,502.07 531.37,499.54 530.06,502.97 
				529.68,503.98 529.29,504.98 528.91,505.97 528.52,506.97 528.14,507.97 527.75,508.97 527.35,509.96 526.96,510.96 
				526.56,511.95 526.15,512.94 525.74,513.93 525.33,514.91 524.91,515.9 524.75,516.26 524.09,516.07 523.11,515.78 
				522.01,515.45 520.84,515.11 519.63,514.76 518.42,514.42 517.24,514.09 516.13,513.79 515.31,513.57 515.57,513.06 
				516.05,512.09 516.49,511.14 516.9,510.22 517.29,509.33 517.65,508.46 517.99,507.61 518.31,506.78 518.61,505.98 
				518.89,505.19 519.16,504.42 519.42,503.66 519.66,502.91 520.93,498.92 514.97,500.41 511.98,500.99 509.13,501.37 
				506.41,501.56 503.84,501.57 501.39,501.42 499.08,501.09 			"/>
			<path class="st2" d="M512.44,515.43c3.1-5.67,4.54-9.72,5.75-13.54c-34.99,9.72-46.41-17.67-42.06-39.09
				c11.58-48.42,46.99-32.63,60-59.38c14.47,27.48,49.36,31.07,43.03,68.7c-5.54,30.49-31.54,44.66-47.28,30.79
				c-2.04,5.35-4.08,10.71-6.45,16.03C525.41,518.93,512.5,515.01,512.44,515.43L512.44,515.43z M516.97,495.68
				c-22.56,6.73-37.93-3.15-35.57-29.02c5.71-31.92,36.88-35.41,55.04-52.65c12.25,18.87,41.2,28.42,36.2,57.54
				c-4.73,28.28-24.61,31.51-38.06,26.18c-2.23-1.16-0.88-6.08,1.84-4.32c16.63,6.06,28.53-2.84,31.31-21.47
				c3.32-28.67-25.19-35.81-31.78-53.28c-12.21,22.99-44.45,15.05-49.39,48.01c-2.16,23.48,10.88,30.17,30.04,25.27
				C520.25,488.73,520.37,489.98,516.97,495.68L516.97,495.68z M519.09,510.9c6.75-25.86,10.85-50.7,14.2-75.24
				c2.7,24.69-0.54,50.49-9.48,75.88C522.24,511.33,520.67,511.12,519.09,510.9L519.09,510.9z M517.29,488.38
				c-7.81,4.67-31.14,2.72-28.08-22.11c4.33-25.6,28.96-25.25,43.59-38.9c-0.56,5.56-1.96,10.85-3.57,14.76
				c-4.07,0.98-7.98,0.3-12.46-0.33c2.18,2.62,6.14,4.68,10.34,6.66c-5.42,0.88-11.88,0.1-19.38-2.32
				c4.88,5.88,10.59,11.36,16.85,16.56c-7.27,2.13-16.18-0.01-25.33-2.76c2.32,4.49,8.14,9.73,21.65,16.62
				c-8.38,2.57-16.95,0.27-25.6-4.25C500.45,479.48,507.78,484.83,517.29,488.38L517.29,488.38z M536.33,426.48
				c1.57,19.63,1.85,39.48-0.72,59.79c6.22,4.55,12.65,4.16,18.26,1.72c-6.9-1.94-11.55-5.5-13.88-11.06
				c11.21,5.04,18.79,4.36,22.75-2.03c-8.57-1.62-15.65-5.12-21.25-10.49c9.59,2.26,18.28,0.92,22.73-6.12
				c-7.19-0.65-14.91-1.85-21.53-6.43c4.19,0.43,9.24-0.93,13.85-3.44c-5.03-2.97-10.62-6.36-15.65-9.34
				c3.09-0.39,6.08-0.05,9.17-0.44C544.39,435.13,540.25,430.86,536.33,426.48L536.33,426.48z"/>
			<polygon class="st1" points="470.23,570.91 467.99,569.49 465.92,567.98 464.02,566.4 462.28,564.73 460.71,563 459.3,561.21 
				458.04,559.36 456.93,557.46 455.96,555.51 455.13,553.53 454.44,551.52 453.88,549.48 453.45,547.43 453.15,545.36 
				452.97,543.28 452.91,541.21 452.96,539.14 453.14,537.09 453.42,535.06 453.8,533.06 454.3,531.09 454.89,529.18 455.57,527.31 
				456.35,525.5 457.19,523.8 459.49,520.13 461.85,516.83 464.24,513.93 466.65,511.38 469.1,509.18 471.56,507.28 474.05,505.67 
				476.56,504.32 479.09,503.2 481.64,502.29 484.21,501.58 486.81,501.03 489.42,500.63 492.05,500.36 494.69,500.19 
				497.34,500.11 499.99,500.1 502.64,500.12 505.29,500.17 507.93,500.21 510.56,500.22 513.17,500.18 515.77,500.06 
				518.35,499.85 520.9,499.51 523.42,499.01 525.91,498.33 528.35,497.45 530.75,496.33 533.08,494.96 535.1,493.48 535.15,493.65 
				536.22,496.77 537.43,499.81 538.76,502.76 540.19,505.64 541.71,508.45 543.3,511.19 544.96,513.88 546.65,516.52 
				548.37,519.11 550.1,521.66 551.82,524.18 553.53,526.67 555.2,529.14 556.82,531.59 558.37,534.03 559.85,536.46 561.23,538.89 
				562.5,541.31 563.65,543.75 564.67,546.19 565.53,548.65 566.24,551.13 566.77,553.63 567.12,556.17 567.27,558.75 
				567.21,561.39 566.92,564.08 566.4,566.86 565.62,569.72 564.56,572.67 563.22,575.71 561.92,578.12 560.53,580.41 
				559.04,582.55 557.48,584.55 555.85,586.41 554.15,588.13 552.39,589.71 550.58,591.15 548.72,592.45 546.82,593.61 
				544.88,594.64 542.91,595.53 540.92,596.29 538.92,596.91 536.9,597.39 534.89,597.74 532.87,597.96 530.86,598.05 528.87,598 
				526.91,597.81 524.97,597.5 523.06,597.06 521.2,596.48 519.38,595.78 517.61,594.94 515.91,593.98 514.27,592.88 512.7,591.66 
				511.2,590.31 509.79,588.83 508.46,587.22 505.72,583.35 503.4,586.19 502.72,587.02 502.05,587.84 501.37,588.67 500.69,589.49 
				500.01,590.32 499.33,591.13 498.64,591.95 497.95,592.76 497.26,593.57 496.56,594.38 495.85,595.19 495.14,595.99 
				494.43,596.78 494.16,597.07 493.5,596.59 492.51,595.88 491.41,595.09 490.22,594.24 489,593.37 487.77,592.5 486.57,591.66 
				485.45,590.89 484.61,590.32 485.03,589.92 485.8,589.16 486.53,588.41 487.22,587.68 487.87,586.96 488.49,586.26 
				489.08,585.56 489.65,584.88 490.18,584.21 490.69,583.55 491.19,582.9 491.66,582.26 492.12,581.62 494.54,578.21 
				487.68,577.11 484.28,576.39 481.08,575.53 478.08,574.55 475.28,573.44 472.66,572.23 470.23,570.91 			"/>
			<path class="st2" d="M481.01,590.91c4.85-4.28,7.47-7.68,9.78-10.95c-40.55-5.51-45.81-37.63-35.5-57
				c25.22-43.02,59.57-12.02,80.68-32.93c8.55,33.53,45.53,52.2,28.82,86.79c-13.98,27.85-45.92,30.64-59.41,10.07
				c-3.61,4.43-7.22,8.86-11.2,13.11C494.19,600.01,481.18,590.52,481.01,590.91L481.01,590.91z M491.08,573.28
				c-26.27-3.1-40.39-19.55-31.08-44.2c14.53-29.19,49.31-19.16,73.54-28.4c8.39,24.03,37.35,46.04,24.31,72.77
				c-12.52,26.01-34.97,20.6-48.18,9.49c-2.12-2.12,0.63-6.42,3.12-3.5c16.48,13.22,31.74,9.53,39.62-7.74
				c11.09-27.01-18.02-46.44-20.62-66.62c-19.27,17.52-52.22-4.32-66.2,26.24c-8.47,22.36,3.94,34.65,26.05,38.08
				C496.46,567.81,496.27,569.1,491.08,573.28L491.08,573.28z M489.42,589.31c14.09-22.74,25.02-45.6,35.06-68.5
				c-3.51,25.66-13.76,49.86-30.11,71.18C492.72,591.09,491.07,590.2,489.42,589.31L489.42,589.31z M493.33,566.18
				c-9.71,1.25-34.55-10.79-24.74-34.09c11.38-23.52,38.06-12.51,57.51-19.71c-2.06,5.27-4.97,9.92-7.73,13.1
				c-4.67-0.79-8.74-3.16-13.45-5.72c1.69,3.54,5.45,7.3,9.5,11.08c-6.11-1.48-12.93-5.04-20.46-10.7
				c3.77,7.95,8.54,15.86,13.99,23.73c-8.46-1.04-17.58-7.02-26.8-13.71c1.35,5.46,6.3,13.18,19.19,25.87
				c-9.78-1.08-18.49-7.07-26.7-15.3C477.37,550.06,483.93,558.54,493.33,566.18L493.33,566.18z M530.19,513.02
				c-3.41,20.16-8.29,39.97-16.39,59.01c5.57,7.21,12.66,9.6,19.39,9.62c-7-4.91-11.11-10.46-12.2-16.99
				c10.86,9.86,19.28,12.47,25.25,7.83c-8.88-5.32-15.67-11.86-20.35-19.61c9.83,6.39,19.62,8.83,26.29,3.77
				c-7.64-3.76-15.71-8.29-21.72-15.7c4.44,2.24,10.28,3.08,15.94,2.59c-4.69-5.13-9.87-10.91-14.57-16.04
				c3.46,0.95,6.61,2.59,10.07,3.54C536.68,525.09,533.3,519.06,530.19,513.02L530.19,513.02z"/>
			<polygon class="st1" points="412.81,617 411.68,615.03 410.75,613.08 410.01,611.15 409.44,609.24 409.05,607.34 408.82,605.47 
				408.75,603.63 408.83,601.81 409.05,600.03 409.41,598.27 409.9,596.56 410.51,594.88 411.25,593.25 412.09,591.66 
				413.04,590.12 414.09,588.63 415.24,587.2 416.47,585.83 417.78,584.52 419.17,583.27 420.62,582.1 422.13,581 423.69,579.98 
				425.3,579.03 426.91,578.2 430.78,576.59 434.49,575.28 438.03,574.26 441.4,573.5 444.61,572.99 447.68,572.71 450.61,572.64 
				453.42,572.76 456.13,573.06 458.74,573.52 461.27,574.12 463.73,574.84 466.13,575.68 468.47,576.62 470.76,577.63 
				473.01,578.71 475.24,579.84 477.44,580.99 479.63,582.16 481.81,583.32 484,584.46 486.21,585.55 488.44,586.58 490.7,587.53 
				493.01,588.38 495.38,589.12 497.82,589.71 500.33,590.13 502.93,590.37 505.6,590.4 508.08,590.23 508.03,590.37 507.27,593.03 
				506.66,595.69 506.21,598.34 505.88,600.98 505.66,603.61 505.53,606.23 505.49,608.83 505.5,611.42 505.56,613.98 
				505.65,616.52 505.76,619.04 505.86,621.52 505.94,623.98 506,626.4 506,628.79 505.94,631.13 505.81,633.44 505.59,635.69 
				505.26,637.9 504.81,640.06 504.23,642.16 503.5,644.21 502.62,646.21 501.56,648.14 500.32,650.03 498.87,651.86 497.2,653.64 
				495.29,655.37 493.12,657.05 490.67,658.68 487.93,660.25 485.57,661.39 483.19,662.4 480.82,663.28 478.45,664.02 476.1,664.63 
				473.77,665.11 471.46,665.47 469.19,665.71 466.94,665.83 464.73,665.83 462.57,665.73 460.46,665.51 458.39,665.19 
				456.39,664.77 454.45,664.25 452.58,663.63 450.78,662.92 449.06,662.12 447.42,661.23 445.87,660.26 444.42,659.21 
				443.06,658.08 441.81,656.87 440.67,655.6 439.64,654.25 438.72,652.84 437.93,651.37 437.27,649.83 436.74,648.24 
				436.34,646.59 436.09,644.88 435.85,640.98 432.41,641.99 431.4,642.28 430.4,642.58 429.39,642.87 428.39,643.16 427.38,643.44 
				426.38,643.73 425.37,644.01 424.36,644.29 423.35,644.56 422.34,644.83 421.33,645.09 420.31,645.35 419.29,645.61 
				418.91,645.7 418.62,645.08 418.17,644.15 417.67,643.12 417.13,642.01 416.56,640.87 416,639.73 415.44,638.63 414.92,637.6 
				414.52,636.85 415.08,636.74 416.13,636.54 417.13,636.32 418.1,636.1 419.02,635.88 419.92,635.64 420.78,635.41 421.61,635.17 
				422.41,634.93 423.19,634.68 423.95,634.43 424.69,634.18 425.41,633.93 429.24,632.57 424.09,628.85 421.63,626.88 
				419.42,624.91 417.43,622.93 415.67,620.95 414.14,618.97 412.81,617 			"/>
			<path class="st2" d="M411.48,635.16c6.32-0.94,10.32-2.21,13.98-3.52c-30.95-21.27-18.3-46.16,0.59-55.4
				c17.79-7.91,29.67-5.23,40.97-2.63c2.25,0.52,3.46-1.03,6.02-0.69c3.99,0.54,9.07,3.36,12.47,4.64c1.98,0.75,4.55,1.21,5.56,1.85
				c7.1,4.49,12.27,6.64,19.85,8.21c-10.65,27.31,10.33,56.32-21.98,73.53c-26.46,13.64-54.62,1.91-54.97-18.37
				c-5.37,1.57-10.73,3.15-16.31,4.44C417.67,647.22,411.84,634.96,411.48,635.16L411.48,635.16z M429.26,627.05
				c-20.3-13.45-23.37-31.1-2.51-44.48c27.63-14.35,51.36,7.64,76.5,11.51c-5.74,20.54,6.77,48.47-18.3,61.72
				c-24.25,12.97-40.14-0.47-45.28-13.97c-0.65-2.4,3.93-4.25,4.46-1.12c6.76,16.38,21.45,20.33,37.21,11.53
				c23.59-14.29,9.58-40.47,18.12-55.8c-25.39,4.09-41.33-25.43-69.22-9.88c-18.94,12.13-15.09,26.11,1.55,38.01
				C436.65,625.5,435.81,626.33,429.26,627.05L429.26,627.05z M419.36,637.64c23.83-9.99,45.09-21.42,65.63-33.25
				c-16.55,16.58-37.95,29.25-62.92,37.27C421.18,640.31,420.27,638.97,419.36,637.64L419.36,637.64z M434.9,623.01
				c-8.77-3.28-23.13-22.42-2.57-34.64c21.99-11.7,38.43,7.5,58.5,10.76c-4.52,2.83-9.41,4.86-13.4,5.92
				c-3.49-2.56-5.63-5.98-8.2-9.8c-0.47,3.22,0.68,7.48,2.06,11.89c-4.32-3.66-8.13-9.1-11.41-16.31
				c-1.07,7.22-1.28,14.84-0.91,22.73c-6.51-4.36-10.96-12.49-15.12-21.15c-1.77,4.43-1.73,11.99,2.3,26.46
				c-7.6-4.96-11.69-12.91-14.19-22.24C430.12,604.8,431.1,613.6,434.9,623.01L434.9,623.01z M493.89,601.34
				c-13.55,12.75-28.13,24.62-45,34.57c0.83,7.47,5.48,12.2,11.1,15.09c-3.24-6.46-3.73-12.14-1.17-17.2
				c3.84,11.61,9.49,17.05,16.93,16.35c-4.6-7.56-6.79-15.08-6.59-22.55c4.82,8.72,11.7,14.63,19.97,13.93
				c-4.39-5.93-8.73-12.58-9.81-20.38c2.52,3.48,6.95,6.58,11.94,8.66c-1.2-5.63-2.46-11.92-3.66-17.55
				c2.39,2.15,4.15,4.66,6.54,6.81C492.91,612.63,493.29,606.93,493.89,601.34L493.89,601.34z"/>
			<polygon class="st1" points="357.37,704.38 358.85,706.17 360.4,707.81 362.02,709.28 363.72,710.6 365.47,711.77 367.28,712.8 
				369.14,713.7 371.04,714.45 372.98,715.08 374.96,715.58 376.95,715.96 378.97,716.22 381.01,716.37 383.05,716.41 
				385.09,716.34 387.12,716.16 389.15,715.89 391.15,715.51 393.13,715.05 395.08,714.49 396.99,713.85 398.84,713.13 
				400.65,712.33 402.4,711.46 404.03,710.54 407.55,708.15 410.69,705.75 413.45,703.36 415.86,700.98 417.93,698.62 419.7,696.28 
				421.19,693.95 422.42,691.62 423.43,689.31 424.22,686.99 424.83,684.68 425.27,682.37 425.57,680.06 425.74,677.75 
				425.8,675.44 425.78,673.14 425.7,670.84 425.58,668.54 425.44,666.25 425.31,663.96 425.2,661.68 428.63,658.16 428.64,655.89 
				428.76,653.64 429,651.39 429.4,649.14 429.97,646.91 430.75,644.69 431.75,642.5 433.01,640.32 434.39,638.4 434.22,638.38 
				431.12,637.79 428.1,637.08 425.16,636.25 422.29,635.32 419.48,634.31 416.73,633.23 414.03,632.09 411.39,630.91 405.3,630.96 
				402.73,629.73 400.2,628.51 397.69,627.31 395.21,626.13 392.75,624.99 390.31,623.91 387.87,622.9 385.44,621.96 383.01,621.12 
				380.59,620.39 378.15,619.78 375.71,619.3 373.26,618.96 370.78,618.77 368.28,618.74 365.75,618.9 363.16,619.24 360.53,619.78 
				357.83,620.53 355.06,621.52 352.2,622.76 349.26,624.26 346.95,625.65 344.76,627.11 342.71,628.63 340.81,630.2 339.05,631.82 
				337.43,633.48 335.94,635.18 334.6,636.91 333.39,638.66 332.32,640.44 331.38,642.23 330.58,644.04 329.91,645.85 
				329.38,647.65 328.97,649.45 328.7,651.24 328.56,653.01 328.55,654.76 328.68,656.48 328.93,658.17 329.3,659.82 329.81,661.42 
				330.44,662.97 331.2,664.47 332.08,665.91 333.09,667.29 334.22,668.59 335.48,669.82 336.86,670.97 338.36,672.03 
				339.99,673.01 343.88,674.96 341.18,677.28 340.39,677.96 339.61,678.64 338.82,679.32 330.24,685.39 329.46,686.07 
				328.68,686.75 327.9,687.44 327.13,688.12 326.36,688.81 325.6,689.51 324.83,690.21 324.07,690.91 323.32,691.62 323.05,691.88 
				323.54,692.4 324.27,693.18 325.09,694.05 325.97,694.99 326.87,695.96 327.76,696.93 328.63,697.87 329.43,698.76 
				330.01,699.42 330.39,699.02 331.11,698.27 331.81,697.55 332.51,696.88 333.19,696.23 333.86,695.62 334.51,695.03 
				342.97,689.07 343.6,688.53 344.23,688.02 344.85,687.52 345.47,687.04 346.07,686.57 349.33,684.1 350.65,689.93 351.49,692.8 
				352.44,695.48 353.52,697.97 354.7,700.28 355.99,702.42 357.37,704.38 			"/>
			<path class="st2" d="M322.69,708.18c4.02-4.67,21.93-18.28,25.05-20.64c6.89,34.57,38.56,35.62,57.18,24.56
				c41.25-26.57,13.09-54.23,32.81-74.83c-33.19-3.75-56.32-32.53-89.62-14.26c-26.79,15.17-28.36,43.18-7.7,52.63
				c-4.21,3.62-16.22,12.63-20.25,16.54C320.17,692.17,323.06,707.98,322.69,708.18L322.69,708.18z M354.29,686.56
				c4,22.45,20.64,32.9,44.47,22.12c28.09-15.79,20.46-46.11,28.64-68.14c-23.86-4.65-49.99-26.11-75.71-11.88
				c-25.04,13.7-18.92,32.58-7.54,42.82c2.16,1.61,6.27-1.25,3.31-3.09c-13.56-12.85-10.51-26.49,6.14-35.21
				c26.07-12.57,49.67,9.3,69.55,9.35c-16.48,18.62,2.66,46.07-26.79,61.53c-21.61,9.79-34.11,0.37-38.28-18.43
				C359.46,681.3,358.2,681.6,354.29,686.56L354.29,686.56z M323.96,700.71c21.77-14.7,58.46-37.63,80.54-48.85
				c-25.03,5.85-63.06,28.34-83.35,44.84C322.09,698.03,323.02,699.37,323.96,700.71L323.96,700.71z M361.16,683.83
				c-0.87,8.55,11.84,28.78,34.33,17.73c22.65-12.44,14.36-35.63,20.7-53.29c-5.09,2.36-13.03,6.64-16.04,9.39
				c0.95,3.97,3.42,7.24,6.1,11.04c-3.54-1.08-7.35-3.93-11.21-7.03c1.67,5.14,5.41,10.66,11.23,16.57
				c-7.94-2.4-15.86-5.67-23.78-9.54c1.33,7.22,7.53,14.48,14.42,21.75c-5.4-0.57-13.15-4.02-26.06-13.81
				c1.42,8.37,7.61,15.26,15.98,21.49C377.55,695.91,369,691.15,361.16,683.83L361.16,683.83z M415.42,644.81
				c-19.64,5.16-42.36,12.81-60.74,21.91c-7.27-4.05-9.88-9.93-10.14-15.77c5.07,5.53,10.66,8.5,17.1,8.72
				c-10.06-8.34-12.93-15.36-8.6-21.04c5.54,7.12,12.2,12.29,19.97,15.5c-6.63-7.82-9.37-16.05-4.66-22.39
				c3.97,6.21,8.7,12.72,16.18,17.12c-2.36-3.6-3.39-8.58-3.12-13.54c5.2,3.51,11.05,7.37,16.26,10.88
				c-1.06-2.9-2.78-5.45-3.84-8.35C399.86,641.75,409.38,642.76,415.42,644.81L415.42,644.81z"/>
			<path class="st2" d="M290.02,589.39c-12.89,16.08-12.74,62.52-3.11,82.12c-8.19,6.9-2.25,19.44,2.67,22.79
				c-9.31,29.84,14.43,29.68,16.15,29.68h0.3c1.72,0,25.46,0.16,16.15-29.68c4.91-3.35,10.86-15.88,2.67-22.79
				c4.82-9.8,7.26-25.55,6.89-40.84c-0.37-15.3-3.56-33.24-10-41.28c-5.23-0.53-10.47-1.07-15.7-1.6c0-0.01,0-0.02,0-0.03
				c-0.05,0-0.1,0.01-0.15,0.02c-0.05-0.01-0.1-0.01-0.15-0.02c0,0.01,0,0.02,0,0.03C300.49,588.32,295.26,588.85,290.02,589.39
				L290.02,589.39z M301.25,698.51c-8.68,0.74-6.37,10.75-4.69,12.65c5.76,8.01,14.83,6.78,19.97,0.4c3.9-6.96,0.46-8.39-1.22-5.05
				c-2.6,3.31-5.6,4.36-8.86,4.36c-1.87-0.04-2.32-1.71-0.35-2.52c3.32-1.02,5.18-4.2,4.89-7.79
				C311.06,697.81,305.53,697.95,301.25,698.51L301.25,698.51z M294.65,678.04c8.36,3.89,16.18,2.98,23.61-1.21
				c3.6-2.91,7.07,3.16,4.69,6.06c-9.93,11.45-21.39,9.9-30.91,3.03C287.61,682.25,290.89,675.62,294.65,678.04L294.65,678.04z
				 M292.81,595.76c5.06,1.33,2.8,1.65,10.64,0.29c1.12,4.25,2.25,10.2,3.62,18.55c2.44,14.84,4.24,30.46,3.89,45.66
				c0.95-5.99,1.45-17.13,1.47-28.61c0.01-5.09-0.16-11.98-0.86-17.4c-1.02-8-2.78-14.24-3.45-18.5c1.22-0.34,2.43-0.67,3.65-1.01
				c0.4,7.49,3.68,23.8,3.92,36.93c0.23,12.72,0.64,25.37-0.37,32.63c-0.51,5.36-3.7,7.51-6.95,7.67c-4.37,0.34-7.15-0.07-9.2-0.81
				c-6.66-3.39-9.6-19.22-10.46-36.57C288.18,623.85,290.03,605.09,292.81,595.76L292.81,595.76z M315.24,594.35
				c1.04,0.53,2.44-0.18,3.48-0.81c1.06,4.36,3.23,11.03,4.6,18.27c1.2,6.39,1.67,13.23,1.87,19.32c0.45,13.85-0.7,27.39-3.44,34.19
				c-1.45,2.56-3.47,2.83-2.95-0.4c1.36-7.37,1.33-20.42,1.19-33.54c-0.06-6.25-0.35-13.22-1.31-19.63
				C317.62,604.71,315.85,598.34,315.24,594.35L315.24,594.35z"/>
			<polygon class="st3" points="259.09,243.73 254.23,243.73 254.23,251.59 259.09,251.59 259.09,243.73 			"/>
			<path class="st3" d="M340.42,217.72c15.96,0.76,29.9-3.83,42.34-12.42c1.89-1.36,2.73,0.73,0.92,2.34
				c-13.37,10.37-27.97,14.7-43.8,13C336.72,220.06,337.16,217.19,340.42,217.72L340.42,217.72z"/>
			<path class="st3" d="M360.34,224.73c8.55-0.74,16.64-2.42,23.09-7.45c2.51-2.29,4.62,0.83,1.58,3.21
				c-7.74,5.79-16.05,9.06-25.2,8.62C356.58,228.58,356.05,224.29,360.34,224.73L360.34,224.73z"/>
			<path class="st3" d="M377.22,230.28c2.88-0.52,5.11-2.13,7.65-3.8c1.8-1.51,2.55,0.58,1.06,1.75c-2.04,1.15-4.25,2.75-6.99,3.51
				C376.74,232.62,375.51,230.53,377.22,230.28L377.22,230.28z"/>
			<path class="st1" d="M488.54,230.61l2.5,0.51l2.46,0.64l2.4,0.77l2.33,0.9l2.24,1.03l2.15,1.15l2.05,1.27l1.93,1.39l1.8,1.5
				l1.67,1.62l1.52,1.73l1.36,1.84l1.2,1.95l1.02,2.06l0.84,2.17l0.64,2.28l0.43,2.39l0.22,2.51l-0.01,2.62l-0.56,5.92l7.72-2.5
				l4.34-1.09l4.19-0.75l4.03-0.43l3.86-0.11l3.69,0.18l3.52,0.45l3.33,0.71l3.15,0.96l2.96,1.19l2.76,1.41l2.56,1.61l2.36,1.79
				l2.15,1.97l1.93,2.13l1.7,2.27l1.47,2.4l1.24,2.52l0.99,2.63l0.74,2.72l0.48,2.79l0.22,2.85l-0.06,2.9l-0.34,2.94l-0.63,2.96
				l-0.92,2.97l-1.23,2.96l-1.54,2.94l-1.87,2.91l-0.22,0.28l0.17-0.98l0.21-1.92l0.08-1.89l-0.05-1.86l-0.18-1.82l-0.31-1.77
				l-0.43-1.72l-0.55-1.66l-0.67-1.59l-0.79-1.51l-0.91-1.43l-1.03-1.33l-1.14-1.22l-1.25-1.11l-1.36-0.98l-1.47-0.84l-1.57-0.68
				l-1.67-0.52l-1.75-0.34l-1.83-0.16l-1.89,0.03l-1.94,0.23l-1.99,0.42l-2.03,0.63l-2.07,0.83l-2.11,1.04l-2.17,1.28l-117.95,86.01
				l-14.99-27.24l-27.09-56.95l80.73-59.06l2.08-1.16l2.23-1.04l2.31-0.89l2.38-0.75l2.44-0.6l2.49-0.46l2.53-0.32l2.56-0.18
				l2.57-0.04l2.57,0.1l2.56,0.24L488.54,230.61L488.54,230.61z M448.68,276.55l-30.78,20.98l1.52,44.9l53.73-40.44L448.68,276.55
				L448.68,276.55z M461.54,267.43l24.33,24.86l24.11-18.04c-1.44-20.15-13.05-26.72-26.45-22.7l-0.69,0.5L461.54,267.43
				L461.54,267.43z"/>
			<path class="st2" d="M515.3,272.92c11.84-9.69,35.55-13.12,49.64,1.4c2.22,2.45,4.02,5.54,5.35,8.85
				c-0.72-1.08-1.49-2.1-2.33-3.02c-14.08-14.52-37.8-11.09-49.64-1.4l-107.63,79.13l-2.67-4.13L515.3,272.92L515.3,272.92z
				 M379.53,296.4l81.41-58.44c10.48-6.62,28.02-6.84,39.26-1.32c7.45,3.66,12.03,9.62,13.4,17.23
				c-2.66-5.64-7.57-10.01-13.57-12.78c-14.54-6.13-25.66-4.83-36.63,2.73l-81.2,58.21L379.53,296.4L379.53,296.4z M523.24,281.01
				c10.52-7.4,26.52-11.29,40.25-1.72c6.51,4.79,11.46,13.59,7.63,24.81c-1.38-18.7-21.07-24.33-34.77-13.5l-116.92,86.04
				l-6.84-14.54L523.24,281.01L523.24,281.01z M376.85,292.55l81.21-58.9c23.71-14.34,65.45-1.28,61.12,30.26
				c50.1-18.03,78.19,29.33,44.2,59.1c11.44-18.83-1.85-42.55-23.55-28.79l-121.24,88.4L376.85,292.55L376.85,292.55z M451.63,259
				l18.09-13.39c6.79-5.14,17.5-5.7,26.72-2.63c12.64,4.2,22.47,14.9,15.46,27.17c-0.85-7.36-4.18-14.09-8.97-17.85
				c-7.66-6.02-18.21-4.3-21.61-1.41l-18.83,13.54l-2.88-2.89l12.16-9.15c2.69-1.93,4.96-3.3,9.91-4.55
				c-4.18-0.08-6.51-0.01-11.33,3.08l-12.3,9.06C456.53,258.88,453.98,258.54,451.63,259L451.63,259z M482.52,292.45l-26.82-27.31
				c-3.58-3.91-12.89,1.69-7.91,7.07l26.16,26.61L482.52,292.45L482.52,292.45z M384.57,307l56.74-41
				c-0.83,2.39-1.25,4.75,0.01,7.04l-53.57,38.85L384.57,307L384.57,307z M388.73,313.64l54.04-38.6l2.37,2.88l-22.4,16.31
				l-32.44,22.59L388.73,313.64L388.73,313.64z M422.97,298.1l24.25-18.38l22.45,22.75c-22.88,16.7,0,0-29.54,21.31
				C423.6,298.48,436.92,320.62,422.97,298.1L422.97,298.1z M464.77,267.61l19.46-13.96c14.25-3.79,23.71,7.2,23.2,20.72
				l-21.01,15.31L464.77,267.61L464.77,267.61z M541.72,283.24c-5.74,2.07-10.79,5.14-14.76,7.86l-107.24,79.92l-1.96-1.76
				l107.74-80.14C529.67,286.26,536.08,283.81,541.72,283.24L541.72,283.24z"/>
			<path class="st4" d="M393.41,158.44c33.86,37,31.52,89.69-1.78,125.37c-10.25-16.09-23.58-26.87-42.35-26.72l-18.72,0.05l0,35.88
				h-7.13l0-110.76c-1.47,0.76-3.11,1.42-4.9,1.93l0,108.82h-4.01l0-107.94c-1.57,0.25-3.21,0.4-4.9,0.44l0,107.5h-3.57l0-107.57
				c-5.03-0.34-9.54-1.66-12.93-3.61l0,111.19h-6.24l0-32.41l-25.41,0.11c-5.32-0.23-10.64,1.37-15.96,2.96v-16.55
				c-25.79,2.5-35.64,3.08-39.02,25.33c-21.46-36.77-15.67-54.47-4.25-70.11c11.42-15.64,41.86-16.79,70.37-16.55h14.26v-9.15
				c-0.04-0.3-0.06-0.6-0.06-0.91c0-3.26,2.24-6.24,5.89-8.46c-1.14-2.12-1.79-4.5-1.79-7.01c0-8.85,7.97-16.07,17.75-16.07
				s17.75,7.22,17.75,16.07c0,2.51-0.64,4.89-1.79,7.01c3.63,2.21,5.87,5.17,5.89,8.41h0.05v3.46h0.13v4.81
				C364.16,183.69,380.86,176.33,393.41,158.44L393.41,158.44z M296.91,174.79c7.24,2.26,14.31,2.05,21.14-1.75
				c3.45-2.46,5.92,2.02,2.68,4.02c-7.02,3.81-17.17,4.53-24.61,2.46C293.34,178.53,294.62,173.94,296.91,174.79L296.91,174.79z
				 M308.66,149.36c6.65,0,12.07,4.91,12.07,10.93c0,2.44-0.89,4.71-2.4,6.53c-1.31-11.53-7.62-11-11.52-11.07
				c2.48,0.51,7.94,5.35,5.44,14.98c-1.13,0.32-2.34,0.49-3.58,0.49c-6.65,0-12.07-4.91-12.07-10.93
				C296.59,154.27,302.01,149.36,308.66,149.36L308.66,149.36z M377.22,230.28c2.88-0.52,5.11-2.13,7.65-3.8
				c1.8-1.51,2.55,0.58,1.06,1.75c-2.04,1.15-4.25,2.75-6.99,3.51C376.74,232.62,375.51,230.53,377.22,230.28L377.22,230.28z
				 M360.34,224.73c8.55-0.74,16.64-2.42,23.09-7.45c2.51-2.29,4.62,0.83,1.58,3.21c-7.74,5.79-16.05,9.06-25.2,8.62
				C356.58,228.58,356.05,224.29,360.34,224.73L360.34,224.73z M340.42,217.72c15.96,0.76,29.9-3.83,42.34-12.42
				c1.89-1.36,2.73,0.73,0.92,2.34c-13.37,10.37-27.97,14.7-43.8,13C336.72,220.06,337.16,217.19,340.42,217.72L340.42,217.72z
				 M254.29,243.84h-4.87v7.86h4.87V243.84L254.29,243.84z M286.88,204.36c-57.63-0.28-73.65-4.74-79.4,16.66
				c11.93-14.74,20.04-10.89,79.4-9.84v40.3l-27.79,0.11l0.02-14.59c-29.73,2.66-52.55,5.89-53.71,20.43
				c-11.71-18.98-7.19-44.07,6.5-54.74c12.82-9.99,36.39-8.15,57.62-8.36h16.88L286.88,204.36L286.88,204.36z M330.68,199.58
				c25.63,1.2,42.74-6.22,55.55-15.16c2.17-2.3,4.22,0.36,1.77,2.29c-14.52,12.32-31.66,22.63-57.33,23.56v35.18l18.62-0.05
				c17.24,0.19,30.72,9.07,44.5,23.5c22.02-28.38,21.4-70.67,0.08-99.19c-16.93,18.1-40.54,21.48-63.19,21.78V199.58L330.68,199.58z
				"/>
			<polygon class="st1" points="104.31,423.7 106.45,424.51 108.56,425.13 110.63,425.57 112.66,425.84 114.65,425.94 116.6,425.87 
				118.51,425.66 120.37,425.3 122.19,424.81 123.95,424.18 125.67,423.43 127.33,422.56 128.93,421.58 130.48,420.5 131.97,419.31 
				133.39,418.04 134.75,416.68 136.03,415.25 137.24,413.75 138.38,412.18 139.43,410.56 140.41,408.89 141.3,407.18 142.1,405.44 
				142.79,403.71 144.03,399.63 144.99,395.74 145.68,392.07 146.1,388.62 146.29,385.35 146.26,382.27 146.02,379.35 145.6,376.58 
				145.01,373.94 144.27,371.42 143.38,369 142.38,366.67 141.26,364.43 140.05,362.25 138.77,360.13 137.42,358.07 136.02,356.03 
				134.6,354.03 133.17,352.04 131.75,350.05 130.35,348.05 128.99,346.04 127.7,343.98 126.48,341.88 125.36,339.72 124.35,337.48 
				123.49,335.16 122.79,332.73 122.27,330.2 121.96,327.54 121.88,325.06 121.73,325.13 119.08,326.3 116.4,327.31 113.72,328.17 
				111.03,328.91 108.35,329.53 105.66,330.06 102.99,330.51 100.32,330.89 97.68,331.23 95.05,331.53 92.45,331.82 89.88,332.1 
				87.34,332.4 84.84,332.72 82.38,333.08 79.97,333.5 77.62,333.99 75.31,334.56 73.07,335.23 70.9,336.01 68.79,336.91 
				66.76,337.95 64.8,339.13 62.91,340.48 61.1,342 59.37,343.72 57.71,345.65 56.13,347.82 54.63,350.23 53.21,352.91 
				51.88,355.87 50.95,358.38 50.16,360.9 49.5,363.39 48.99,365.85 48.61,368.28 48.36,370.66 48.23,373.01 48.22,375.3 
				48.34,377.55 48.56,379.74 48.9,381.87 49.34,383.93 49.89,385.93 50.53,387.85 51.27,389.7 52.11,391.46 53.03,393.13 
				54.03,394.72 55.12,396.2 56.28,397.59 57.52,398.87 58.83,400.04 60.2,401.09 61.63,402.03 63.13,402.85 64.68,403.53 
				66.28,404.09 67.93,404.51 69.63,404.79 71.37,404.93 73.15,404.92 77.19,404.55 76.52,408.12 76.32,409.16 76.12,410.2 
				75.93,411.24 75.73,412.29 75.54,413.33 75.36,414.37 75.17,415.41 74.99,416.45 74.82,417.5 74.65,418.54 74.48,419.59 
				74.32,420.64 74.16,421.69 74.11,422.08 74.78,422.28 75.78,422.58 76.9,422.92 78.1,423.28 79.33,423.66 80.56,424.05 
				81.75,424.43 82.87,424.79 83.69,425.07 83.74,424.5 83.84,423.43 83.96,422.4 84.08,421.41 84.22,420.45 84.36,419.53 
				84.51,418.64 84.67,417.78 84.84,416.94 85.01,416.13 85.19,415.34 85.37,414.57 85.55,413.82 86.55,409.81 90.92,414.34 
				93.2,416.47 95.47,418.37 97.72,420.03 99.94,421.47 102.14,422.69 104.31,423.7 			"/>
			<path class="st2" d="M85.2,428.19c0.31-6.42,1.19-10.58,2.16-14.41c25.16,27.41,49.47,11.02,56.99-9.15
				c15.49-46.55-23.47-53.04-20.63-82.43c-27,14.78-59.08-1.55-73.42,33.16c-11.27,28.35,3.77,54.48,24.7,51.69
				c-1.06,5.57-2.11,11.13-2.86,16.86C72.13,423.92,85.37,427.81,85.2,428.19L85.2,428.19z M91.69,409.31
				c15.98,18.06,34.48,18.37,46.07-4.39c11.88-29.62-13.26-49.76-19.89-74.1c-20.55,8.87-50.63,0.78-61.64,27.69
				c-10.81,26.06,4.7,39.74,19.14,42.76c2.54,0.27,3.97-4.56,0.69-4.6c-17.58-4.17-23.19-18.14-15.78-35.13
				c12.23-25.61,40.67-15.76,55.57-26.6c-1.55,25.82,30.53,37.06,17.45,67.14c-10.5,20.66-25.31,19-39.31,4.33
				C92.51,401.74,91.75,402.7,91.69,409.31L91.69,409.31z M81.83,420.76c7.78-25.18,17.32-48.04,27.35-70.24
				c-15.34,18.98-26.14,42.17-31.77,68.17C78.88,419.38,80.35,420.07,81.83,420.76L81.83,420.76z M95.25,403.09
				c4.3,8.19,25.52,19.48,35.94-2.8c9.74-23.62-11.76-36.96-17.23-56.37c-2.44,4.92-4.02,10.09-4.69,14.21
				c3,3.06,6.75,4.66,10.95,6.61c-3.27,0.96-7.78,0.48-12.46-0.2c4.22,3.72,10.22,6.66,17.99,8.8c-7.33,2.18-15.15,3.57-23.31,4.41
				c5.17,5.79,14.01,8.94,23.37,11.73c-4.37,2.44-12.17,3.57-27.5,1.81c5.9,6.77,14.53,9.6,24.39,10.64
				C114.51,405.02,105.35,405.4,95.25,403.09L95.25,403.09z M111.38,341.22c-11.7,15.41-22.4,31.71-30.88,49.98
				c-7.78,0.33-13.14-3.55-16.71-8.67c6.99,2.21,12.89,1.83,17.84-1.49c-12.36-2.02-18.56-6.78-18.61-14.27
				c8.27,3.39,16.24,4.41,23.91,3.05c-9.49-3.43-16.3-9.35-16.44-17.65c6.57,3.43,13.87,6.71,22.02,6.58
				c-3.85-1.96-7.5-5.88-10.17-10.51c5.92,0.32,12.54,0.6,18.46,0.92c-2.47-2.03-5.23-3.4-7.7-5.43
				C99.85,343.94,105.68,342.69,111.38,341.22L111.38,341.22z"/>
			<polygon class="st1" points="114.22,499.43 116.39,498.95 118.44,498.32 120.36,497.56 122.15,496.67 123.82,495.65 
				125.38,494.52 126.82,493.28 128.14,491.94 129.35,490.5 130.46,488.98 131.45,487.38 132.34,485.71 133.12,483.98 133.8,482.18 
				134.38,480.34 134.86,478.45 135.23,476.53 135.51,474.58 135.7,472.6 135.78,470.62 135.78,468.63 135.68,466.65 135.49,464.68 
				135.21,462.73 134.85,460.85 133.68,456.63 132.38,452.73 130.98,449.18 129.47,445.95 127.88,443.03 126.21,440.38 
				124.45,437.98 122.63,435.82 120.74,433.86 118.79,432.09 116.78,430.48 114.71,429.03 112.6,427.7 110.46,426.49 108.28,425.37 
				106.07,424.32 103.85,423.33 101.63,422.38 99.4,421.45 97.18,420.52 94.97,419.57 92.79,418.57 90.63,417.51 88.52,416.37 
				86.45,415.12 84.44,413.74 82.49,412.2 80.62,410.49 78.85,408.58 77.17,406.46 75.78,404.36 75.7,404.5 74.17,406.98 
				72.53,409.33 70.81,411.56 69.02,413.69 67.16,415.71 65.26,417.65 63.32,419.52 61.36,421.33 59.39,423.08 57.41,424.8 
				55.45,426.48 53.5,428.15 51.6,429.81 49.73,431.47 47.93,433.14 46.19,434.84 44.53,436.57 42.96,438.34 41.5,440.15 
				40.14,442.03 38.91,443.97 37.81,446 36.85,448.11 36.04,450.32 35.38,452.64 34.89,455.08 34.57,457.67 34.44,460.42 
				34.5,463.33 34.78,466.44 35.28,469.74 35.87,472.43 36.57,475.04 37.37,477.56 38.27,479.97 39.25,482.28 40.32,484.49 
				41.47,486.59 42.7,488.58 43.99,490.46 45.34,492.23 46.76,493.89 48.22,495.43 49.73,496.85 51.28,498.16 52.87,499.35 
				54.49,500.41 56.14,501.35 57.8,502.16 59.48,502.85 61.17,503.4 62.86,503.83 64.55,504.12 66.23,504.27 67.9,504.29 
				69.55,504.17 71.18,503.91 72.78,503.5 74.35,502.95 75.88,502.26 77.37,501.41 78.81,500.42 81.91,497.86 83.26,501.33 
				83.66,502.34 84.06,503.35 84.46,504.35 84.86,505.36 85.26,506.37 85.66,507.37 86.07,508.38 86.48,509.38 86.89,510.38 
				87.31,511.38 87.74,512.38 88.17,513.37 88.6,514.37 88.77,514.73 89.42,514.54 90.4,514.24 91.49,513.92 92.65,513.57 
				93.86,513.22 95.07,512.87 96.24,512.54 97.35,512.24 98.16,512.02 97.9,511.5 97.41,510.52 96.95,509.57 96.52,508.64 
				96.12,507.74 95.75,506.86 95.4,506.01 95.06,505.17 94.75,504.36 94.46,503.56 94.18,502.78 93.92,502.02 93.66,501.26 
				92.33,497.23 98.31,498.74 101.31,499.32 104.17,499.71 106.89,499.9 109.47,499.91 111.91,499.75 114.22,499.43 			"/>
			<path class="st2" d="M101.06,513.89c-3.18-5.72-4.68-9.81-5.95-13.67c35.13,9.81,46.15-17.82,41.5-39.45
				c-12.28-48.85-47.46-32.92-60.86-59.91c-14.08,27.73-48.92,31.34-42.03,69.31c5.98,30.77,32.19,45.06,47.73,31.07
				c2.12,5.4,4.23,10.8,6.69,16.18C88.14,517.42,101,513.47,101.06,513.89L101.06,513.89z M96.25,493.96
				c22.66,6.79,37.89-3.17,35.15-29.28c-6.17-32.2-37.39-35.73-55.8-53.12c-11.98,19.04-40.79,28.68-35.37,58.06
				c5.14,28.53,25.07,31.79,38.44,26.41c2.22-1.17,0.79-6.14-1.9-4.36c-16.54,6.12-28.57-2.87-31.62-21.67
				c-3.73-28.93,24.67-36.13,31.01-53.75c12.54,23.2,44.66,15.18,50.09,48.44c2.49,23.69-10.44,30.44-29.68,25.5
				C92.87,486.95,92.76,488.21,96.25,493.96L96.25,493.96z M94.34,509.33c-7.12-26.1-11.58-51.15-15.29-75.91
				c-2.34,24.91,1.27,50.95,10.58,76.56C91.2,509.76,92.77,509.54,94.34,509.33L94.34,509.33z M95.82,486.6
				c7.88,4.71,31.18,2.74,27.76-22.31c-4.7-25.83-29.33-25.48-44.15-39.25c0.64,5.61,2.12,10.95,3.78,14.89
				c4.08,0.99,7.98,0.3,12.45-0.34c-2.15,2.64-6.07,4.72-10.25,6.72c5.43,0.88,11.88,0.1,19.35-2.34
				c-4.8,5.94-10.42,11.47-16.61,16.71c7.3,2.14,16.18-0.01,25.29-2.78c-2.25,4.53-8,9.82-21.41,16.77
				c8.42,2.59,16.95,0.27,25.54-4.29C112.53,477.62,105.28,483.02,95.82,486.6L95.82,486.6z M75.88,424.15
				c-1.29,19.81-1.28,39.83,1.58,60.33c-6.16,4.59-12.59,4.19-18.24,1.74c6.88-1.95,11.47-5.55,13.72-11.16
				c-11.14,5.09-18.73,4.4-22.78-2.05c8.54-1.64,15.57-5.17,21.1-10.59c-9.55,2.28-18.26,0.93-22.82-6.18
				c7.18-0.66,14.88-1.86,21.44-6.48c-4.18,0.44-9.25-0.94-13.9-3.47c4.99-3,10.52-6.42,15.51-9.42c-3.1-0.39-6.08-0.05-9.17-0.44
				C67.95,432.88,72.03,428.57,75.88,424.15L75.88,424.15z"/>
			<polygon class="st1" points="144.07,569.87 146.3,568.44 148.35,566.92 150.22,565.32 151.93,563.64 153.48,561.89 
				154.86,560.08 156.1,558.22 157.18,556.3 158.13,554.34 158.92,552.34 159.59,550.31 160.12,548.25 160.52,546.18 160.79,544.09 
				160.94,542 160.97,539.9 160.88,537.82 160.68,535.75 160.37,533.7 159.95,531.68 159.43,529.7 158.82,527.76 158.1,525.88 
				157.3,524.05 156.43,522.34 154.08,518.63 151.67,515.31 149.24,512.38 146.79,509.81 144.31,507.59 141.82,505.67 
				139.31,504.05 136.79,502.68 134.24,501.55 131.67,500.64 129.09,499.92 126.49,499.36 123.87,498.96 121.23,498.69 
				118.59,498.52 115.94,498.44 113.29,498.42 110.64,498.45 107.99,498.49 105.35,498.53 102.72,498.55 100.11,498.51 
				97.51,498.39 94.93,498.17 92.38,497.83 89.85,497.33 87.35,496.64 84.89,495.75 82.48,494.63 80.13,493.24 78.08,491.75 
				78.03,491.92 77.01,495.07 75.85,498.13 74.56,501.11 73.17,504.02 71.69,506.85 70.14,509.62 68.52,512.33 66.87,514.99 
				65.19,517.61 63.5,520.18 61.81,522.72 60.14,525.24 58.5,527.73 56.92,530.2 55.4,532.66 53.96,535.11 52.61,537.56 
				51.38,540.01 50.26,542.47 49.28,544.93 48.45,547.41 47.78,549.91 47.28,552.44 46.97,555 46.86,557.6 46.96,560.26 
				47.28,562.98 47.85,565.78 48.67,568.67 49.77,571.65 51.16,574.72 52.49,577.15 53.92,579.45 55.43,581.62 57.02,583.63 
				58.68,585.51 60.4,587.24 62.19,588.84 64.02,590.29 65.9,591.6 67.82,592.78 69.77,593.82 71.75,594.71 73.75,595.48 
				75.76,596.1 77.79,596.59 79.81,596.95 81.83,597.17 83.83,597.25 85.82,597.2 87.79,597.02 89.72,596.7 91.62,596.25 
				93.48,595.67 95.29,594.96 97.04,594.12 98.73,593.15 100.36,592.04 101.91,590.81 103.38,589.44 104.78,587.95 106.08,586.32 
				108.77,582.42 111.13,585.29 111.81,586.12 112.5,586.96 113.19,587.79 113.88,588.62 114.58,589.45 115.27,590.28 115.97,591.1 
				116.67,591.92 117.38,592.74 118.09,593.55 118.8,594.36 119.52,595.17 120.25,595.97 120.52,596.27 121.18,595.78 
				122.16,595.07 123.25,594.26 124.42,593.41 125.63,592.53 126.85,591.65 128.03,590.81 129.14,590.03 129.97,589.45 
				129.55,589.05 128.77,588.28 128.03,587.53 127.33,586.79 126.66,586.07 126.03,585.35 125.43,584.66 124.86,583.97 
				124.32,583.29 123.79,582.62 123.29,581.97 122.81,581.32 122.34,580.68 119.87,577.24 126.71,576.13 130.11,575.4 
				133.29,574.53 136.28,573.54 139.07,572.43 141.66,571.2 144.07,569.87 			"/>
			<path class="st2" d="M133.59,590.06c-4.91-4.32-7.58-7.75-9.94-11.04c40.47-5.56,45.27-37.96,34.67-57.52
				c-25.84-43.41-59.74-12.13-81.16-33.22c-8.07,33.84-44.77,52.67-27.56,87.57c14.38,28.1,46.37,30.92,59.56,10.16
				c3.68,4.47,7.35,8.93,11.39,13.23C120.53,599.23,133.4,589.66,133.59,590.06L133.59,590.06z M123.26,572.26
				c26.23-3.13,40.11-19.73,30.44-44.6c-14.95-29.45-49.59-19.33-73.95-28.65c-8.04,24.25-36.68,46.46-23.26,73.42
				c12.89,26.24,35.27,20.79,48.32,9.57c2.09-2.14-0.72-6.47-3.17-3.53c-16.29,13.33-31.6,9.62-39.74-7.81
				c-11.48-27.25,17.35-46.86,19.66-67.22c19.52,17.68,52.16-4.36,66.58,26.48c8.79,22.56-3.44,34.96-25.5,38.42
				C117.8,566.74,118.01,568.04,123.26,572.26L123.26,572.26z M125.15,588.43c-14.41-22.94-25.68-46.01-36.05-69.11
				c3.88,25.89,14.48,50.31,31.14,71.82C121.87,590.24,123.51,589.33,125.15,588.43L125.15,588.43z M120.9,565.1
				c9.72,1.26,34.39-10.89,24.24-34.4c-11.72-23.74-38.24-12.62-57.8-19.89c2.13,5.32,5.11,10.01,7.92,13.21
				c4.66-0.8,8.7-3.19,13.36-5.78c-1.64,3.58-5.34,7.36-9.34,11.18c6.09-1.49,12.86-5.09,20.3-10.79c-3.66,8.03-8.31,16-13.64,23.94
				c8.44-1.05,17.48-7.08,26.61-13.83c-1.27,5.51-6.11,13.3-18.81,26.1c9.77-1.09,18.38-7.14,26.48-15.44
				C136.63,548.83,130.2,557.39,120.9,565.1L120.9,565.1z M83.28,511.46c3.7,20.34,8.87,40.32,17.24,59.54
				c-5.47,7.27-12.52,9.69-19.25,9.71c6.93-4.95,10.96-10.55,11.95-17.14c-10.72,9.95-19.1,12.58-25.13,7.9
				c8.81-5.37,15.49-11.97,20.06-19.79c-9.73,6.45-19.49,8.91-26.24,3.8c7.59-3.8,15.59-8.36,21.49-15.84
				c-4.4,2.26-10.23,3.11-15.9,2.61c4.62-5.18,9.72-11.01,14.33-16.18c-3.45,0.96-6.58,2.61-10.02,3.57
				C76.96,523.64,80.25,517.56,83.28,511.46L83.28,511.46z"/>
			<polygon class="st1" points="202.16,616.37 203.26,614.39 204.16,612.42 204.88,610.47 205.42,608.54 205.78,606.63 
				205.98,604.74 206.03,602.88 205.93,601.05 205.68,599.25 205.29,597.48 204.78,595.75 204.14,594.06 203.38,592.41 
				202.51,590.81 201.54,589.25 200.47,587.75 199.3,586.31 198.05,584.92 196.72,583.6 195.32,582.34 193.85,581.16 192.32,580.05 
				190.74,579.02 189.12,578.07 187.5,577.22 183.74,577.15 180,575.82 176.45,574.79 173.07,574.03 169.85,573.51 166.78,573.23 
				163.85,573.16 161.04,573.28 158.33,573.58 155.73,574.04 153.2,574.65 150.63,573.84 148.25,574.69 145.92,575.63 
				143.64,576.66 141.41,577.74 139.2,578.88 137.01,580.05 134.84,581.22 132.67,582.39 130.5,583.54 128.31,584.64 126.1,585.68 
				123.84,586.64 121.54,587.5 119.18,588.24 116.75,588.84 114.25,589.27 111.66,589.51 108.98,589.54 106.5,589.36 106.56,589.51 
				107.36,592.19 108,594.87 108.5,597.54 108.86,600.21 109.12,602.87 109.28,605.51 109.37,608.13 109.39,610.74 109.37,613.33 
				109.31,615.89 109.25,618.43 109.18,620.94 109.13,623.42 109.11,625.86 109.14,628.27 109.23,630.63 109.4,632.96 
				109.66,635.24 110.02,637.46 110.5,639.64 111.11,641.76 111.86,643.83 112.78,645.84 113.86,647.8 115.13,649.7 116.61,651.55 
				118.3,653.34 120.24,655.09 122.43,656.78 124.91,658.43 127.67,660.01 130.04,661.16 132.43,662.19 134.82,663.07 137.2,663.82 
				139.56,664.43 141.89,664.92 144.21,665.28 146.49,665.52 148.74,665.64 150.94,665.65 153.11,665.54 155.22,665.32 157.28,665 
				159.27,664.57 161.21,664.05 163.07,663.42 164.86,662.71 166.57,661.9 168.19,661 169.73,660.02 171.16,658.96 172.5,657.82 
				173.74,656.61 174.86,655.32 175.87,653.96 176.77,652.54 177.54,651.05 178.18,649.5 178.69,647.89 179.06,646.23 
				179.29,644.51 179.47,640.57 182.93,641.59 183.94,641.88 184.94,642.18 185.95,642.47 186.96,642.77 187.97,643.06 
				188.98,643.34 189.99,643.62 191,643.91 192.02,644.18 193.03,644.45 194.05,644.72 195.07,644.98 196.09,645.24 196.47,645.33 
				196.76,644.7 197.2,643.77 197.68,642.73 198.21,641.61 198.75,640.46 199.3,639.31 199.84,638.2 200.35,637.16 200.74,636.4 
				200.18,636.3 199.13,636.09 198.12,635.87 197.15,635.65 196.22,635.42 195.32,635.19 194.46,634.95 193.63,634.71 
				192.82,634.46 192.04,634.21 191.28,633.96 190.54,633.71 189.81,633.46 185.96,632.08 191.05,628.33 193.48,626.35 
				195.67,624.35 197.63,622.35 199.35,620.36 200.86,618.36 202.16,616.37 			"/>
			<path class="st2" d="M204.05,635.26c-6.34-0.95-10.35-2.23-14.03-3.55c30.64-21.46,17.64-46.58-1.4-55.9
				c-25.44-6.64-42.05-1.48-53.84-1.77c-14.57-0.37-21.08,9.74-30.87,13.26c11.04,27.55-9.52,56.82,23.04,74.19
				c26.65,13.76,54.65,1.93,54.71-18.54c5.39,1.59,10.78,3.17,16.37,4.48C198.04,647.43,203.69,635.06,204.05,635.26L204.05,635.26z
				 M186.16,627.08c20.11-13.57,22.92-31.38,1.86-44.88c-27.84-14.48-51.25,7.71-76.33,11.62c6.04,20.72-6.07,48.9,19.19,62.27
				c24.44,13.08,40.14-0.47,45.08-14.09c0.62-2.43-3.99-4.29-4.48-1.13c-6.52,16.53-21.16,20.51-37.04,11.63
				c-23.8-14.41-10.17-40.83-18.93-56.3c25.45,4.13,40.96-25.66,69.08-9.97c19.12,12.24,15.47,26.35-1,38.35
				C178.74,625.51,179.6,626.35,186.16,627.08L186.16,627.08z M196.21,637.76c-23.97-10.08-45.4-21.61-66.11-33.55
				c16.79,16.73,38.38,29.51,63.46,37.6C194.43,640.46,195.32,639.11,196.21,637.76L196.21,637.76z M180.45,623
				c8.72-3.31,22.81-22.62,2.07-34.95c-22.16-11.81-38.32,7.57-58.35,10.86c4.56,2.86,9.48,4.91,13.49,5.97
				c3.45-2.58,5.54-6.03,8.05-9.89c0.52,3.25-0.57,7.55-1.88,11.99c4.27-3.69,8-9.18,11.18-16.46c1.17,7.29,1.5,14.97,1.24,22.93
				c6.45-4.4,10.78-12.6,14.81-21.34c1.84,4.47,1.91,12.1-1.92,26.7c7.53-5,11.5-13.03,13.86-22.44
				C184.97,604.63,184.12,613.5,180.45,623L180.45,623z M121.15,601.13c13.73,12.86,28.49,24.84,45.5,34.88
				c-0.72,7.54-5.3,12.31-10.88,15.23c3.15-6.52,3.56-12.25,0.93-17.36c-3.68,11.71-9.24,17.21-16.7,16.49
				c4.49-7.63,6.58-15.21,6.26-22.75c-4.69,8.8-11.49,14.76-19.76,14.05c4.3-5.98,8.55-12.69,9.52-20.56
				c-2.46,3.51-6.86,6.64-11.82,8.74c1.12-5.68,2.29-12.03,3.4-17.71c-2.35,2.17-4.09,4.7-6.44,6.87
				C122.29,612.53,121.84,606.78,121.15,601.13L121.15,601.13z"/>
			<polygon class="st1" points="258.87,705.03 257.42,706.87 255.9,708.54 254.29,710.04 252.62,711.39 250.88,712.59 
				249.08,713.65 247.24,714.56 245.35,715.33 243.42,715.97 241.45,716.49 239.46,716.88 237.44,717.14 235.41,717.29 
				233.37,717.33 231.33,717.26 229.29,717.08 227.26,716.8 225.25,716.42 223.27,715.94 221.31,715.37 219.4,714.72 217.53,713.98 
				215.71,713.17 213.95,712.27 212.3,711.33 208.75,708.89 205.57,706.43 202.78,703.99 200.34,701.56 198.23,699.15 
				196.43,696.75 194.9,694.36 193.63,691.99 192.6,689.62 191.77,687.26 191.12,684.89 190.65,682.53 190.32,680.17 190.12,677.81 
				190.02,675.45 190,673.09 190.05,670.74 190.14,668.39 190.24,666.05 190.34,663.71 190.42,661.38 186.94,657.77 186.89,655.46 
				186.74,653.15 186.46,650.85 186.04,648.56 185.43,646.28 184.62,644.01 183.58,641.76 182.29,639.54 180.88,637.58 
				181.06,637.55 184.15,636.95 187.15,636.22 190.08,635.38 192.94,634.43 195.74,633.39 198.47,632.29 201.15,631.12 
				203.78,629.92 209.87,629.96 212.42,628.71 214.93,627.47 217.42,626.23 219.88,625.03 222.33,623.87 224.76,622.76 
				227.18,621.72 229.59,620.77 232.01,619.91 234.43,619.16 236.85,618.53 239.28,618.04 241.73,617.69 244.21,617.5 
				246.71,617.48 249.24,617.63 251.83,617.98 254.47,618.53 257.18,619.31 259.97,620.32 262.85,621.59 265.8,623.12 
				268.14,624.53 270.35,626.03 272.42,627.58 274.34,629.19 276.13,630.84 277.78,632.54 279.29,634.28 280.66,636.05 
				281.89,637.84 282.99,639.66 283.95,641.49 284.78,643.34 285.47,645.19 286.04,647.03 286.46,648.87 286.76,650.7 
				286.93,652.51 286.96,654.3 286.87,656.06 286.64,657.79 286.29,659.47 285.8,661.11 285.2,662.7 284.46,664.23 283.6,665.7 
				282.61,667.11 281.5,668.44 280.26,669.7 278.9,670.87 277.41,671.96 275.79,672.96 271.93,674.96 274.66,677.33 275.46,678.02 
				276.26,678.71 277.05,679.41 285.73,685.62 286.52,686.31 287.31,687.01 288.09,687.71 288.87,688.41 289.65,689.12 
				290.43,689.83 291.2,690.54 291.97,691.26 292.73,691.98 293.01,692.25 292.53,692.79 291.8,693.58 291,694.48 290.14,695.43 
				289.25,696.42 288.37,697.41 287.52,698.38 286.73,699.29 286.16,699.96 285.78,699.55 285.05,698.79 284.33,698.06 
				283.63,697.36 282.94,696.7 282.26,696.07 281.59,695.47 273.05,689.38 272.41,688.83 271.77,688.3 271.14,687.79 270.52,687.3 
				269.91,686.82 266.62,684.29 265.38,690.26 264.59,693.19 263.67,695.93 262.63,698.48 261.48,700.85 260.22,703.03 
				258.87,705.03 			"/>
			<path class="st2" d="M286.65,703.23c-4.09-4.78-15.25-13-18.4-15.41c-6.38,35.34-38.04,36.42-56.82,25.11
				c-41.64-27.17-13.89-55.45-33.91-76.51c33.13-3.84,55.85-33.26,89.41-14.58c27.02,15.51,28.99,44.15,8.47,53.81
				c4.26,3.7,16.41,12.91,20.49,16.91C295.9,692.55,286.28,703.03,286.65,703.23L286.65,703.23z M261.7,686.81
				c-3.67,22.95-20.16,33.63-44.14,22.62c-28.32-16.15-21.14-47.15-29.63-69.67c23.8-4.75,49.61-26.69,75.53-12.15
				c25.24,14,19.4,33.31,8.17,43.78c-2.13,1.65-6.28-1.28-3.36-3.16c13.37-13.14,10.12-27.08-6.66-36
				c-26.26-12.85-49.54,9.51-69.41,9.56c16.75,19.04-1.98,47.1,27.69,62.91c21.75,10.01,34.11,0.37,38.01-18.84
				C256.45,681.43,257.71,681.75,261.7,686.81L261.7,686.81z M285.28,695.59c-21.99-15.03-52.06-32.79-74.31-44.26
				c25.11,5.98,56.52,23.29,77.06,40.16C287.11,692.86,286.19,694.23,285.28,695.59L285.28,695.59z M254.78,684.02
				c0.99,8.75-11.42,29.43-34.07,18.13c-22.83-12.72-14.88-36.43-21.49-54.48c5.13,2.41,13.12,6.79,16.18,9.6
				c-0.89,4.06-3.31,7.4-5.94,11.28c3.52-1.1,7.3-4.02,11.11-7.19c-1.6,5.26-5.26,10.9-10.99,16.94c7.9-2.46,15.78-5.8,23.64-9.75
				c-1.22,7.38-7.31,14.81-14.1,22.24c5.39-0.58,13.09-4.11,25.86-14.12c-1.29,8.55-7.39,15.6-15.66,21.97
				C238.57,696.38,247.05,691.51,254.78,684.02L254.78,684.02z M199.95,644.12c19.71,5.28,42.55,13.1,61.06,22.4
				c7.21-4.14,9.73-10.15,9.91-16.12c-4.99,5.66-10.54,8.69-16.97,8.92c9.94-8.53,12.7-15.7,8.29-21.51
				c-5.44,7.28-12.02,12.57-19.74,15.85c6.51-8,9.13-16.41,4.33-22.9c-3.88,6.35-8.51,13.01-15.93,17.5
				c2.31-3.68,3.27-8.77,2.92-13.85c-5.15,3.59-10.95,7.54-16.1,11.12c1.02-2.96,2.7-5.58,3.71-8.54
				C215.47,641,205.96,642.04,199.95,644.12L199.95,644.12z"/>
			<path class="st1" d="M126.46,230.61l-2.5,0.51l-2.46,0.64l-2.4,0.77l-2.33,0.9l-2.24,1.03l-2.15,1.15l-2.05,1.27l-1.93,1.39
				l-1.8,1.5l-1.67,1.62l-1.52,1.73l-1.36,1.84l-1.2,1.95l-1.02,2.06l-0.84,2.17l-0.64,2.28l-0.43,2.39l-0.22,2.51l0.01,2.62
				l0.56,5.92l-7.72-2.5l-4.34-1.09l-4.19-0.75L78,262.08l-3.86-0.11l-3.69,0.18l-3.52,0.45l-3.33,0.71l-3.15,0.96l-2.96,1.19
				l-2.76,1.41l-2.56,1.61l-2.36,1.79l-2.15,1.97l-1.93,2.13l-1.7,2.27l-1.47,2.4l-1.24,2.52l-0.99,2.63l-0.74,2.72l-0.48,2.79
				l-0.22,2.85l0.06,2.9l0.34,2.94l0.63,2.96l0.92,2.97l1.23,2.96l1.54,2.94l1.87,2.91l0.22,0.28l-0.17-0.98l-0.21-1.92l-0.08-1.89
				l0.05-1.86l0.18-1.82l0.31-1.77l0.43-1.72l0.55-1.66l0.67-1.59l0.79-1.51l0.91-1.43l1.03-1.33l1.14-1.22l1.25-1.11l1.36-0.98
				l1.47-0.84l1.57-0.68l1.67-0.52l1.75-0.34l1.83-0.16l1.89,0.03l1.94,0.23l1.99,0.42l2.03,0.63l2.07,0.83l2.11,1.04l2.17,1.28
				l117.95,86.01l14.99-27.24l27.09-56.95l-80.73-59.06l-2.08-1.16l-2.23-1.04l-2.31-0.89l-2.38-0.75l-2.44-0.6l-2.49-0.46
				l-2.53-0.32l-2.56-0.18l-2.57-0.04l-2.57,0.1l-2.56,0.24L126.46,230.61L126.46,230.61z M166.32,276.55l30.78,20.98l-1.52,44.9
				l-53.73-40.44L166.32,276.55L166.32,276.55z M153.47,267.43l-24.33,24.86l-24.11-18.04c1.44-20.15,13.05-26.72,26.45-22.7
				l0.69,0.5L153.47,267.43L153.47,267.43z"/>
			<path class="st2" d="M99.7,272.92c-11.84-9.69-35.55-13.12-49.64,1.4c-2.22,2.45-4.02,5.54-5.35,8.85
				c0.72-1.08,1.49-2.1,2.33-3.02c14.08-14.52,37.8-11.09,49.64-1.4l107.63,79.13l2.67-4.13L99.7,272.92L99.7,272.92z M235.48,296.4
				l-81.41-58.44c-10.48-6.62-28.02-6.84-39.26-1.32c-7.45,3.66-12.03,9.62-13.4,17.23c2.66-5.64,7.57-10.01,13.57-12.78
				c14.54-6.13,25.66-4.83,36.63,2.73l81.2,58.21L235.48,296.4L235.48,296.4z M91.76,281.01c-10.52-7.4-26.52-11.29-40.25-1.72
				c-6.51,4.79-11.46,13.59-7.63,24.81c1.38-18.7,21.07-24.33,34.77-13.5l116.92,86.04l6.84-14.54L91.76,281.01L91.76,281.01z
				 M238.15,292.55l-81.21-58.9c-23.71-14.34-65.45-1.28-61.12,30.26c-50.1-18.03-78.19,29.33-44.2,59.1
				c-11.44-18.83,1.85-42.55,23.55-28.79l121.24,88.4L238.15,292.55L238.15,292.55z M163.38,259l-18.09-13.39
				c-6.79-5.14-17.5-5.7-26.72-2.63c-12.64,4.2-22.47,14.9-15.46,27.17c0.85-7.36,4.18-14.09,8.97-17.85
				c7.66-6.02,18.21-4.3,21.61-1.41l18.83,13.54l2.88-2.89l-12.16-9.15c-2.69-1.93-4.96-3.3-9.91-4.55
				c4.18-0.08,6.51-0.01,11.33,3.08l12.3,9.06C158.48,258.88,161.03,258.54,163.38,259L163.38,259z M132.49,292.44l26.82-27.31
				c3.58-3.91,12.89,1.69,7.91,7.07l-26.16,26.61L132.49,292.44L132.49,292.44z M230.44,307l-56.74-41
				c0.83,2.39,1.25,4.75-0.01,7.04l53.57,38.85L230.44,307L230.44,307z M226.28,313.63l-54.04-38.6l-2.37,2.88l22.4,16.31
				l32.44,22.59L226.28,313.63L226.28,313.63z M192.03,298.1l-24.25-18.38l-22.45,22.75c22.88,16.7,0,0,29.54,21.31
				C191.41,298.47,178.09,320.61,192.03,298.1L192.03,298.1z M150.24,267.61l-19.46-13.96c-14.25-3.79-23.71,7.2-23.2,20.72
				l21.01,15.31L150.24,267.61L150.24,267.61z M73.29,283.24c5.74,2.07,10.79,5.14,14.76,7.86l107.24,79.92l1.96-1.76L89.52,289.12
				C85.34,286.26,78.92,283.81,73.29,283.24L73.29,283.24z"/>
			<path class="st1" d="M307.14,292.98l129.71,0.65v270.69c-0.52,18.65-9.5,29.12-25.6,29.9l-82.64-1.62
				c-8.31,0.65-15.06,3.12-21.47,12.21V292.98L307.14,292.98z M307.14,292.98l-129.71,0.65v270.68
				c0.52,18.65,8.99,28.52,25.09,29.31l83.15-1.02c8.21,0.62,14.22,4.05,21.47,12.21L307.14,292.98L307.14,292.98z"/>
			<path class="st5" d="M177.28,293.64h260.27v273.79c0,15.08-11.17,27.42-24.82,27.42H323.9c-9.43,1.56-17.39,8.78-14.58,19.41
				c-1.59-10.27-9.3-17.85-18.74-19.41H202.1c-13.65,0-24.82-12.34-24.82-27.42V293.64L177.28,293.64z"/>
		</g>
	</g>
</g>
</svg>
